SplineFontDB: 3.2
FontName: SingScript.sg_everything
FullName: SingScript.sg "everything" module
FamilyName: SingScript.sg
Weight: Regular
Copyright: Copyright (c) 2025, 05524F.sg (Singapore)
Version: v2
ItalicAngle: 0
UnderlinePosition: -100
UnderlineWidth: 67
Ascent: 600
Descent: 300
InvalidEm: 0
sfntRevision: 0x00010000
LayerCount: 2
Layer: 0 0 "Back" 1
Layer: 1 0 "Fore" 0
XUID: [1021 768 647112374 32286]
StyleMap: 0x0040
FSType: 0
OS2Version: 4
OS2_WeightWidthSlopeOnly: 0
OS2_UseTypoMetrics: 1
CreationTime: 1740441635
ModificationTime: 1753922521
PfmFamily: 65
TTFWeight: 400
TTFWidth: 5
LineGap: 81
VLineGap: 0
Panose: 3 0 5 3 0 0 0 0 0 0
OS2TypoAscent: 600
OS2TypoAOffset: 0
OS2TypoDescent: -300
OS2TypoDOffset: 0
OS2TypoLinegap: 81
OS2WinAscent: 590
OS2WinAOffset: 0
OS2WinDescent: 233
OS2WinDOffset: 0
HheadAscent: 590
HheadAOffset: 0
HheadDescent: -233
HheadDOffset: 0
OS2SubXSize: 585
OS2SubYSize: 630
OS2SubXOff: 0
OS2SubYOff: 126
OS2SupXSize: 585
OS2SupYSize: 630
OS2SupXOff: 0
OS2SupYOff: 432
OS2StrikeYSize: 44
OS2StrikeYPos: 232
OS2CapHeight: 467
OS2XHeight: 300
OS2Vendor: '5524'
OS2CodePages: 00000001.00000000
OS2UnicodeRanges: 80000003.10000000.00000000.00000000
Lookup: 258 0 0 "kernGPOS" { "kernGPOS-1"  } ['kern' ('DFLT' <'dflt' > ) ]
MarkAttachClasses: 1
DEI: 91125
LangName: 1033 "" "" "" "" "" "Version v2"
Encoding: ISO8859-1
UnicodeInterp: none
NameList: AGL For New Fonts
DisplaySize: -48
AntiAlias: 1
FitToEm: 0
WidthSeparation: 50
WinInfo: 1296 27 9
BeginPrivate: 6
BlueValues 21 [0 0 300 300 467 467]
OtherBlues 11 [-233 -233]
StdHW 4 [67]
StdVW 4 [67]
StemSnapH 33 [52 59 63 67 73 78 86 93 159 167]
StemSnapV 4 [67]
EndPrivate
Grid
0 -200 m 24
 351 -200 549 -200 900 -200 c 1048
0 -233 m 24
 351 -233 549 -233 900 -233 c 1048
250 211 m 24
 289 211 311 211 350 211 c 1048
250 100 m 24
 289 100 311 100 350 100 c 1048
250 -100 m 24
 289 -100 311 -100 350 -100 c 1048
250 -255 m 24
 289 -255 311 -255 350 -255 c 1048
100 511 m 24
 139 511 161 511 200 511 c 1048

StartChar: exclam
Encoding: 33 33 0
Width: 120
GlyphClass: 1
Flags: W
HStem: 0 67<30.4854 91.5146> 447 20G<50 68>
VStem: 27 68<3.48541 63.7074 149.301 462.579>
LayerCount: 2
Fore
SplineSet
27 34 m 0
 27 52 43 67 61 67 c 0
 79 67 95 52 95 34 c 0
 95 16 79 0 61 0 c 0
 43 0 27 16 27 34 c 0
27 434 m 2
 27 452 41 467 59 467 c 0
 77 467 93 452 93 434 c 2
 93 178 l 2
 93 160 76 144 58 144 c 0
 41 144 27 159 27 178 c 2
 27 434 l 2
EndSplineSet
Validated: 1
EndChar

StartChar: quotedbl
Encoding: 34 34 1
Width: 276
GlyphClass: 1
Flags: W
HStem: 300 167<59 112 186.239 202.761>
VStem: 82 64<410.219 463.488> 186 65<403.134 463.515>
LayerCount: 2
Fore
SplineSet
251 433 m 0
 251 426 223 361 203 320 c 0
 198 308 186 300 172 300 c 0
 154 300 138 316 138 334 c 0
 138 341 144 355 155 378 c 0
 163 395 174 418 186 447 c 0
 191 459 203 467 217 467 c 0
 235 467 251 451 251 433 c 0
112 467 m 0
 130 467 146 451 146 433 c 0
 146 425 140 411 106 350 c 0
 102 342 99 339 97 334 c 0
 83 305 77 300 59 300 c 0
 41 300 25 316 25 334 c 2
 25 335 l 2
 25 342 35 360 49 385 c 0
 59 403 71 425 82 449 c 0
 88 460 99 467 112 467 c 0
EndSplineSet
Validated: 1
EndChar

StartChar: numbersign
Encoding: 35 35 2
Width: 442
GlyphClass: 1
Flags: W
HStem: 0 21G<144 162> 115 67<28.4854 120.051> 266 67<35.4854 66 66.0066 127> 273 68<196 237 306 358> 447 20G<157 175 267 285>
VStem: 120 66<3.12434 34 60 120.521 188 273> 228 67<18.44 129.619> 243 67<346 463.56>
LayerCount: 2
Fore
SplineSet
192 194 m 1xdc
 234 198 l 1
 237 276 l 1
 225 275 217 275 201 273 c 2
 194 273 l 1
 192 194 l 1xdc
309 346 m 2
 379 350 379 350 379 350 c 2
 380 350 l 1
 381 351 l 1
 399 351 415 335 415 317 c 0
 415 299 401 285 383 284 c 0
 379 284 379 284 304 279 c 1
 301 204 l 1
 382 211 382 211 383 211 c 0
 401 211 417 195 417 177 c 0
 417 159 403 145 386 144 c 2
 299 136 l 1
 295 47 l 2
 294 29 280 15 262 15 c 0
 244 15 228 30 228 48 c 0
 228 56 229 72 230 89 c 0
 231 106 231 122 231 130 c 1
 190 127 l 1
 186 32 l 2
 185 14 171 0 153 0 c 0
 135 0 120 16 120 34 c 0
 121 37 121 48 121 60 c 0
 122 87 122 111 122 121 c 1
 80 117 65 116 60 115 c 2
 59 115 l 2
 41 115 25 131 25 149 c 0
 25 167 39 181 56 182 c 2
 125 188 l 1
 127 270 l 1
 126 270 102 268 85 267 c 0
 75 266 66 266 66 266 c 0
 48 266 32 282 32 300 c 0
 32 318 46 332 64 333 c 0xee
 67 333 81 334 96 335 c 0
 111 336 126 337 129 337 c 2
 133 435 l 2
 134 453 148 467 166 467 c 0
 184 467 200 452 200 434 c 0
 199 433 199 430 196 341 c 1
 199 341 199 341 239 343 c 1
 243 435 l 2
 244 453 258 467 276 467 c 0
 294 467 310 452 310 434 c 2
 310 433 l 2xdd
 310 432 310 432 306 346 c 1
 309 346 l 2
EndSplineSet
Validated: 1
EndChar

StartChar: dollar
Encoding: 36 36 3
Width: 293
GlyphClass: 1
Flags: W
HStem: 0 21G<120 138> 94 67<28.4854 100> 324 77<186.543 258.139> 447 20G<146 164>
VStem: 185 67<162.833 208.653>
LayerCount: 2
Fore
SplineSet
58 160 m 2
 62 160 l 2
 63 161 63 161 64 161 c 2
 74 161 l 2
 90 159 93 159 104 159 c 1
 110 250 l 1
 109 250 109 250 109 251 c 0
 109 265 92 276 75 288 c 0
 58 300 41 311 41 325 c 0
 41 362 70 390 119 399 c 1
 122 436 l 2
 123 454 137 467 155 467 c 0
 173 467 189 451 189 433 c 1
 188 433 187 422 186 401 c 1
 247 395 268 384 268 358 c 0
 268 340 252 324 234 324 c 0
 231 324 228 326 223 327 c 0
 214 330 202 333 182 334 c 1
 179 289 l 1
 228 261 252 226 252 184 c 0
 252 133 221 99 167 93 c 1
 162 31 l 2
 161 13 147 0 129 0 c 0
 111 0 95 16 95 34 c 1
 96 34 98 57 100 92 c 1
 91 92 88 92 73 94 c 2
 64 94 l 2
 61 94 60 94 59 93 c 0
 41 93 25 109 25 127 c 0
 25 145 40 160 58 160 c 2
171 162 m 1
 181 165 185 171 185 184 c 0
 185 193 182 200 174 209 c 1
 171 162 l 1
114 324 m 1
 114 329 l 1
 112 327 l 2
 112 326 112 326 111 326 c 1
 111 325 111 325 112 325 c 0
 113 325 113 325 114 324 c 1
EndSplineSet
Validated: 1
EndChar

StartChar: percent
Encoding: 37 37 4
Width: 485
GlyphClass: 1
Flags: W
HStem: 0 67<334 375.305> 144 67<350.127 392.683> 201 67<83.4024 122.254> 447 20G<117.5 169 358 373>
VStem: 25 58<246 335.381> 149 67<298.886 399.705> 266 67<67.0406 128.951> 393 67<82.6147 142.483>
LayerCount: 2
Fore
SplineSet
148 467 m 0xbf
 190 467 216 433 216 378 c 0
 216 331 200 274 176 236 c 0
 163 214 136 201 104 201 c 0
 59 201 25 228 25 264 c 0
 25 364 87 467 148 467 c 0xbf
460 136 m 0
 460 58 410 0 342 0 c 0
 297 0 266 30 266 73 c 0
 266 148 318 211 379 211 c 0xdf
 430 211 460 183 460 136 c 0
364 467 m 0
 382 467 398 452 398 434 c 0
 398 428 396 422 393 417 c 0
 392 415 334 316 276 217 c 0
 218 118 160 19 159 17 c 0
 153 7 142 0 130 0 c 0
 112 0 96 16 96 34 c 0
 96 39 98 44 101 50 c 0
 102 52 160 151 218 250 c 0
 276 349 334 448 335 450 c 0
 341 460 352 467 364 467 c 0
83 285 m 0
 83 274 90 268 104 268 c 0xbf
 109 268 118 270 119 271 c 0
 127 285 149 362 149 378 c 0
 149 383 148 389 146 400 c 1
 131 395 83 308 83 285 c 0
393 141 m 1
 384 144 383 144 379 144 c 0xdf
 356 144 333 109 333 73 c 0
 333 69 333 69 334 68 c 0
 334 67 334 67 342 67 c 0
 344 67 344 67 359 70 c 2
 360 70 l 1
 361 71 361 71 362 71 c 0
 377 80 393 113 393 136 c 2
 393 141 l 1
EndSplineSet
Validated: 1
EndChar

StartChar: ampersand
Encoding: 38 38 5
Width: 390
GlyphClass: 1
Flags: W
HStem: -0 21G<298.5 321> 400 67<140.771 191.956>
VStem: 25 67<85 136.816> 192 67<345.401 399.98>
LayerCount: 2
Fore
SplineSet
154 202 m 1
 112 145 92 107 92 85 c 1
 114 88 149 102 199 128 c 1
 197 130 175 166 154 202 c 1
294 105 m 1
 313 78 326 65 334 57 c 0
 343 48 346 45 346 34 c 0
 346 16 330 0 312 0 c 2
 309 -0 l 2
 288 0 273 14 235 72 c 1
 164 35 117 18 86 18 c 0
 48 18 25 43 25 85 c 0
 25 128 44 165 118 266 c 1
 76 341 65 365 65 381 c 0
 65 420 133 467 190 467 c 0
 231 467 259 437 259 394 c 0
 259 360 242 323 197 261 c 1
 205 247 230 206 258 161 c 1
 280 173 296 183 313 194 c 0
 323 199 326 200 331 200 c 0
 349 200 365 184 365 166 c 0
 365 148 361 144 314 117 c 2
 294 105 l 1
192 395 m 0
 192 400 192 400 190 400 c 0
 177 400 151 389 136 377 c 1
 141 365 150 347 161 327 c 1
 179 352 192 381 192 395 c 0
EndSplineSet
Validated: 1
EndChar

StartChar: quotesingle
Encoding: 39 39 6
Width: 165
GlyphClass: 1
Flags: W
HStem: 300 167<75.5721 89.4279>
VStem: 25 115
LayerCount: 2
Fore
SplineSet
106 467 m 0
 124 467 140 451 140 433 c 0
 140 427 139 423 136 419 c 0
 136 418 90 320 89 319 c 0
 84 308 72 300 59 300 c 0
 41 300 25 316 25 334 c 0
 25 340 26 344 29 348 c 0
 29 349 75 447 76 448 c 0
 81 459 93 467 106 467 c 0
EndSplineSet
Validated: 1
EndChar

StartChar: parenleft
Encoding: 40 40 7
Width: 250
GlyphClass: 1
Flags: W
HStem: -233 21G<162.5 177> 447 20G<187 201>
VStem: 25 67<-20.9732 227.7>
LayerCount: 2
Fore
SplineSet
167 455 m 0
 172 462 182 467 192 467 c 0
 210 467 225 452 225 434 c 0
 225 426 222 418 217 412 c 0
 132 314 92 214 92 99 c 0
 92 5 130 -99 194 -179 c 0
 199 -185 201 -191 201 -200 c 0
 201 -218 186 -233 168 -233 c 0
 157 -233 147 -228 142 -220 c 0
 68 -125 25 -9 25 99 c 0
 25 229 70 342 167 455 c 0
EndSplineSet
Validated: 1
EndChar

StartChar: parenright
Encoding: 41 41 8
Width: 268
GlyphClass: 1
Flags: W
HStem: -233 21G<49 62.5> 447 20G<93 107>
VStem: 176 67<11.9584 262.908>
LayerCount: 2
Fore
SplineSet
69 434 m 0
 69 452 84 467 102 467 c 0
 112 467 121 463 127 456 c 0
 198 379 243 254 243 134 c 0
 243 6 203 -82 83 -221 c 0
 76 -229 67 -233 58 -233 c 0
 40 -233 25 -218 25 -200 c 0
 25 -192 28 -184 33 -178 c 0
 142 -51 176 24 176 134 c 0
 176 235 136 346 77 411 c 0
 72 417 69 425 69 434 c 0
EndSplineSet
Validated: 1
EndChar

StartChar: asterisk
Encoding: 42 42 9
Width: 268
GlyphClass: 1
Flags: W
HStem: 347 64<28.3641 77.8942 188.462 239.876> 447 20G<124 142>
VStem: 100 67<396 463.515>
LayerCount: 2
Fore
SplineSet
58 411 m 0
 66 411 71 408 79 404 c 0
 84 401 91 397 100 394 c 1
 100 436 l 2
 101 453 115 467 133 467 c 0
 151 467 167 451 167 433 c 2
 167 396 l 1
 190 407 203 412 209 412 c 0
 227 412 243 396 243 378 c 0
 243 364 235 352 223 347 c 0
 198 337 198 337 188 332 c 1
 217 303 l 2
 223 297 227 288 227 279 c 0
 227 261 212 246 194 246 c 0
 184 246 176 249 170 255 c 2
 133 293 l 1
 132 292 125 284 119 276 c 0
 113 268 106 259 105 258 c 0
 99 250 90 246 79 246 c 0
 61 246 46 261 46 279 c 0
 46 293 47 295 78 331 c 1
 76 332 62 338 44 347 c 2
 33 352 25 364 25 377 c 0
 25 395 40 411 58 411 c 0
EndSplineSet
Validated: 1
EndChar

StartChar: plus
Encoding: 43 43 10
Width: 320
GlyphClass: 1
Flags: W
HStem: 0 21G<154 172> 122 66<29.5567 128 196 291.515> 280 20G<152 170>
VStem: 130 66<3.12434 119 188 295.972>
LayerCount: 2
Fore
SplineSet
57 185 m 0
 59 185 62 186 66 186 c 0
 70 186 74 186 76 186 c 2
 128 186 l 1
 128 266 l 1
 127 266 l 1
 127 284 143 300 161 300 c 0
 179 300 194 285 194 267 c 0
 195 245 195 238 195 188 c 1
 210 188 l 2
 212 188 215 188 217 188 c 0
 219 188 222 189 224 189 c 2
 240 189 l 2
 259 189 260 189 261 190 c 0
 279 190 295 174 295 156 c 0
 295 138 281 124 263 123 c 0
 260 123 257 122 254 122 c 0
 251 122 249 122 246 122 c 2
 213 122 l 2
 211 122 207 122 204 122 c 0
 201 122 198 121 196 121 c 1
 196 34 l 1
 197 34 l 1
 197 16 181 0 163 0 c 0
 145 0 130 15 130 33 c 0
 129 56 129 64 129 119 c 1
 113 118 100 118 59 118 c 0
 41 118 25 134 25 152 c 0
 25 170 39 184 57 185 c 0
EndSplineSet
Validated: 1
EndChar

StartChar: comma
Encoding: 44 44 11
Width: 177
GlyphClass: 1
Flags: W
HStem: -93 187<87.7428 88.9985>
VStem: 25 127
LayerCount: 2
Fore
SplineSet
118 94 m 0
 136 94 152 78 152 60 c 0
 152 52 142 32 89 -74 c 0
 84 -85 72 -93 59 -93 c 0
 41 -93 25 -77 25 -59 c 0
 25 -58 l 0
 25 -56 25 -56 28 -47 c 0
 28 -46 29 -45 29 -44 c 0
 29 -43 87 74 88 75 c 0
 93 86 105 94 118 94 c 0
EndSplineSet
Validated: 1
EndChar

StartChar: hyphen
Encoding: 45 45 12
Width: 327
GlyphClass: 1
Flags: W
VStem: 25 277<130.047 179.953>
LayerCount: 2
Fore
SplineSet
270 127 m 0
 148 121 72 117 59 116 c 0
 41 116 25 132 25 150 c 0
 25 168 39 182 57 183 c 0
 179 189 255 193 268 194 c 0
 286 194 302 178 302 160 c 0
 302 142 288 128 270 127 c 0
EndSplineSet
Validated: 1
EndChar

StartChar: period
Encoding: 46 46 13
Width: 116
GlyphClass: 1
Flags: W
HStem: 0 67<28.2926 87.7074>
VStem: 25 66<3.12434 64.0499>
LayerCount: 2
Fore
SplineSet
25 34 m 0
 25 52 40 67 58 67 c 0
 76 67 91 52 91 34 c 0
 91 16 76 0 58 0 c 0
 40 0 25 16 25 34 c 0
EndSplineSet
Validated: 1
EndChar

StartChar: slash
Encoding: 47 47 14
Width: 340
GlyphClass: 1
Flags: W
HStem: 447 20G<274 290>
VStem: 25 65<-107.515 -44.422> 250 65<402.216 463.515>
LayerCount: 2
Fore
SplineSet
281 467 m 0
 299 467 315 451 315 433 c 0
 315 424 257 293 198 158 c 0
 156 63 113 -34 90 -90 c 0
 86 -102 72 -111 59 -111 c 0
 41 -111 25 -95 25 -77 c 0
 25 -70 111 126 177 277 c 0
 214 362 244 432 250 447 c 0
 255 459 267 467 281 467 c 0
EndSplineSet
Validated: 1
EndChar

StartChar: zero
Encoding: 48 48 15
Width: 338
GlyphClass: 1
Flags: W
HStem: 0 67<120.042 187.397> 400 67<131.095 221.156>
VStem: 25 67<96.4811 344.527> 246 67<165.592 375.047>
LayerCount: 2
Fore
SplineSet
169 400 m 2
 120 400 92 330 92 205 c 0
 92 176 93 153 95 136 c 0
 99 102 131 67 157 67 c 0
 199 67 246 186 246 292 c 0
 246 364 222 400 175 400 c 2
 169 400 l 2
313 292 m 0
 313 132 242 0 157 0 c 0
 95 0 37 58 29 128 c 0
 26 147 25 172 25 205 c 0
 25 330 54 413 111 449 c 0
 129 461 151 467 175 467 c 0
 265 467 313 406 313 292 c 0
EndSplineSet
Validated: 1
EndChar

StartChar: one
Encoding: 49 49 16
Width: 124
GlyphClass: 1
Flags: W
HStem: 0 21G<49 67> 447 20G<57 75>
VStem: 25 66<3.2926 229.471> 28 67<34.8904 461.305>
LayerCount: 2
Fore
SplineSet
99 434 m 0xd0
 99 423 98 381 97 340 c 0
 96 299 95 257 95 246 c 2
 95 232 l 2xd0
 93 178 92 127 91 33 c 0
 91 15 76 0 58 0 c 0
 40 0 25 16 25 34 c 0xe0
 25 53 25 71 28 220 c 2
 28 242 l 2
 28 243 28 245 28 246 c 0
 28 247 29 249 29 250 c 0
 30 293 30 293 33 434 c 0
 33 452 48 467 66 467 c 0
 84 467 99 452 99 434 c 0xd0
EndSplineSet
Validated: 1
EndChar

StartChar: two
Encoding: 50 50 17
Width: 351
GlyphClass: 1
Flags: W
HStem: 0 67<129.536 303.829> 11 66<154.092 322.707> 447 20G<187.5 227.5>
LayerCount: 2
Fore
SplineSet
202 400 m 1xa0
 165 395 128 372 100 354 c 0
 82 343 67 334 59 334 c 0
 41 334 25 350 25 368 c 0
 25 379 31 389 40 395 c 0
 105 441 166 467 209 467 c 0
 246 467 271 446 271 414 c 0
 271 387 262 326 254 300 c 0
 242 258 235 246 185 163 c 0
 143 92 141 90 129 68 c 1
 134 67 135 67 153 67 c 0xa0
 176 67 218 70 288 77 c 0
 291 77 292 77 293 78 c 0
 311 78 326 63 326 45 c 0
 326 28 313 13 296 11 c 0x60
 253 6 171 0 153 0 c 0
 87 0 55 18 55 55 c 0
 55 63 57 72 60 78 c 0
 93 137 110 167 138 215 c 0
 186 296 194 318 202 400 c 1xa0
EndSplineSet
Validated: 1
EndChar

StartChar: three
Encoding: 51 51 18
Width: 309
GlyphClass: 1
Flags: W
HStem: 0 21G<58 70> 6 62<67.2885 97 97 146.394> 396 71<30.6953 212.021>
VStem: 192 67<128 164.857>
LayerCount: 2
Fore
SplineSet
192 129 m 2x70
 192 149 170 169 148 189 c 0
 126 209 105 229 105 249 c 0
 105 294 144 326 177 353 c 0
 193 366 208 378 215 390 c 1
 200 396 172 400 139 400 c 0
 111 400 85 399 61 396 c 2
 58 396 l 2
 40 396 25 411 25 429 c 0
 25 446 38 461 55 463 c 0
 78 466 103 467 139 467 c 0
 235 467 284 442 284 393 c 0
 284 356 249 327 218 301 c 0
 198 284 179 268 173 253 c 1
 182 244 186 241 194 234 c 0
 239 195 259 162 259 129 c 0
 259 101 234 66 197 42 c 0
 174 28 155 21 98 7 c 0
 97 7 97 7 97 6 c 1
 96 6 l 2x70
 89 3 73 0 67 0 c 0xb0
 49 0 33 16 33 34 c 0
 33 53 43 63 69 68 c 0
 71 68 100 75 104 76 c 0
 171 92 181 98 191 127 c 1
 192 128 l 1
 192 129 l 2x70
EndSplineSet
Validated: 1
EndChar

StartChar: four
Encoding: 52 52 19
Width: 359
GlyphClass: 1
Flags: W
HStem: 0 21G<159 177> 167 68<94.7839 143.428> 281 20G<296 310> 447 20G<59 77 189 207>
VStem: 25 67<235.331 444.746> 35 67<287.831 463.515> 134 67<3.48541 168.317> 165 67<271.706 463.436>
LayerCount: 2
Fore
SplineSet
219 264 m 1xf9
 249 277 265 286 275 292 c 0
 286 298 291 301 301 301 c 0
 319 301 334 286 334 268 c 0
 334 256 328 245 318 239 c 0
 289 222 253 205 213 190 c 0
 212 189 203 66 201 37 c 0
 201 33 201 31 201 31 c 0
 200 14 186 0 168 0 c 0
 150 0 134 16 134 34 c 0
 134 36 135 53 137 82 c 0
 139 104 141 134 144 170 c 1
 135 169 116 167 111 167 c 0
 50 167 25 202 25 287 c 0xfa
 25 305 25 305 35 435 c 0
 36 453 50 467 68 467 c 0
 86 467 102 451 102 433 c 0xf4
 102 418 99 389 97 360 c 0
 95 331 92 302 92 287 c 0
 92 258 94 243 99 235 c 1
 101 235 l 2
 104 234 105 234 111 234 c 0
 121 234 134 236 150 240 c 1
 151 242 151 245 151 248 c 0
 160 352 162 373 165 436 c 0
 166 454 180 467 198 467 c 0
 216 467 232 451 232 433 c 0
 232 431 232 431 219 264 c 1xf9
EndSplineSet
Validated: 1
EndChar

StartChar: five
Encoding: 53 53 20
Width: 336
GlyphClass: 1
Flags: W
HStem: -9 67<96.5841 214.959> 398 68<109.382 307.56>
VStem: 37 67<288.029 400.859> 234 67<77.9062 165.268>
LayerCount: 2
Fore
SplineSet
154 470 m 2
 161 470 l 2
 180 470 191 470 261 466 c 0
 264 466 267 466 270 466 c 0
 273 466 276 465 279 465 c 0
 297 464 311 450 311 432 c 0
 311 414 296 398 278 398 c 2
 273 398 l 1
 216 402 176 404 154 404 c 0
 134 404 117 403 109 401 c 1
 105 374 104 363 104 353 c 0
 104 296 116 282 193 250 c 0
 276 216 301 190 301 139 c 0
 301 49 247 -9 164 -9 c 0
 94 -9 25 29 25 67 c 0
 25 85 41 101 59 101 c 0
 72 101 84 93 89 82 c 1
 107 68 138 58 164 58 c 0
 210 58 233 84 234 137 c 2
 234 139 l 2
 234 161 208 171 174 184 c 0
 139 198 97 214 68 249 c 0
 47 273 37 307 37 353 c 0
 37 382 44 422 52 439 c 0
 63 462 89 470 154 470 c 2
EndSplineSet
Validated: 1
EndChar

StartChar: six
Encoding: 54 54 21
Width: 277
GlyphClass: 1
Flags: W
HStem: 0 67<99.8984 175.707> 447 20G<185.5 201>
VStem: 185 67<77.2568 164.781>
LayerCount: 2
Fore
SplineSet
134 67 m 0
 163 67 185 86 185 112 c 0
 185 147 154 190 123 197 c 1
 105 154 95 124 92 105 c 1
 98 80 113 67 134 67 c 0
226 433 m 0
 226 429 225 428 219 415 c 0
 210 397 191 357 149 259 c 1
 207 240 252 175 252 112 c 0
 252 49 200 0 134 0 c 0
 78 0 25 50 25 104 c 0
 25 141 74 263 162 448 c 0
 167 459 179 467 192 467 c 0
 210 467 226 451 226 433 c 0
EndSplineSet
Validated: 1
EndChar

StartChar: seven
Encoding: 55 55 22
Width: 301
GlyphClass: 1
Flags: W
HStem: 0 21G<183 200.5> 447 20G<203 237.5>
VStem: 158 67<3.53394 149.642> 208 68<231.574 387 388 400>
LayerCount: 2
Fore
SplineSet
158 34 m 0xe0
 158 80 171 145 184 210 c 0
 197 275 209 341 209 387 c 0
 208 388 l 0
 208 390 l 2
 208 400 l 1
 156 396 89 386 67 382 c 0
 62 381 59 381 59 381 c 0
 41 381 25 397 25 415 c 0
 25 431 36 445 53 448 c 0
 117 459 185 467 221 467 c 0
 254 467 273 455 274 432 c 2
 274 426 l 2
 274 423 275 414 275 406 c 0
 275 398 276 390 276 387 c 0xd0
 276 304 263 238 249 173 c 0
 240 127 230 82 225 30 c 0
 223 13 209 0 192 0 c 0
 174 0 158 16 158 34 c 0xe0
EndSplineSet
Validated: 1
EndChar

StartChar: eight
Encoding: 56 56 23
Width: 281
GlyphClass: 1
Flags: W
HStem: 0 67<114.845 188.012> 400 67<102.44 164>
VStem: 29 67<86.7693 160.697 289.615 387.589> 189 67<67.3932 133.386>
LayerCount: 2
Fore
SplineSet
165 0 m 0
 91 0 29 56 29 123 c 0
 29 149 37 166 75 229 c 1
 41 267 25 304 25 346 c 0
 25 361 27 376 31 391 c 0
 42 433 102 467 163 467 c 0
 205 467 232 445 232 411 c 0
 232 363 212 315 161 238 c 1
 173 226 l 1
 237 168 256 135 256 81 c 0
 256 32 220 0 165 0 c 0
124 181 m 1
 124 176 117 164 110 152 c 0
 103 140 96 128 96 123 c 2
 96 119 l 1
 101 90 131 67 165 67 c 0
 182 67 189 71 189 81 c 0
 189 113 183 123 126 180 c 0
 125 180 125 180 124 181 c 1
163 400 m 2
 140 400 102 385 96 374 c 0
 93 366 92 357 92 346 c 0
 92 325 99 306 113 288 c 1
 147 341 161 372 164 400 c 1
 163 400 l 2
EndSplineSet
Validated: 1
EndChar

StartChar: nine
Encoding: 57 57 24
Width: 316
GlyphClass: 1
Flags: W
HStem: 0 21G<223 240> 242 59<96.474 172.099> 400 67<108.975 184.618>
VStem: 25 67<304.654 383.208> 224 67<88.9772 280.477>
LayerCount: 2
Fore
SplineSet
92 338 m 0
 92 316 106 301 125 301 c 0
 151 301 177 318 201 352 c 1
 189 382 170 400 150 400 c 0
 118 400 92 373 92 338 c 0
198 34 m 0
 198 53 205 91 211 130 c 0
 217 169 224 208 224 227 c 0
 224 249 223 264 219 281 c 1
 182 253 155 242 124 242 c 0
 64 242 25 280 25 338 c 0
 25 409 81 467 150 467 c 0
 201 467 244 430 266 367 c 2
 276 336 l 2
 286 298 291 263 291 227 c 0
 291 184 291 184 265 28 c 0
 262 11 248 0 232 0 c 0
 214 0 198 16 198 34 c 0
EndSplineSet
Validated: 1
EndChar

StartChar: colon
Encoding: 58 58 25
Width: 119
GlyphClass: 1
Flags: W
HStem: 30 67<29.4854 90.5146> 192 68<28.2926 88.5146>
VStem: 26 68<33.4854 93.7074 196.673 255.327>
LayerCount: 2
Fore
SplineSet
25 226 m 0
 25 244 40 260 58 260 c 0
 76 260 92 244 92 226 c 0
 92 208 76 192 58 192 c 0
 40 192 25 208 25 226 c 0
26 64 m 0
 26 82 42 97 60 97 c 0
 78 97 94 82 94 64 c 0
 94 46 78 30 60 30 c 0
 42 30 26 46 26 64 c 0
EndSplineSet
Validated: 1
EndChar

StartChar: semicolon
Encoding: 59 59 26
Width: 180
GlyphClass: 1
Flags: W
HStem: 192 68<91.2926 151.515>
VStem: 88 67<37.1719 88.8968 195.485 256.515>
LayerCount: 2
Fore
SplineSet
118 94 m 0
 136 94 152 78 152 60 c 0
 152 52 142 32 89 -74 c 0
 84 -85 72 -93 59 -93 c 0
 41 -93 25 -77 25 -59 c 0
 25 -58 l 0
 25 -56 25 -56 28 -47 c 0
 28 -46 29 -45 29 -44 c 0
 29 -43 87 74 88 75 c 0
 93 86 105 94 118 94 c 0
88 226 m 0
 88 244 103 260 121 260 c 0
 139 260 155 244 155 226 c 0
 155 208 139 192 121 192 c 0
 103 192 88 208 88 226 c 0
EndSplineSet
Validated: 1
EndChar

StartChar: less
Encoding: 60 60 27
Width: 299
GlyphClass: 1
Flags: W
HStem: 0 84<174.734 237.53> 280 20G<236.5 250>
VStem: 25 249
LayerCount: 2
Fore
SplineSet
241 300 m 0
 259 300 274 285 274 267 c 0
 274 255 268 244 259 238 c 0
 232 220 202 204 174 190 c 0
 143 174 114 159 95 144 c 1
 107 128 133 113 197 84 c 0
 253 59 259 54 259 33 c 0
 259 15 244 0 226 0 c 0
 209 0 102 51 69 76 c 0
 40 97 25 122 25 149 c 0
 25 182 44 198 149 254 c 0
 168 264 181 271 202 283 c 0
 227 298 232 300 241 300 c 0
EndSplineSet
Validated: 1
EndChar

StartChar: equal
Encoding: 61 61 28
Width: 327
GlyphClass: 1
Flags: W
HStem: 37 67<28.4854 266.213> 45 67<184.15 298.515> 173 67<29.44 155.797> 183 61<62.5018 257 258 289.219>
VStem: 25 277<48.4478 100.552>
LayerCount: 2
Fore
SplineSet
58 240 m 0x28
 64 240 111 242 158 244 c 0
 205 246 251 249 257 249 c 1
 258 250 l 1
 276 250 292 234 292 216 c 0
 292 198 278 184 260 183 c 0x18
 253 183 133 177 59 173 c 0
 41 173 26 189 26 207 c 0
 26 225 40 239 58 240 c 0x28
59 37 m 0x88
 41 37 25 53 25 71 c 0
 25 89 39 103 58 104 c 0x88
 62 104 99 105 145 107 c 0
 184 109 230 111 268 112 c 0
 286 112 302 96 302 78 c 0
 302 60 288 46 269 45 c 0x48
 265 45 228 44 182 42 c 0
 143 40 97 38 59 37 c 0x88
EndSplineSet
Validated: 1
EndChar

StartChar: greater
Encoding: 62 62 29
Width: 271
GlyphClass: 1
Flags: W
HStem: 0 21G<51 66.5> 280 20G<49 62.5>
VStem: 27 219
LayerCount: 2
Fore
SplineSet
27 33 m 0
 27 58 65 82 103 106 c 0
 132 124 162 143 176 163 c 1
 159 176 134 189 107 202 c 0
 84 213 60 225 40 238 c 0
 31 243 25 255 25 267 c 0
 25 285 40 300 58 300 c 0
 67 300 69 299 79 293 c 0
 89 287 105 277 142 259 c 0
 227 216 246 200 246 167 c 0
 246 129 222 103 139 49 c 0
 132 45 124 39 115 32 c 0
 96 17 73 0 60 0 c 0
 42 0 27 15 27 33 c 0
EndSplineSet
Validated: 1
EndChar

StartChar: question
Encoding: 63 63 30
Width: 281
GlyphClass: 1
Flags: W
HStem: 0 67<48.2926 107.707> 399 68<28.4854 189.189>
VStem: 45 66<3.12434 64.0499> 190 66<328.085 379 379.001 389.854>
LayerCount: 2
Fore
SplineSet
117 465 m 0
 214 465 256 439 256 379 c 0
 256 315 221 267 114 186 c 0
 112 185 112 185 110 183 c 0
 94 172 92 171 82 171 c 0
 64 171 49 186 49 204 c 0
 49 216 51 220 63 232 c 0
 162 306 189 338 189 379 c 0
 189 379 190 380 190 381 c 0
 190 382 190 383 190 383 c 0
 190 391 177 393 105 397 c 0
 92 398 84 398 78 398 c 0
 67 399 68 399 65 399 c 0
 64 399 61 400 57 400 c 0
 39 401 25 416 25 433 c 0
 25 451 41 467 59 467 c 2
 60 467 l 2
 83 466 99 465 117 465 c 0
45 34 m 0
 45 52 60 67 78 67 c 0
 96 67 111 52 111 34 c 0
 111 16 96 0 78 0 c 0
 60 0 45 16 45 34 c 0
EndSplineSet
Validated: 1
EndChar

StartChar: at
Encoding: 64 64 31
Width: 544
GlyphClass: 1
Flags: W
HStem: -233 67<183.137 290.387> -9 67<205.937 257.622> 258 67<298.585 347.504> 400 67<247.03 396.965>
VStem: 25 67<-49.1387 219.351> 137 67<58.957 148.415> 348 68<190.081 255 256 256.913> 453 66<70.181 313.245>
LayerCount: 2
Fore
SplineSet
416 255 m 0
 416 227 403 196 395 175 c 0
 392 167 389 160 388 156 c 1
 398 116 414 75 426 58 c 1
 442 74 453 127 453 190 c 0
 453 299 423 379 378 392 c 0
 355 398 336 400 319 400 c 0
 264 400 210 368 151 302 c 0
 117 265 92 170 92 79 c 0
 92 -54 139 -142 222 -163 c 0
 232 -165 241 -166 248 -166 c 0
 275 -166 297 -142 318 -118 c 0
 339 -94 360 -70 387 -70 c 0
 405 -70 420 -86 420 -104 c 0
 420 -116 413 -127 391 -149 c 0
 334 -212 299 -233 248 -233 c 0
 116 -233 25 -106 25 79 c 0
 25 188 55 294 101 346 c 0
 173 426 246 467 319 467 c 0
 341 467 367 463 396 456 c 0
 466 437 519 314 519 170 c 0
 519 59 481 -12 421 -12 c 0
 390 -12 367 14 344 74 c 1
 306 20 264 -9 224 -9 c 0
 176 -9 137 35 137 89 c 0
 137 191 253 325 341 325 c 0
 385 325 416 296 416 255 c 0
204 89 m 0
 204 72 213 58 224 58 c 0
 247 58 292 108 321 165 c 1
 322 173 327 187 333 201 c 0
 341 220 349 241 349 255 c 1
 348 256 l 1
 348 257 l 2
 346 258 346 258 341 258 c 0
 292 258 204 150 204 89 c 0
EndSplineSet
Validated: 1
EndChar

StartChar: A
Encoding: 65 65 32
Width: 341
GlyphClass: 1
Flags: W
HStem: 0 21G<50 66 273.5 291> 154 66<154.701 224> 447 20G<199 211.5>
VStem: 25 65<3.5332 44.8608>
LayerCount: 2
Fore
SplineSet
25 34 m 0
 25 37 25 39 26 40 c 0
 27 41 28 42 28 45 c 0
 47 97 57 130 74 186 c 0
 113 317 135 375 175 449 c 0
 183 461 193 467 205 467 c 0
 218 467 231 458 236 445 c 0
 271 349 285 285 302 138 c 0
 304 119 311 74 314 50 c 0
 315 41 316 34 316 34 c 0
 316 16 300 0 282 0 c 0
 265 0 251 13 249 29 c 0
 247 42 243 71 233 154 c 1
 215 154 l 2
 214 154 213 154 212 154 c 0
 211 154 210 153 209 153 c 2
 196 153 l 2
 161 152 147 151 132 147 c 1
 124 120 110 78 90 22 c 0
 85 9 73 0 59 0 c 0
 41 0 25 16 25 34 c 0
224 221 m 1
 219 261 212 296 199 344 c 1
 183 310 171 276 154 218 c 1
 165 220 170 220 207 220 c 2
 220 220 l 2
 221 220 221 220 222 220 c 0
 223 220 223 221 224 221 c 1
EndSplineSet
Validated: 1
EndChar

StartChar: B
Encoding: 66 66 33
Width: 313
GlyphClass: 1
Flags: W
HStem: 0 73<95 133.27> 399 68<131 215.302>
VStem: 144 67<86.4524 129.572>
LayerCount: 2
Fore
SplineSet
25 42 m 0
 25 47 36 141 46 235 c 0
 56 329 66 422 66 427 c 0
 69 455 93 467 146 467 c 0
 235 467 288 443 288 402 c 0
 288 351 249 302 142 217 c 0
 141 216 141 215 140 215 c 0
 139 215 138 214 137 213 c 1
 162 188 162 188 195 144 c 0
 208 127 211 119 211 103 c 0
 211 72 195 50 157 28 c 0
 132 12 95 0 72 0 c 0
 44 0 25 17 25 42 c 0
131 399 m 1
 131 393 120 296 118 284 c 1
 143 296 209 366 218 390 c 0
 217 391 217 391 216 391 c 0
 194 397 171 400 146 400 c 2
 142 400 l 2
 141 400 141 400 140 400 c 0
 139 400 139 399 138 399 c 2
 131 399 l 1
103 152 m 1
 103 150 103 150 95 73 c 1
 103 73 136 92 144 101 c 1
 144 103 l 2
 141 112 131 124 103 152 c 1
EndSplineSet
Validated: 1
EndChar

StartChar: C
Encoding: 67 67 34
Width: 336
GlyphClass: 1
Flags: W
HStem: 0 68<96.707 208.841> 30 72<205.487 290.508> 447 20G<272.5 286>
VStem: 25 67<73.7949 154.291>
LayerCount: 2
Fore
SplineSet
92 98 m 1024x30
138 68 m 0xb0
 154 68 177 77 201 85 c 0
 225 93 248 102 264 102 c 0x70
 282 102 298 86 298 68 c 0xb0
 298 52 276 30 260 30 c 1x70
 206 8 173 0 138 0 c 0
 76 0 25 45 25 99 c 0
 25 168 138 345 254 458 c 0
 260 464 268 467 277 467 c 0
 295 467 311 452 311 434 c 0
 311 426 307 417 300 410 c 0
 207 320 92 148 92 99 c 1
 98 77 112 68 138 68 c 0xb0
EndSplineSet
Validated: 1
EndChar

StartChar: D
Encoding: 68 68 35
Width: 308
GlyphClass: 1
Flags: W
HStem: 0 21G<49 60> 400 67<117.983 189.447>
VStem: 216 67<247.545 376.805>
LayerCount: 2
Fore
SplineSet
105 467 m 2
 220 467 283 419 283 333 c 0
 283 207 174 39 69 2 c 0
 67 1 62 0 58 0 c 0
 40 0 25 15 25 34 c 0
 25 141 43 355 59 440 c 0
 62 455 75 466 91 467 c 2
 105 467 l 2
94 95 m 1
 158 149 216 262 216 333 c 0
 216 374 183 397 121 400 c 1
 110 335 102 245 94 95 c 1
EndSplineSet
Validated: 1
EndChar

StartChar: E
Encoding: 69 69 36
Width: 329
GlyphClass: 1
Flags: W
HStem: 0 67<92 248.949> 168 68<104 273.515> 400 66<125.516 300.515>
VStem: 25 67<67 164.01>
LayerCount: 2
Fore
SplineSet
92 67 m 1
 132 69 198 78 230 83 c 0
 241 85 248 86 249 86 c 0
 267 86 283 70 283 52 c 0
 283 36 267 19 252 19 c 0
 219 15 212 14 198 12 c 0
 143 3 111 0 76 0 c 2
 58 0 l 2
 40 0 26 15 26 33 c 2
 26 49 l 2
 26 50 26 51 26 52 c 0
 26 53 25 54 25 55 c 0
 25 147 38 283 61 427 c 1
 61 458 90 466 208 466 c 0
 246 466 250 466 250 466 c 0
 250 466 247 466 271 465 c 0
 290 464 304 450 304 432 c 0
 304 414 288 399 270 399 c 2
 269 399 l 2
 221 400 221 400 208 400 c 2
 184 400 l 2
 180 400 176 400 172 400 c 0
 168 400 165 401 161 401 c 0
 147 401 136 400 125 398 c 1
 115 331 108 281 104 236 c 1
 243 236 l 2
 261 236 277 220 277 202 c 0
 277 184 261 168 243 168 c 2
 97 168 l 1
 93 120 92 90 92 67 c 1
EndSplineSet
Validated: 1
EndChar

StartChar: F
Encoding: 70 70 37
Width: 298
GlyphClass: 1
Flags: W
HStem: 0 21G<53 71> 207 67<93 256.876> 400 67<102.638 269.915>
VStem: 25 67<5.10321 207.881 273 392.873>
LayerCount: 2
Fore
SplineSet
93 273 m 1
 97 273 l 2
 100 273 109 274 118 274 c 0
 127 274 135 275 138 275 c 2
 186 275 l 2
 188 275 191 274 194 274 c 0
 197 274 201 274 203 274 c 2
 226 274 l 2
 244 274 260 259 260 241 c 0
 260 223 246 208 228 207 c 2
 203 207 l 2
 182 207 168 207 152 208 c 2
 138 208 l 2
 106 208 102 208 92 206 c 1
 92 188 l 2
 92 125 93 78 96 38 c 2
 96 34 l 2
 96 16 80 0 62 0 c 0
 44 0 30 14 29 32 c 0
 26 87 25 128 25 188 c 0
 25 272 28 347 36 426 c 0
 37 441 49 454 64 456 c 2
 67 456 l 1
 121 463 165 467 200 467 c 0
 256 467 273 459 273 432 c 0
 273 414 258 398 240 398 c 2
 235 398 l 2
 217 400 212 400 200 400 c 0
 168 400 136 398 101 393 c 1
 101 392 l 0
 97 358 97 358 93 275 c 0
 93 274 93 274 93 273 c 1
EndSplineSet
Validated: 1
EndChar

StartChar: G
Encoding: 71 71 38
Width: 319
GlyphClass: 1
Flags: W
HStem: 0 21G<222 241> 19 67<92 198.484> 135 86<147.371 199.831> 403 64<240.628 290.515>
VStem: 25 67<86.643 227.182> 204 67<6.48975 38 103.194 147.985>
LayerCount: 2
Fore
SplineSet
92 86 m 1x7c
 106 86 116 88 132 92 c 0
 148 96 169 101 203 106 c 0
 203 107 204 107 204 108 c 0
 204 109 204 109 204 110 c 2
 204 124 l 2
 204 127 204 127 202 149 c 1
 155 135 155 135 154 135 c 0
 136 135 120 151 120 169 c 0
 120 184 131 197 146 201 c 0
 153 202 162 206 171 209 c 0
 186 215 204 221 220 221 c 0
 241 221 258 208 262 190 c 0
 268 166 271 144 271 124 c 0
 271 112 270 101 266 40 c 1
 266 34 l 2
 266 16 250 0 232 0 c 0xbc
 212 0 199 14 199 35 c 2
 199 38 l 1
 188 36 176 33 163 30 c 0
 140 25 115 19 91 19 c 0
 42 19 25 40 25 100 c 0
 25 273 100 396 246 464 c 0
 250 466 255 467 260 467 c 0
 278 467 294 451 294 433 c 0
 294 420 286 408 274 403 c 0
 149 344 92 249 92 100 c 2
 92 86 l 1x7c
EndSplineSet
Validated: 1
EndChar

StartChar: H
Encoding: 72 72 39
Width: 299
GlyphClass: 1
Flags: W
HStem: 0 21G<50 68 213 231> 183 68<96.6828 196> 447 20G<56 74 231 249>
VStem: 28 66<4.02832 172.395 238 432.512> 188 67<3.48541 175.506> 207 67<255.041 463.515>
LayerCount: 2
Fore
SplineSet
25 34 m 0xf8
 25 50 26 142 28 234 c 0
 30 326 32 418 32 434 c 0
 32 452 47 467 65 467 c 0
 83 467 99 452 99 434 c 0
 99 403 98 324 96 238 c 1
 106 240 195 251 198 251 c 0
 202 338 204 374 207 435 c 0
 208 453 222 467 240 467 c 0
 258 467 274 451 274 433 c 2
 274 430 l 2xf4
 272 406 255 48 255 32 c 0
 254 14 240 0 222 0 c 0
 204 0 188 16 188 34 c 2
 188 39 l 1
 191 82 193 118 196 183 c 1
 194 183 110 172 94 170 c 1
 94 158 l 2
 92 38 92 38 92 33 c 0
 92 15 77 0 59 0 c 0
 41 0 25 16 25 34 c 0xf8
EndSplineSet
Validated: 1
EndChar

StartChar: I
Encoding: 73 73 40
Width: 449
GlyphClass: 1
Flags: W
HStem: -9 69<97.0462 126.533> 0 65<350.058 420.414> 400 67<241.419 379.707>
VStem: 167 74<181.985 393.741>
LayerCount: 2
Fore
SplineSet
390 0 m 0x70
 379 0 345 14 307 30 c 0
 270 46 229 63 200 71 c 1
 181 28 133 -9 95 -9 c 0xb0
 59 -9 25 27 25 65 c 0
 25 108 82 147 145 147 c 2
 149 147 l 1
 160 215 164 252 167 314 c 0
 168 350 170 368 173 395 c 1
 166 394 136 391 113 388 c 0
 99 386 88 385 88 385 c 0
 70 385 54 401 54 419 c 0
 54 436 67 450 83 452 c 0
 166 463 222 467 292 467 c 2
 319 467 l 2
 321 467 323 466 326 466 c 0
 329 466 332 466 334 466 c 2
 350 466 l 2
 368 466 383 451 383 433 c 0
 383 415 368 399 350 399 c 2
 349 399 l 2
 346 399 344 400 342 400 c 0
 340 400 337 400 334 400 c 2
 292 400 l 2
 255 400 250 400 241 399 c 1
 241 394 l 1
 232 271 223 182 215 137 c 1
 254 126 287 111 320 97 c 0
 346 86 371 75 401 65 c 0
 415 59 424 48 424 34 c 0
 424 16 408 0 390 0 c 0x70
94 62 m 1
 97 59 l 1
 98 60 98 60 99 60 c 0
 110 64 117 69 127 79 c 1
 114 77 103 71 94 62 c 1
EndSplineSet
Validated: 1
EndChar

StartChar: J
Encoding: 74 74 41
Width: 287
GlyphClass: 1
Flags: W
HStem: 0 67<77.7772 151.655> 447 20G<219 237>
VStem: 190 66<146.488 461.247>
LayerCount: 2
Fore
SplineSet
59 90 m 0
 69 90 86 84 102 78 c 0
 118 72 135 67 145 67 c 1
 175 143 184 192 189 316 c 0
 189 318 190 320 190 322 c 0
 190 324 190 326 190 328 c 2
 190 341 l 2
 191 376 191 380 195 436 c 0
 196 453 210 467 228 467 c 0
 246 467 262 451 262 433 c 2
 262 432 l 2
 261 422 261 422 257 338 c 0
 257 336 256 335 256 333 c 0
 256 331 256 330 256 328 c 2
 256 318 l 1
 251 179 241 122 205 38 c 0
 195 14 174 0 146 0 c 0
 128 0 95 8 50 24 c 0
 36 28 25 42 25 57 c 0
 25 75 41 90 59 90 c 0
EndSplineSet
Validated: 1
EndChar

StartChar: K
Encoding: 75 75 42
Width: 350
GlyphClass: 1
Flags: W
HStem: 0 21G<50 68> 447 20G<71 89>
VStem: 47 67<290.058 463.515> 261 64<408.696 459.515>
LayerCount: 2
Fore
SplineSet
325 429 m 0
 325 381 228 277 130 219 c 1
 143 206 163 190 186 172 c 0
 224 142 271 106 311 61 c 0
 316 55 319 47 319 39 c 0
 319 21 304 6 286 6 c 0
 276 6 267 10 261 17 c 0
 224 59 124 138 103 154 c 0
 101 156 99 157 99 157 c 1
 92 32 l 2
 91 14 77 0 59 0 c 0
 41 0 25 16 25 34 c 0
 26 37 39 263 47 435 c 0
 48 453 62 467 80 467 c 0
 98 467 114 451 114 433 c 0
 114 432 114 436 106 283 c 1
 182 328 232 380 261 443 c 0
 266 455 277 463 291 463 c 0
 309 463 325 447 325 429 c 0
EndSplineSet
Validated: 1
EndChar

StartChar: L
Encoding: 76 76 43
Width: 283
GlyphClass: 1
Flags: W
HStem: 0 67<96.5902 253.579> 447 20G<88.5 106>
VStem: 64 67<283.444 463.371>
LayerCount: 2
Fore
SplineSet
131 433 m 0
 131 432 129 421 127 403 c 0
 119 341 102 193 94 68 c 1
 100 67 103 67 133 67 c 0
 136 67 136 67 212 69 c 2
 225 69 l 2
 243 69 258 54 258 36 c 0
 258 18 244 3 226 2 c 0
 154 0 154 0 133 0 c 0
 54 0 25 12 25 46 c 2
 25 48 l 1
 32 172 41 265 64 438 c 0
 66 455 80 467 97 467 c 0
 115 467 131 451 131 433 c 0
EndSplineSet
Validated: 1
EndChar

StartChar: M
Encoding: 77 77 44
Width: 462
GlyphClass: 1
Flags: W
HStem: 0 21G<50 65.5 386 403.5> 447 20G<192.5 214.5 380.5 407.5>
VStem: 25 64<3.51229 45.6762> 128 113<263.297 395.892> 361 67<3.53394 230.081> 370 67<16.1525 241.845>
LayerCount: 2
Fore
SplineSet
28 46 m 2xf4
 28 47 l 1
 29 47 29 47 29 48 c 0
 75 139 105 247 128 329 c 0
 145 389 157 436 170 453 c 0
 177 462 187 467 198 467 c 0
 231 467 238 449 241 353 c 0
 244 253 250 209 262 186 c 1
 294 206 314 293 330 362 c 0
 339 404 347 439 356 450 c 0
 364 461 374 467 387 467 c 0
 428 467 437 424 437 233 c 0xf4
 437 171 434 92 428 30 c 0
 426 13 412 0 395 0 c 0
 377 0 361 16 361 34 c 2
 361 38 l 1xf8
 367 96 370 163 370 233 c 2
 370 246 l 1
 340 158 305 117 259 117 c 0
 213 117 188 160 179 255 c 1
 149 155 120 79 89 18 c 0
 84 7 72 0 59 0 c 0
 41 0 25 16 25 34 c 0
 25 38 25 39 28 46 c 2xf4
EndSplineSet
Validated: 1
EndChar

StartChar: N
Encoding: 78 78 45
Width: 380
GlyphClass: 1
Flags: W
HStem: 0 21G<50 66.834 241.036 279.985> 447 20G<109.299 140.742 313 331>
VStem: 289 66<219.597 464.05>
LayerCount: 2
Fore
SplineSet
26 36 m 1
 26 40 l 1
 55.0796079484 190.529735262 65.2269729903 402.526313569 76 437 c 0
 81.8793081121 454.637924336 99.5982832302 467 119 467 c 0
 162.483132851 467 181.534296054 425.808295777 230 227 c 0
 230.775255129 226.224744871 231 225.101020514 231 222 c 0
 249.363310476 145.792261524 254.36880455 126.103984832 261 104 c 1
 276.148832436 169.644940554 289 321.105129706 289 434 c 0
 289 452 304 467 322 467 c 0
 340 467 355 452 355 434 c 0
 355 341.121279716 347.259659246 223.794009333 336 146 c 0
 319.986998298 40.9146763279 298.969185115 0 261 0 c 0
 221.072468193 0 207.100146844 33.5848458101 152 262 c 0
 138.875186817 315.43673939 135.376761703 328.794362549 130 346 c 1
 113.961048548 162.554492766 106.963720508 103.813765276 92 27 c 0
 88.934507657 11.6725382848 74.6680719755 0 59 0 c 0
 41 0 25 16 25 34 c 0
 25 34.5857864376 25.4142135624 35.4142135624 26 36 c 1
EndSplineSet
Validated: 1
EndChar

StartChar: O
Encoding: 79 79 46
Width: 473
GlyphClass: 1
Flags: W
HStem: 0 68<126.86 276.423> 400 67<191.809 353.922>
VStem: 25 67<98.5669 293.421> 381 67<219.063 375.615>
LayerCount: 2
Fore
SplineSet
283 400 m 2
 158 399 92 322 92 179 c 0
 92 166 93 156 96 123 c 0
 100 94 151 68 204 68 c 0
 248 68 285 85 307 115 c 0
 353 182 381 258 381 315 c 0
 381 374 352 400 285 400 c 2
 283 400 l 2
25 179 m 0
 25 360 120 466 282 467 c 2
 285 467 l 2
 388 467 448 411 448 315 c 0
 448 244 413 148 362 76 c 0
 328 28 270 0 203 0 c 0
 112 0 37 50 29 116 c 0
 26 155 25 165 25 179 c 0
EndSplineSet
Validated: 1
EndChar

StartChar: P
Encoding: 80 80 47
Width: 324
GlyphClass: 1
Flags: W
HStem: 0 21G<50 68> 220 67<120 201.125> 400 67<137.564 228.969>
VStem: 25 86<25.7624 219.109> 232 67<320.511 392.926>
LayerCount: 2
Fore
SplineSet
184 467 m 0
 248 467 299 426 299 374 c 0
 299 343 277 288 255 263 c 0
 227 234 189 220 141 220 c 0
 120 220 117 220 111 221 c 1
 105 175 98 105 92 31 c 0
 91 14 77 0 59 0 c 0
 41 0 25 16 25 34 c 0
 25 87 66 389 77 420 c 0
 86 444 139 467 184 467 c 0
120 287 m 1
 141 287 l 2
 194 287 218 309 232 371 c 1
 232 374 l 2
 232 387 208 400 184 400 c 2
 182 400 l 1
 181 399 181 399 180 399 c 0
 163 396 149 392 137 387 c 1
 133 370 127 330 120 287 c 1
EndSplineSet
Validated: 1
EndChar

StartChar: Q
Encoding: 81 81 48
Width: 373
GlyphClass: 1
Flags: W
HStem: 0 21G<310 324> 36 67<93.0174 158.193> 400 67<199.85 240.14>
VStem: 25 68<106.274 122 122 228.639> 241 67<250.152 398.596>
LayerCount: 2
Fore
SplineSet
25 120 m 0
 25 285 137 467 238 467 c 0
 284 467 308 433 308 366 c 0
 308 302 288 220 256 150 c 1
 348 46 348 46 348 33 c 0
 348 15 333 0 315 0 c 0
 305 0 296 4 290 11 c 0
 284 18 248 58 230 78 c 0
 224 85 220 90 220 90 c 1
 191 55 157 36 122 36 c 0
 73 36 25 78 25 120 c 0
169 232 m 0
 183 232 190 227 207 206 c 1
 227 260 241 324 241 366 c 0
 241 377 239 391 237 400 c 1
 175 398 103 260 92 122 c 1
 93 122 93 122 93 121 c 0
 101 109 111 103 122 103 c 0
 138 103 157 117 175 142 c 1
 140 181 136 187 136 198 c 0
 136 216 151 232 169 232 c 0
EndSplineSet
Validated: 1
EndChar

StartChar: R
Encoding: 82 82 49
Width: 340
GlyphClass: 1
Flags: W
HStem: 0 21G<50 68 236.5 251> 400 67<119.021 218.907>
VStem: 30 67<5.81264 146 196 374.306> 248 67<284.398 373.502>
LayerCount: 2
Fore
SplineSet
98 196 m 1
 105 203 119 211 137 220 c 0
 183 244 248 278 248 336 c 0
 248 374 203 400 136 400 c 0
 124 400 124 400 121 399 c 0
 104 328 99 283 98 196 c 1
315 336 m 0
 315 269 268 212 172 162 c 1
 187 145 191 141 207 125 c 0
 263 67 275 51 275 33 c 0
 275 15 260 0 242 0 c 0
 231 0 220 5 214 15 c 0
 188 53 158 83 133 108 c 0
 119 122 107 134 97 146 c 1
 97 136 93 41 92 32 c 0
 91 14 77 0 59 0 c 0
 41 0 25 16 25 34 c 2
 25 35 l 2
 28 57 29 94 30 153 c 2
 30 160 l 2
 31 278 37 330 58 423 c 0
 64 451 93 467 136 467 c 0
 238 467 315 411 315 336 c 0
EndSplineSet
Validated: 1
EndChar

StartChar: S
Encoding: 83 83 50
Width: 371
GlyphClass: 1
Flags: W
HStem: 0 66<109.651 198.497> 394 73<246.328 341.312>
VStem: 101 67<262.54 341.995> 223 67<91.6414 162.958>
LayerCount: 2
Fore
SplineSet
168 308 m 2
 168 273 199 248 229 224 c 0
 259 200 290 176 290 141 c 0
 290 70 227 0 162 0 c 0
 125 0 86 14 41 42 c 0
 31 49 25 59 25 70 c 0
 25 88 41 104 59 104 c 0
 76 104 93 95 110 85 c 0
 127 75 145 66 162 66 c 0
 191 66 209 88 223 141 c 0
 223 146 210 159 184 180 c 0
 123 229 101 263 101 308 c 0
 101 378 158 423 302 466 c 0
 304 467 304 467 312 467 c 0
 330 467 346 451 346 433 c 0
 346 411 341 407 298 394 c 0
 251 381 229 373 210 361 c 0
 185 345 170 329 168 315 c 2
 168 308 l 2
EndSplineSet
Validated: 1
EndChar

StartChar: T
Encoding: 84 84 51
Width: 397
GlyphClass: 1
Flags: W
HStem: 0 21G<143.5 162> 400 67<221 366.451>
VStem: 117 70<3.07007 161.572> 150 71<182.992 397>
LayerCount: 2
Fore
SplineSet
117 27 m 0xe0
 117 29 118 31 119 33 c 0
 120 35 121 37 121 39 c 0
 136 136 145 238 150 373 c 2
 150 378 l 2
 150 384 151 386 152 388 c 0
 153 390 154 391 154 397 c 1
 64 387 64 387 58 387 c 0
 40 387 25 402 25 420 c 0
 25 437 37 451 54 453 c 0
 136 463 183 467 235 467 c 0
 279 467 311 466 341 463 c 0
 358 462 372 447 372 429 c 0
 372 411 356 396 338 396 c 2
 336 396 l 2
 307 399 276 400 235 400 c 2
 221 400 l 1xd0
 221 314 205 135 187 28 c 0
 184 11 170 0 154 0 c 0
 133 0 117 11 117 27 c 0xe0
EndSplineSet
Validated: 1
EndChar

StartChar: U
Encoding: 85 85 52
Width: 314
GlyphClass: 1
Flags: W
HStem: 0 65<105.649 148.289> 447 20G<66.5 84 247 265>
VStem: 25 67<73.8008 412.178> 223 66<239.17 464.05>
LayerCount: 2
Fore
SplineSet
109 433 m 0
 109 413 104 363 100 314 c 0
 96 265 92 216 92 196 c 0
 92 131 98 92 111 73 c 0
 114 69 118 65 120 65 c 0
 172 65 220 237 223 434 c 0
 223 452 238 467 256 467 c 0
 274 467 289 452 289 434 c 0
 289 179 220 0 121 0 c 0
 56 0 25 63 25 196 c 0
 25 248 32 347 42 437 c 0
 44 454 58 467 75 467 c 0
 93 467 109 451 109 433 c 0
EndSplineSet
Validated: 1
EndChar

StartChar: V
Encoding: 86 86 53
Width: 389
GlyphClass: 1
Flags: W
HStem: 0 21G<182.5 204.5> 447 20G<50 65.5 323 339>
VStem: 25 65<393.03 463.515> 298 66<423 463.457>
LayerCount: 2
Fore
SplineSet
363 424 m 0
 363 423 363 423 362 423 c 1
 362 422 l 1
 351 393 324 306 311 263 c 0
 307 249 304 239 304 239 c 0
 234 25 222 0 187 0 c 0
 178 0 168 4 161 11 c 0
 141 33 106 155 76 263 c 0
 57 332 39 395 28 421 c 0
 26 425 25 429 25 433 c 0
 25 451 41 467 59 467 c 0
 72 467 85 459 90 446 c 0
 108 403 113 380 123 342 c 0
 134 300 150 239 191 114 c 1
 203 145 224 212 245 281 c 0
 265 344 285 408 298 445 c 0
 303 459 316 467 330 467 c 0
 348 467 364 451 364 433 c 0
 364 428 364 428 363 424 c 0
EndSplineSet
Validated: 1
EndChar

StartChar: W
Encoding: 87 87 54
Width: 611
GlyphClass: 1
Flags: W
HStem: 0 21G<146.5 185 400.5 439> 447 20G<50 67 544.5 561>
VStem: 520 66<369.25 463.404>
LayerCount: 2
Fore
SplineSet
26 426 m 2
 26 432 l 1
 25 432 25 432 25 433 c 0
 25 451 41 467 59 467 c 0
 75 467 89 455 92 440 c 0
 134 229 157 132 176 83 c 1
 196 121 211 183 226 241 c 0
 241 301 255 359 273 382 c 0
 283 396 296 404 312 404 c 0
 358 404 376 362 400 196 c 0
 409 129 413 106 419 86 c 1
 439 126 454 180 500 365 c 0
 512 415 517 434 520 443 c 0
 524 457 537 467 552 467 c 0
 570 467 586 451 586 433 c 0
 586 432 586 432 556 315 c 2
 552 299 l 2
 486 48 464 0 414 0 c 0
 387 0 369 20 356 63 c 1
 356 64 l 1
 346 103 339 150 333 193 c 0
 327 236 322 276 313 306 c 1
 307 288 300 261 293 232 c 0
 280 180 265 119 245 72 c 0
 225 24 200 0 170 0 c 0
 123 0 100 61 46 331 c 0
 40 362 29 414 26 426 c 2
EndSplineSet
Validated: 1
EndChar

StartChar: X
Encoding: 88 88 55
Width: 427
GlyphClass: 1
Flags: W
HStem: 0 21G<49 62.5 308 322> 447 20G<108 124 364.5 378>
VStem: 83 65<412.141 463.515>
LayerCount: 2
Fore
SplineSet
25 33 m 0
 25 45 28 49 46 70 c 0
 65 92 101 133 167 225 c 1
 131 311 111 359 100 386 c 0
 97.1565341144 393.582575695 88.9228694004 411.945549047 88.9228694004 412.138210028 c 0
 88.9228694004 412.139227148 88.9230988834 412.139737838 88.923559854 412.139737838 c 0
 88.927905678 412.139737838 88.9528258251 412.09434835 89 412 c 1
 88 415 87 418 86 420 c 2
 84 424 83 428 83 433 c 0
 83 451 99 467 117 467 c 0
 131 467 143 459 148 447 c 0
 152 439 152 439 203 314 c 2
 213 289 l 1
 260 352 300 403 344 455 c 0
 351 463 360 467 369 467 c 0
 387 467 402 452 402 434 c 0
 402 424 400 417 395 412 c 0
 340 347 287 276 261 240 c 0
 251 227 245 218 244 217 c 1
 287 126 314 88 330 66 c 0
 341 51 346 44 346 33 c 0
 346 15 331 0 313 0 c 0
 303 0 293 5 286 14 c 0
 252 60 227 100 199 156 c 1
 170 117 141 81 83 12 c 0
 76 4 67 0 58 0 c 0
 40 0 25 15 25 33 c 0
EndSplineSet
Validated: 1
EndChar

StartChar: Y
Encoding: 89 89 56
Width: 313
GlyphClass: 1
Flags: W
HStem: 0 21G<138 156> 447 20G<50 65.5 248.5 263>
VStem: 25 65<391.477 463.515> 114 66<3.2926 248.014>
LayerCount: 2
Fore
SplineSet
186 181 m 0
 186 153 185 135 183 116 c 0
 181 97 180 79 180 51 c 2
 180 34 l 2
 180 16 165 0 147 0 c 0
 129 0 114 15 114 33 c 2
 114 46 l 2
 114 47 114 47 114 48 c 0
 114 49 113 50 113 51 c 0
 113 66 114 92 116 118 c 0
 118 144 119 171 119 186 c 0
 119 216 119 220 117 232 c 1
 91 249 71 289 46 373 c 1
 45 373 45 373 45 374 c 0
 44 377 42 382 40 389 c 0
 34 406 25 430 25 433 c 0
 25 451 41 467 59 467 c 0
 72 467 85 459 90 446 c 0
 97 428 101 415 114 379 c 0
 128 337 138 312 149 294 c 1
 158 308 167 330 177 353 c 0
 191 386 206 423 227 453 c 0
 233 462 243 467 254 467 c 0
 272 467 288 452 288 434 c 0
 288 422 287 421 283 416 c 0
 277 409 266 393 239 328 c 0
 214 268 202 247 184 233 c 1
 186 221 186 216 186 181 c 0
EndSplineSet
Validated: 1
EndChar

StartChar: Z
Encoding: 90 90 57
Width: 378
GlyphClass: 1
Flags: W
HStem: 0 67<97.2188 289.906> 393 67<50.2926 204.682> 400 67<54.1391 282.072>
LayerCount: 2
Fore
SplineSet
352 404 m 1xa0
 352 399 l 1
 344 333 309 282 201 180 c 0
 153 137 104 85 96 69 c 1
 116 67 117 67 126 67 c 0
 182 67 261 77 303 90 c 0
 305 91 305 91 312 91 c 0
 330 91 345 75 345 57 c 0
 345 42 335 29 321 25 c 0
 270 10 190 0 126 0 c 0
 52 0 25 15 25 57 c 0
 25 108 83 162 145 219 c 0
 205 274 267 332 283 393 c 1xc0
 263 397 235 400 206 400 c 0xa0
 178 400 143 398 83 393 c 1
 80 393 l 2
 62 393 47 409 47 427 c 0
 47 444 60 458 77 460 c 0xc0
 157 466 178 467 206 467 c 0
 308 467 353 448 353 405 c 0
 353 404 353 404 352 404 c 1xa0
EndSplineSet
Validated: 1
EndChar

StartChar: bracketleft
Encoding: 91 91 58
Width: 299
GlyphClass: 1
Flags: W
HStem: -233 69<93 194.386> 392 67<112.893 270.707> 400 67<103 240.29>
VStem: 25 68<-164 109.782> 30 68<-98.879 400>
LayerCount: 2
Fore
SplineSet
25 -190 m 0xb0
 25 -65 27 24 30 114 c 0
 33 204 36 294 36 419 c 0
 36 451 61 467 112 467 c 0xa8
 131 467 153 465 176 463 c 0
 199 461 222 459 241 459 c 0
 259 459 274 444 274 426 c 0
 274 408 259 392 241 392 c 0xc8
 226 392 201 394 176 396 c 0
 151 398 127 400 112 400 c 2
 103 400 l 1
 103 399 100 259 98 118 c 0xa8
 96 -23 93 -163 93 -164 c 1
 106 -164 125 -161 144 -159 c 0
 163 -157 182 -154 195 -154 c 0
 213 -154 229 -170 229 -188 c 0
 229 -204 218 -218 205 -220 c 0
 150 -230 116 -233 77 -233 c 0
 45 -233 25 -216 25 -190 c 0xb0
EndSplineSet
Validated: 1
EndChar

StartChar: backslash
Encoding: 92 92 59
Width: 266
GlyphClass: 1
Flags: W
HStem: 447 20G<50 66>
VStem: 25 66<372.234 463.358> 175 66<-130.358 -36.8246>
LayerCount: 2
Fore
SplineSet
175 -109 m 0
 175 -107 138 28 100 162 c 0
 62 296 25 431 25 433 c 0
 25 451 41 467 59 467 c 0
 73 467 87 457 91 442 c 0
 110 368 155 208 191 81 c 0
 219 -18 241 -98 241 -100 c 0
 241 -118 225 -134 207 -134 c 0
 193 -134 179 -124 175 -109 c 0
EndSplineSet
Validated: 1
EndChar

StartChar: bracketright
Encoding: 93 93 60
Width: 314
GlyphClass: 1
Flags: W
HStem: -233 73<31.2612 191.953> 391 67<68.2926 217.108> 447 20G<223.5 250>
VStem: 221 68<211.004 400>
LayerCount: 2
Fore
SplineSet
98 458 m 0xd0
 115 458 140 460 165 462 c 0
 190 464 215 467 232 467 c 0xb0
 268 467 289 452 289 428 c 0
 289 253 269 -112 255 -196 c 0
 250 -222 228 -233 180 -233 c 0
 169 -233 121 -231 57 -227 c 0
 39 -226 25 -212 25 -194 c 0
 25 -176 40 -160 58 -160 c 0
 79 -160 99 -161 119 -163 c 0
 139 -165 159 -166 180 -166 c 0
 183 -166 183 -166 185 -167 c 0
 190 -168 191 -168 192 -166 c 0
 206 -73 211 25 221 400 c 1
 137 393 116 391 99 391 c 2
 98 391 l 2
 80 391 65 407 65 425 c 0
 65 443 80 458 98 458 c 0xd0
EndSplineSet
Validated: 1
EndChar

StartChar: asciicircum
Encoding: 94 94 61
Width: 225
GlyphClass: 1
Flags: W
HStem: 300 167<135.28 166.842>
VStem: 25 71<313 357.701> 132 68<303.864 334>
LayerCount: 2
Fore
SplineSet
166 300 m 0
 149 300 132 316 132 332 c 0
 129 346 127 355 123 369 c 1
 107 345 101 334 96 321 c 0
 93 313 93 313 85 313 c 1
 80 305 69 300 58 300 c 0
 40 300 25 315 25 333 c 0
 25 341 27 348 31 354 c 0
 42 367 52 384 63 400 c 0
 78 423 93 446 106 456 c 0
 114 464 122 467 134 467 c 0
 161 467 172 451 186 391 c 0
 190 370 196 347 199 338 c 0
 200 336 200 334 200 334 c 0
 200 316 184 300 166 300 c 0
EndSplineSet
Validated: 1
EndChar

StartChar: underscore
Encoding: 95 95 62
Width: 322
GlyphClass: 1
Flags: W
HStem: -185 66<28.4854 293.515>
VStem: 25 272<-180.51 -123.49>
LayerCount: 2
Fore
SplineSet
262 -187 m 2
 252 -186 213 -185 185 -185 c 2
 161 -185 l 2
 93 -185 82 -185 59 -184 c 0
 41 -184 25 -169 25 -151 c 0
 25 -133 41 -117 59 -117 c 2
 60 -117 l 2
 70 -118 109 -119 137 -119 c 2
 161 -119 l 2
 229 -119 240 -119 263 -120 c 0
 281 -120 297 -135 297 -153 c 0
 297 -171 281 -187 263 -187 c 2
 262 -187 l 2
EndSplineSet
Validated: 1
EndChar

StartChar: grave
Encoding: 96 96 63
Width: 165
GlyphClass: 1
Flags: W
HStem: 300 167<75.5721 89.4279>
VStem: 25 115
LayerCount: 2
Fore
SplineSet
106 300 m 0
 93 300 81 308 76 319 c 0
 75 320 29 418 29 419 c 0
 26 423 25 427 25 433 c 0
 25 451 41 467 59 467 c 0
 72 467 84 459 89 448 c 0
 90 447 136 349 136 348 c 0
 139 344 140 340 140 334 c 0
 140 316 124 300 106 300 c 0
EndSplineSet
Validated: 1
EndChar

StartChar: a
Encoding: 97 97 64
Width: 319
GlyphClass: 1
Flags: W
HStem: 0 67<92 131.624> 233 67<150.186 208.02>
VStem: 25 67<67.3858 165.377> 205 67<135.821 232.199> 214 80<12.4458 67.1732>
LayerCount: 2
Fore
SplineSet
272 151 m 0xf0
 272 115 277 103 283 92 c 0
 289 81 294 70 294 34 c 0
 294 16 278 0 260 0 c 0
 236 0 227 13 214 68 c 1xe8
 170 25 125 0 92 0 c 0
 51 0 25 32 25 81 c 0
 25 132 48 203 76 239 c 0
 107 278 152 300 201 300 c 0
 252 300 280 285 280 258 c 0
 280 241 278 222 276 204 c 0
 274 186 272 168 272 151 c 0xf0
93 67 m 0
 114 67 175 118 205 160 c 1xf0
 205 194 206 216 209 233 c 1
 201 233 l 2
 142 233 92 163 92 81 c 0
 92 69 92 69 93 67 c 0
EndSplineSet
Validated: 1
EndChar

StartChar: b
Encoding: 98 98 65
Width: 289
GlyphClass: 1
Flags: W
HStem: 0 21G<59 109> 233 67<139.228 195.807> 447 20G<60 78>
VStem: 36 67<274.43 463.56> 197 67<141.811 231.958>
LayerCount: 2
Fore
SplineSet
197 205 m 0
 197 224 192 233 181 233 c 0
 133 233 99 169 93 67 c 1
 107 68 112 72 147 108 c 2
 167 128 l 2
 185 147 197 178 197 205 c 0
59 2 m 2
 39 2 25 17 25 38 c 2
 25 74 l 2
 25 152 30 326 36 435 c 0
 37 453 51 467 69 467 c 0
 87 467 103 452 103 434 c 2
 103 424 l 1
 96 277 96 277 96 271 c 1
 115 288 150 300 181 300 c 0
 233 300 264 264 264 205 c 0
 264 150 245 110 196 61 c 0
 152 14 128 0 90 0 c 2
 59 2 l 2
EndSplineSet
Validated: 1
EndChar

StartChar: c
Encoding: 99 99 66
Width: 273
GlyphClass: 1
Flags: W
HStem: 0 67<94.416 243.617> 235 65<175.35 237.404>
VStem: 26 66<68.6865 80 81 152.255>
LayerCount: 2
Fore
SplineSet
26 68 m 2
 26 78 l 2
 26 80 l 0
 25 81 l 0
 25 180 124 300 207 300 c 0
 225 300 241 284 241 266 c 0
 241 251 231 239 217 235 c 0
 139 210 92 153 92 81 c 2
 92 79 l 2
 92 70 108 67 152 67 c 2
 180 67 l 2
 194 67 196 67 197 68 c 0
 198 69 200 70 214 70 c 0
 232 70 248 55 248 37 c 0
 248 11 228 0 180 0 c 0
 81 0 28 23 26 68 c 2
EndSplineSet
Validated: 1
EndChar

StartChar: d
Encoding: 100 100 67
Width: 312
GlyphClass: 1
Flags: W
HStem: 0 67<92.6488 169> 233 67<122.143 204.811> 447 20G<244.5 262.5>
VStem: 25 67<67.6454 197.728> 207 73<93.4953 213.952 286 430> 220 67<289.252 463.685>
LayerCount: 2
Fore
SplineSet
278 207 m 0xf4
 278 199 279 159 280 120 c 0
 281 81 283 42 283 34 c 0
 283 16 267 0 249 0 c 0
 231 0 216 15 215 33 c 1
 182 14 136 0 109 0 c 0
 57 0 25 38 25 101 c 0
 25 216 77 300 149 300 c 0
 165 300 182 296 207 286 c 1xf8
 209 327 214 386 220 437 c 0
 222 454 236 467 253 467 c 0
 272 467 287 452 287 433 c 2
 287 427 l 1
 281 346 278 269 278 207 c 0xf4
109 67 m 0
 115 67 127 72 138 76 c 0
 149 80 160 84 166 84 c 1
 199 96 207 106 207 133 c 2
 207 135 l 2
 205 169 205 182 205 204 c 0
 205 205 205 205 206 206 c 1
 206 207 l 2
 207 211 207 213 205 214 c 0
 179 227 161 233 149 233 c 0
 119 233 92 170 92 101 c 0
 92 75 96 67 109 67 c 0
EndSplineSet
Validated: 1
EndChar

StartChar: e
Encoding: 101 101 68
Width: 284
GlyphClass: 1
Flags: W
HStem: 0 67<99.5701 188.892> 280 20G<154 176>
VStem: 161 69<167.775 230.628>
LayerCount: 2
Fore
SplineSet
127 67 m 0
 145 67 161 74 176 81 c 0
 191 88 207 95 225 95 c 0
 243 95 259 79 259 61 c 0
 259 48 252 37 241 31 c 0
 201 10 166 0 127 0 c 0
 66 0 25 43 25 107 c 0
 25 122 27 136 30 152 c 0
 51 241 81 281 139 298 c 0
 153 300 153 300 155 300 c 0
 197 300 230 258 230 204 c 0
 230 144 167 83 99 76 c 1
 103 69 109 67 127 67 c 0
161 194 m 2
 163 202 163 202 163 204 c 0
 163 212 159 222 152 232 c 1
 125 222 111 200 97 144 c 1
 125 149 145 164 161 192 c 1
 161 194 l 2
EndSplineSet
Validated: 1
EndChar

StartChar: f
Encoding: 102 102 69
Width: 354
GlyphClass: 1
Flags: W
HStem: 0 21G<124 142> 221 67<28.4854 105.812 181 316.895> 227 73<183.197 322.51> 400 67<208.879 261.751>
VStem: 102 68<4.96018 32 130 223.123> 112 69<294 365.766>
LayerCount: 2
Fore
SplineSet
173 227 m 1xb4
 173 219 172 175 170 130 c 0
 168 85 166 40 166 32 c 0
 165 14 151 0 133 0 c 0
 115 0 99 16 99 34 c 0
 100 39 101 60 102 98 c 2
 102 113 l 2
 102 116 102 118 102 120 c 0
 102 122 103 125 103 128 c 0
 105 205 105 205 106 224 c 1
 102 223 97 223 89 223 c 0
 82 223 73 222 59 221 c 0
 41 221 25 236 25 254 c 0
 25 272 40 287 57 288 c 0xd8
 74 289 85 290 94 290 c 0
 100 290 106 291 112 291 c 1
 124 382 152 437 196 456 c 0
 214 464 227 467 241 467 c 0
 274 467 309 435 309 406 c 0
 309 388 294 372 276 372 c 0
 269 372 263 379 258 386 c 0
 253 393 248 400 241 400 c 0
 212 400 192 365 181 294 c 1
 228 296 266 298 293 300 c 2
 295 300 l 2
 313 300 329 284 329 266 c 0
 329 248 315 234 297 233 c 0
 260 230 195 227 173 227 c 1xb4
EndSplineSet
Validated: 1
EndChar

StartChar: g
Encoding: 103 103 70
Width: 352
GlyphClass: 1
Flags: W
HStem: -233 67<114.071 166.656> 0 66<161.799 215.953> 280 20G<232 288>
LayerCount: 2
Fore
SplineSet
161 80 m 1
 178 72 198 66 211 66 c 0
 214 66 215 66 216 67 c 2
 217 67 l 1
 235 83 243 115 257 227 c 1
 208 205 165 140 161 80 c 1
59 -113 m 0
 71 -113 88 -127 105 -140 c 0
 122 -153 139 -166 151 -166 c 2
 152 -166 l 2
 164 -166 195 -85 216 0 c 1
 211 0 l 2
 150 0 93 33 93 69 c 0
 93 180 188 300 276 300 c 0
 300 300 327 278 327 258 c 0
 327 145 257 -137 214 -197 c 0
 199 -220 175 -233 151 -233 c 0
 121 -233 95 -219 38 -173 c 0
 30 -167 25 -157 25 -146 c 0
 25 -128 41 -113 59 -113 c 0
EndSplineSet
Validated: 1
EndChar

StartChar: h
Encoding: 104 104 71
Width: 334
GlyphClass: 1
Flags: W
HStem: 0 21G<49.5 66 258 276> 231 69<166.521 231.104> 447 20G<98 116>
VStem: 25 65<3.2926 76.5925> 71 67<279 462.717> 234 66<3.12434 158.336> 242 67<21.6906 230.425>
LayerCount: 2
Fore
SplineSet
234 34 m 0xe4
 234 48 236 72 238 96 c 0
 240 120 242 145 242 159 c 0
 242 191 236 213 222 231 c 1
 221 231 l 2
 217 233 215 233 212 233 c 0
 196 232 177 226 166 218 c 1
 153 199 138 166 123 124 c 0
 116 95 105 61 90 21 c 0
 85 9 73 0 59 0 c 0
 40 0 25 15 25 33 c 0xf2
 25 40 33 65 42 91 c 0
 49 111 56 131 59 145 c 0
 68 193 71 230 71 310 c 0
 71 359 72 390 74 436 c 0
 75 454 89 467 107 467 c 0
 125 467 141 451 141 433 c 2
 141 432 l 2
 139 407 138 365 138 309 c 2
 138 279 l 1
 163 293 188 300 212 300 c 0
 273 300 309 247 309 159 c 0xea
 309 149 303 64 300 36 c 2
 300 32 l 2
 299 14 285 0 267 0 c 0
 249 0 234 16 234 34 c 0xe4
EndSplineSet
Validated: 1
EndChar

StartChar: i
Encoding: 105 105 72
Width: 137
GlyphClass: 1
Flags: W
HStem: 0 21G<50 68> 280 20G<63 81> 400 67<49.2926 108.707>
VStem: 25 67<3.48541 245.578> 39 67<54.4216 296.515> 46 66<403.124 464.05>
LayerCount: 2
Fore
SplineSet
72 300 m 0xe8
 90 300 106 284 106 266 c 0xe8
 100 177 96 113 92 32 c 0
 91 14 77 0 59 0 c 0
 41 0 25 16 25 34 c 0xf0
 31 123 35 187 39 268 c 0
 40 286 54 300 72 300 c 0xe8
46 434 m 0xe4
 46 452 61 467 79 467 c 0
 97 467 112 452 112 434 c 0
 112 416 97 400 79 400 c 0
 61 400 46 416 46 434 c 0xe4
EndSplineSet
Validated: 1
EndChar

StartChar: j
Encoding: 106 106 73
Width: 273
GlyphClass: 1
Flags: W
HStem: -90 67<77.6047 145.037> 263 37<206 240> 400 67<183.485 244.515>
VStem: 164 63<-6.44557 263> 180 68<403.485 463.707>
LayerCount: 2
Fore
SplineSet
240 266 m 2xf0
 240 263 l 1
 239 263 239 263 239 262 c 0
 232 208 229 171 227 114 c 0
 225 46 220 15 197 -56 c 0
 190 -78 169 -90 138 -90 c 0
 113 -90 82 -81 44 -63 c 0
 33 -58 25 -46 25 -33 c 0
 25 -15 41 0 59 0 c 0
 71 0 84 -6 98 -12 c 0
 112 -18 126 -23 138 -23 c 2
 139 -23 l 1
 159 35 164 62 164 115 c 2
 164 129 l 2
 164 178 167 218 173 271 c 0
 175 287 189 300 206 300 c 0
 224 300 240 284 240 266 c 2xf0
180 434 m 0xe8
 180 452 196 467 214 467 c 0
 232 467 248 452 248 434 c 0
 248 416 232 400 214 400 c 0
 196 400 180 416 180 434 c 0xe8
EndSplineSet
Validated: 1
EndChar

StartChar: k
Encoding: 107 107 74
Width: 286
GlyphClass: 1
Flags: W
HStem: 0 21G<56 74 222 237> 280 20G<216.5 231> 447 20G<61.5 79>
VStem: 25 67<228 455.552> 32 67<3.48541 90.2188> 37 67<242.87 463.371>
LayerCount: 2
Fore
SplineSet
228 0 m 0xf0
 216 0 216 0 204 11 c 0
 191 23 164 46 96 94 c 1
 96 86 97 61 98 47 c 0
 98 43 98 38 99 34 c 2
 99 16 83 0 65 0 c 0
 47 0 33 14 32 32 c 0xe8
 30 83 25 216 25 239 c 0xf0
 25 322 28 376 37 438 c 0
 39 455 53 467 70 467 c 0
 88 467 104 451 104 433 c 2
 104 429 l 1xe4
 96 374 92 308 92 239 c 2
 92 228 l 1
 196 292 211 300 222 300 c 0
 240 300 255 285 255 267 c 0
 255 244 237 229 164 191 c 0
 163 191 163 190 162 190 c 0
 123 169 123 169 115 163 c 0
 252 65 261 57 261 33 c 0
 261 15 246 0 228 0 c 0xf0
EndSplineSet
Validated: 1
EndChar

StartChar: l
Encoding: 108 108 75
Width: 129
GlyphClass: 1
Flags: W
HStem: 0 21G<50 68> 447 20G<61 79>
VStem: 25 67<3.48541 252.688> 32 72<12.5041 461.247>
LayerCount: 2
Fore
SplineSet
70 467 m 0xd0
 88 467 104 451 104 433 c 2
 104 431 l 2xd0
 101 396 99 329 98 234 c 0
 98 130 97 90 92 31 c 0
 91 14 77 0 59 0 c 0
 41 0 25 16 25 34 c 2
 25 36 l 1xe0
 29 70 31 129 32 234 c 2
 32 280 l 2
 32 353 33 392 37 436 c 0
 38 453 52 467 70 467 c 0xd0
EndSplineSet
Validated: 1
EndChar

StartChar: m
Encoding: 109 109 76
Width: 491
GlyphClass: 1
Flags: W
HStem: 0 21G<49.5 73.5 419 437> 221 67<146.443 212.861 334.163 392.419> 280 20G<86 102>
VStem: 210 67<53.3148 141.002> 394 67<3.48541 33 34 218.987>
LayerCount: 2
Fore
SplineSet
466 149 m 0xd8
 466 127 465 112 464 96 c 0
 463 80 461 65 461 43 c 2
 461 34 l 1
 462 34 l 1
 462 16 446 0 428 0 c 0
 410 0 395 15 395 33 c 0
 394 34 l 0
 394 36 l 2
 394 43 l 2
 394 64 395 80 396 96 c 0
 397 112 399 128 399 149 c 0
 399 202 390 221 366 221 c 0xd8
 334 221 292 153 277 77 c 0
 274 62 260 50 244 50 c 0
 225 50 210 65 210 84 c 0
 210 99 213 111 216 122 c 0
 219 133 221 145 221 160 c 0
 221 184 215 204 203 219 c 1
 202 219 l 2
 201 219 201 219 200 220 c 1
 199 220 l 2
 144 220 104 171 99 97 c 0
 96 20 88 0 59 0 c 0
 40 0 25 15 25 33 c 2
 25 36 l 1
 26 46 27 47 27 48 c 0
 27 49 27 49 28 56 c 0
 29 63 30 77 33 105 c 0
 33 106 34 107 34 108 c 0
 34 109 34 109 34 110 c 2
 34 124 l 1
 39 200 45 235 62 279 c 0
 67 292 79 300 93 300 c 0xb8
 111 300 125 287 126 269 c 1
 151 280 178 287 199 287 c 0
 234 287 253 274 272 235 c 1
 299 270 331 288 366 288 c 0
 432 288 466 241 466 149 c 0xd8
EndSplineSet
Validated: 1
EndChar

StartChar: n
Encoding: 110 110 77
Width: 312
GlyphClass: 1
Flags: W
HStem: 0 21G<48.5 75 240.5 259> 212 67<140.952 213.66> 280 20G<94.5 110>
VStem: 25 70<3.69803 159.638> 220 67<5.0066 210.498>
LayerCount: 2
Fore
SplineSet
287 122 m 0
 287 110 286 93 285 77 c 0
 284 61 283 44 283 32 c 0
 282 14 268 0 250 0 c 0
 231 0 217 14 217 33 c 2
 217 36 l 2
 219 70 220 99 220 122 c 0
 220 172 215 202 205 212 c 1
 200 212 l 2
 183 212 145 198 129 185 c 1
 99 144 97 99 95 64 c 0
 93 27 91 0 59 0 c 0
 38 0 25 15 25 38 c 0
 25 108 45 213 70 279 c 0
 75 292 88 300 101 300 c 0
 119 300 135 284 135 266 c 1
 134 265 l 1
 134 264 l 1
 159 274 181 279 200 279 c 0
 261 279 287 232 287 122 c 0
EndSplineSet
Validated: 1
EndChar

StartChar: o
Encoding: 111 111 78
Width: 285
GlyphClass: 1
Flags: W
HStem: 0 67<94.2627 157.479> 280 20G<147 215.5>
VStem: 25 70<69.1934 171.407> 193 67<116.842 231.505>
LayerCount: 2
Fore
SplineSet
108 0 m 0
 54 0 25 31 25 90 c 0
 25 198 102 294 192 300 c 1
 196 300 l 2
 235 300 260 265 260 209 c 0
 260 180 253 143 241 104 c 0
 223 53 203 29 164 12 c 0
 146 4 127 0 108 0 c 0
191 232 m 1
 139 226 92 158 92 90 c 0
 92 85 93 81 95 70 c 2
 95 69 l 2
 96 68 102 67 108 67 c 0
 124 67 145 75 157 86 c 0
 173 101 193 169 193 209 c 0
 193 216 192 225 191 232 c 1
EndSplineSet
Validated: 1
EndChar

StartChar: p
Encoding: 112 112 79
Width: 309
GlyphClass: 1
Flags: W
HStem: -233 21G<50 67.5> 0 67<119.322 181.788> 233 67<111.347 213.065>
VStem: 25 67<-229.466 13.4688> 34 67<-223.865 14 84.5839 223.458> 217 67<109.266 229.099>
LayerCount: 2
Fore
SplineSet
217 176 m 2xe4
 217 225 212 233 177 233 c 0
 148 233 130 231 111 225 c 1
 107 192 104 165 104 151 c 0
 106 96 123 67 153 67 c 0
 178 67 216 125 217 165 c 2
 217 176 l 2xe4
177 300 m 0
 252 300 284 263 284 176 c 0
 284 83 222 0 152 0 c 0
 137 0 120 5 101 14 c 1
 101 -20 l 2xec
 101 -88 98 -149 92 -203 c 0
 90 -220 76 -233 59 -233 c 0
 41 -233 25 -217 25 -199 c 2
 25 -196 l 1xf4
 31 -151 34 -90 34 -20 c 2
 34 38 l 2xec
 34 85 35 114 37 153 c 2
 37 158 l 2
 37 196 45 254 52 267 c 0
 56 275 62 280 71 283 c 0
 105 295 138 300 177 300 c 0
EndSplineSet
Validated: 1
EndChar

StartChar: q
Encoding: 113 113 80
Width: 276
GlyphClass: 1
Flags: W
HStem: -233 21G<189 207> 0 67<92.3586 136.228> 280 20G<157 193>
VStem: 25 67<68.0662 163.928> 164 68<-229.707 16.4285>
LayerCount: 2
Fore
SplineSet
251 256 m 0
 251 180 246 115 241 50 c 0
 236 -15 231 -80 231 -156 c 0
 232 -167 232 -179 232 -200 c 0
 232 -218 216 -233 198 -233 c 0
 180 -233 164 -218 164 -200 c 2
 164 -156 l 2
 164 -102 165 -51 167 18 c 1
 154 7 134 0 115 0 c 0
 59 0 25 32 25 86 c 0
 25 112 28 124 52 196 c 0
 69 252 130 300 184 300 c 0
 202 300 236 287 244 277 c 0
 248 273 251 264 251 256 c 0
92 86 m 0
 92 71 97 67 115 67 c 0
 137 67 167 143 181 233 c 1
 156 230 124 202 116 176 c 0
 108 156 92 96 92 86 c 0
EndSplineSet
Validated: 1
EndChar

StartChar: r
Encoding: 114 114 81
Width: 271
GlyphClass: 1
Flags: W
HStem: 0 21G<46.5 70.5> 280 20G<61 79 202.5 221>
VStem: 25 70<3.31485 140.471> 37 66<228.328 296.876>
LayerCount: 2
Fore
SplineSet
102 228 m 1xd0
 147 270 193 300 212 300 c 0
 230 300 246 284 246 266 c 0
 246 253 238 241 225 236 c 0
 204 227 164 196 130 162 c 0
 128 161 118 152 107 141 c 0
 99 130 94 100 94 65 c 0
 94 42 94 39 95 35 c 2
 95 34 l 2
 95 15 80 0 61 0 c 0
 32 0 25 17 25 85 c 0xe0
 25 111 26 123 28 142 c 0
 30 164 34 195 37 268 c 0
 38 286 52 300 70 300 c 0
 88 300 103 284 103 266 c 0
 103 242 103 235 102 228 c 1xd0
EndSplineSet
Validated: 1
EndChar

StartChar: s
Encoding: 115 115 82
Width: 291
GlyphClass: 1
Flags: W
HStem: 0 64<46.7128 161.675> 233 67<144.704 242.404>
VStem: 77 67<190.182 231.115> 174 67<79.1539 125.495>
LayerCount: 2
Fore
SplineSet
144 212 m 0
 144 189 173 191 197 175 c 4
 221 159 241 126 241 103 c 0
 241 45 186 0 115 0 c 0
 91 0 69 3 49 10 c 0
 35 14 25 27 25 42 c 0
 25 60 41 75 59 75 c 0
 71 75 77 73 82 70 c 0
 87 67 92 64 104 64 c 0
 137 64 174 85 174 103 c 0
 174 125 154 121 125 141 c 0
 101.254882812 157.375976562 77 190 77 212 c 0
 77 264 119 300 180 300 c 0
 231 300 266 282 266 256 c 0
 266 238 250 222 232 222 c 0
 221 222 214 225 206 228 c 0
 198 231 191 233 180 233 c 0
 156 233 144 226 144 212 c 0
EndSplineSet
Validated: 513
EndChar

StartChar: t
Encoding: 116 116 83
Width: 312
GlyphClass: 1
Flags: W
HStem: 0 21G<144.5 188> 224 66<28.1243 60 60 67 68 114.673> 230 68<187 283.56> 447 20G<146 164>
VStem: 107 67<72.2667 228.227> 121 67<104.587 231 354 387 430 433> 196 72<73.0171 144.17>
LayerCount: 2
Fore
SplineSet
187 300 m 1xb6
 193 300 207 299 221 298 c 0
 235 297 249 297 255 297 c 0
 273 296 287 282 287 264 c 0
 287 246 272 230 254 230 c 2
 252 230 l 2xb6
 241 230 229 231 217 232 c 0
 205 233 193 233 182 233 c 1
 175 161 174 137 174 103 c 0
 174 92 174 85 176 71 c 1
 187 82 192 96 196 110 c 0
 203 131 209 149 234 149 c 0
 252 149 268 134 268 116 c 0
 268 63 212 0 164 0 c 0
 125 0 107 33 107 103 c 0
 107 131 108 140 115 231 c 1
 108 230 102 230 97 229 c 0
 79 227 79 227 74 226 c 0
 73 226 70 225 68 225 c 0
 67 224 l 0
 66 224 l 2
 60 224 l 1
 60 223 60 223 59 223 c 0
 41 223 25 239 25 257 c 0
 25 273 36 287 53 290 c 0xda
 55 290 57 291 58 291 c 0
 66 293 66 293 97 296 c 0
 103 297 109 297 117 298 c 2
 120 298 l 1
 122 321 123 354 123 387 c 0
 123 404 123 412 121 429 c 2
 121 433 l 2
 121 451 137 467 155 467 c 0
 173 467 187 453 188 436 c 2
 188 430 l 2
 190 388 190 388 190 387 c 0
 190 354 189 323 187 300 c 1xb6
EndSplineSet
Validated: 1
EndChar

StartChar: u
Encoding: 117 117 84
Width: 327
GlyphClass: 1
Flags: W
HStem: 0 67<95.2071 141.712> 280 20G<53 73.5 256.5 274>
VStem: 25 67<67.4636 294.95> 225 75<181 207.441> 232 68<3.48541 83 182.328 296.348>
LayerCount: 2
Fore
SplineSet
96 234 m 0xe8
 96 233 95 209 94 184 c 0
 93 159 92 134 92 133 c 0
 92 80 96 67 112 67 c 1
 138 77 186 126 224 181 c 0
 225 181 225 181 225 182 c 0xf0
 231 189 233 196 233 208 c 0
 233 245 233 253 232 265 c 2
 232 267 l 2xe8
 232 285 247 300 266 300 c 0
 282 300 296 288 299 272 c 2
 299 271 l 2
 301 262 302 250 302 236 c 0
 302 227 301 207 300 203 c 2xf0
 300 34 l 2
 300 16 284 0 266 0 c 0
 248 0 232 16 232 34 c 2
 232 48 l 2
 232 50 232 52 232 54 c 0
 232 56 233 59 233 61 c 2
 233 83 l 1
 179 24 144 0 112 0 c 0
 75 0 45 22 32 58 c 0
 27 73 25 90 25 118 c 2
 25 133 l 2
 25 141 26 163 27 184 c 0
 28 205 29 226 29 234 c 0
 29 253 29 256 30 261 c 2
 30 268 l 2
 30 286 44 300 62 300 c 0
 85 300 96 279 96 234 c 0xe8
EndSplineSet
Validated: 1
EndChar

StartChar: v
Encoding: 118 118 85
Width: 315
GlyphClass: 1
Flags: W
HStem: 0 21G<136.5 159.5> 280 20G<50 65.5 249.5 265>
VStem: 25 65<227.072 296.515>
LayerCount: 2
Fore
SplineSet
25 266 m 0
 25 284 41 300 59 300 c 0
 72 300 85 292 90 279 c 0
 96 264 144 130 154 100 c 1
 154 105 211 247 226 281 c 0
 231 292 243 300 256 300 c 0
 274 300 290 284 290 266 c 0
 290 260 289 256 286 252 c 0
 269 219 254 176 239 135 c 0
 221 85 204 38 188 18 c 0
 178 6 166 0 153 0 c 0
 120 0 107 22 65 148 c 0
 47 202 40 221 28 254 c 0
 26 258 25 262 25 266 c 0
EndSplineSet
Validated: 1
EndChar

StartChar: w
Encoding: 119 119 86
Width: 516
GlyphClass: 1
Flags: W
HStem: 0 21G<111.5 153 332.5 372.5> 280 20G<50 73 449 466>
VStem: 424 67<182.022 296.385>
LayerCount: 2
Fore
SplineSet
43 173 m 1
 43 176 l 1
 38 215 30 247 27 257 c 0
 27 259 26 260 26 260 c 0
 25 263 25 263 25 266 c 0
 25 284 41 300 59 300 c 0
 87 300 92 288 109 182 c 0
 122 105 126 91 134 76 c 1
 148 97 158 113 167 127 c 0
 181 150 192 168 215 192 c 0
 241 218 262 229 286 229 c 0
 329 229 348 198 354 115 c 0
 357 83 358 77 360 68 c 1
 369 72 379 88 388 114 c 0
 393 127 393 127 424 274 c 0
 427 289 441 300 457 300 c 0
 475 300 491 284 491 266 c 0
 491 241 453 90 440 66 c 0
 419 22 390 0 355 0 c 0
 310 0 293 28 287 114 c 0
 284 144 284 151 281 160 c 1
 260 149 241 119 222 87 c 0
 197 45 171 0 135 0 c 0
 88 0 65 43 43 173 c 1
EndSplineSet
Validated: 1
EndChar

StartChar: x
Encoding: 120 120 87
Width: 300
GlyphClass: 1
Flags: W
HStem: 0 21G<49 67.5 228 242> 280 20G<54 72 232.5 251>
VStem: 25 250
LayerCount: 2
Fore
SplineSet
32 55 m 0
 37 60 64 96 100 146 c 1
 44 230 29 255 29 266 c 0
 29 284 45 300 63 300 c 0
 81 300 85 296 111 253 c 0
 120 237 127 228 133 219 c 0
 136 214 139 209 142 204 c 1
 196 274 223 300 242 300 c 0
 260 300 275 285 275 267 c 0
 275 256 272 248 265 242 c 0
 241 221 201 174 182 146 c 1
 204 117 226 91 258 56 c 0
 263 50 266 42 266 33 c 0
 266 15 251 0 233 0 c 0
 223 0 214 4 208 11 c 0
 186 36 172 52 142 89 c 1
 85 9 77 0 58 0 c 0
 40 0 25 15 25 33 c 0
 25 43 27 50 32 55 c 0
EndSplineSet
Validated: 1
EndChar

StartChar: y
Encoding: 121 121 88
Width: 350
GlyphClass: 1
Flags: W
HStem: -233 67<100.086 179.855> 0 67<150.171 211.597> 280 20G<101 122.5 285 301>
VStem: 66 67<84.4193 230.25> 74 67<133.75 296.22> 259 66<200.259 276.999 277 296.68>
LayerCount: 2
Fore
SplineSet
66 133 m 0xf4
 66 149 68 165 70 182 c 0
 72 199 74 215 74 231 c 2
 74 270 l 2
 74 286 91 300 111 300 c 0
 134 300 141 284 141 231 c 0xec
 141 215 139 199 137 182 c 0
 135 165 133 149 133 133 c 0
 133 98 158 67 186 67 c 0
 201 67 218 89 227 120 c 1
 242 231 256 267 259 275 c 0
 259 276 260 277 260 277 c 0
 260 287 278 300 292 300 c 0
 310 300 325 285 325 266 c 0
 325 255 320 237 315 219 c 0
 310 200 304 181 303 167 c 0
 301 151 298 132 292 106 c 2
 288 70 l 2
 266 -130 253 -179 215 -206 c 0
 188 -225 166 -233 143 -233 c 0
 114 -233 91 -223 41 -190 c 0
 31 -183 25 -173 25 -162 c 0
 25 -144 41 -128 59 -128 c 0
 72 -128 86 -137 101 -147 c 0
 116 -157 130 -166 143 -166 c 0
 151 -166 162 -161 176 -151 c 0
 188 -143 202 -83 212 4 c 1
 207 1 198 0 186 0 c 0
 120 0 66 60 66 133 c 0xf4
EndSplineSet
Validated: 1
EndChar

StartChar: z
Encoding: 122 122 89
Width: 348
GlyphClass: 1
Flags: W
HStem: 2 69<128 319.515> 230 70<87.3613 203>
VStem: 25 298
LayerCount: 2
Fore
SplineSet
65 208 m 1
 60 208 l 1
 60 207 60 207 59 207 c 0
 41 207 25 223 25 241 c 0
 25 256 37 271 53 274 c 0
 151 294 196 300 237 300 c 0
 268 300 286 286 286 262 c 0
 286 224 250 174 178 113 c 0
 150 89 140 80 128 67 c 1
 130 67 l 2
 151 67 172 68 193 69 c 0
 214 70 235 71 256 71 c 0
 306 71 323 62 323 36 c 0
 323 18 307 2 289 2 c 2
 288 2 l 2
 285 2 282 2 280 2 c 0
 278 2 275 3 272 3 c 0
 269 3 266 4 264 4 c 0
 262 4 259 4 256 4 c 0
 254 4 224 3 193 2 c 0
 162 1 132 0 130 0 c 0
 69 0 46 14 46 49 c 0
 46 78 58 93 135 162 c 0
 180 203 194 216 203 230 c 1
 199 230 l 2
 197 230 193 230 189 229 c 0
 168 226 124 220 65 208 c 1
EndSplineSet
Validated: 1
EndChar

StartChar: braceleft
Encoding: 123 123 90
Width: 284
GlyphClass: 1
Flags: W
HStem: -233 69<156.616 188 188 217.172> 400 67<169.187 234.041>
VStem: 70 66<-140.812 56.1261>
LayerCount: 2
Fore
SplineSet
182 -164 m 2
 188 -164 l 1
 188 -163 188 -163 189 -163 c 0
 207 -163 222 -179 222 -197 c 0
 222 -220 201 -233 166 -233 c 0
 97 -233 77 -176 70 42 c 1
 66 46 60 50 54 54 c 0
 40 63 25 73 25 86 c 0
 25 96 29 99 39 106 c 0
 47 112 59 121 76 139 c 0
 76 139 77 160 79 180 c 0
 81 200 82 221 82 221 c 2
 82 222 l 1
 92 387 104 431 147 457 c 0
 157 464 169 467 185 467 c 0
 223 467 259 444 259 420 c 0
 259 402 243 387 225 387 c 0
 217 387 211 391 205 394 c 0
 199 397 193 400 185 400 c 0
 176 400 166 379 161 351 c 0
 156 328 150 256 142 134 c 2
 142 129 l 2
 140 111 133 98 120 87 c 1
 130 76 135 63 136 45 c 0
 141 -75 151 -148 165 -166 c 1
 166 -166 l 2
 170 -166 170 -166 182 -164 c 2
EndSplineSet
Validated: 1
EndChar

StartChar: bar
Encoding: 124 124 91
Width: 132
GlyphClass: 1
Flags: W
HStem: -233 21G<49 67> 447 20G<64 82>
VStem: 25 66<-230.05 5.96286> 40 67<222.743 463.707>
LayerCount: 2
Fore
SplineSet
25 -200 m 0xe0
 26 -182 37 292 40 419 c 2
 40 434 l 2
 40 452 55 467 73 467 c 0
 91 467 107 452 107 434 c 0xd0
 101 220 94 -48 91 -200 c 0
 91 -218 76 -233 58 -233 c 0
 40 -233 25 -218 25 -200 c 0xe0
EndSplineSet
Validated: 1
EndChar

StartChar: braceright
Encoding: 125 125 92
Width: 326
GlyphClass: 1
Flags: W
HStem: -233 67<28.1243 63 64 118.439> 400 67<58.5978 149.957>
VStem: 172 66<-76.9632 70.7154 167.121 376.262>
LayerCount: 2
Fore
SplineSet
66 -166 m 2
 72 -166 l 2
 104 -166 126 -148 143 -105 c 0
 158 -69 168 -16 172 48 c 0
 173 72 186 89 218 110 c 1
 189 121 173 140 172 165 c 0
 171 175 171 180 171 216 c 0
 171 355 157 400 115 400 c 0
 107 400 104 399 101 398 c 0
 98 397 95 397 87 397 c 0
 69 397 54 412 54 430 c 0
 54 455 73 467 115 467 c 0
 141 467 165 459 183 444 c 0
 224 411 236 362 238 222 c 2
 238 175 l 1
 275 160 275 160 279 157 c 0
 293 148 301 133 301 117 c 0
 301 101 286 91 270 80 c 0
 254 69 238 58 238 42 c 0
 226 -140 170 -233 72 -233 c 0
 41 -233 25 -222 25 -199 c 0
 25 -181 41 -165 59 -165 c 2
 63 -165 l 2
 64 -166 l 0
 66 -166 l 2
EndSplineSet
Validated: 1
EndChar

StartChar: asciitilde
Encoding: 126 126 93
Width: 432
GlyphClass: 1
Flags: W
HStem: 133 67<116.495 185.204>
LayerCount: 2
Fore
SplineSet
257 45 m 0
 230 45 216 67 202 89 c 0
 188 111 175 133 148 133 c 0
 127 133 115 113 103 92 c 0
 91 71 79 50 58 50 c 0
 40 50 25 65 25 83 c 0
 25 93 30 104 40 118 c 0
 41 118 41 118 41 119 c 0
 78 180 105 200 148 200 c 0
 188 200 215 181 244 133 c 0
 250 123 254 117 258 113 c 0
 297 116 314 144 329 168 c 0
 341 188 352 206 373 206 c 0
 391 206 407 190 407 172 c 0
 407 160 401 153 395 145 c 0
 391 140 387 136 384 130 c 0
 344 70 313 49 261 46 c 2
 259 46 l 2
 258 46 258 46 257 45 c 0
EndSplineSet
Validated: 1
EndChar

StartChar: cent
Encoding: 162 162 96
Width: 304
GlyphClass: 1
Flags: W
HStem: 120 64<221.636 275.515>
VStem: 25 67<138.689 236.142> 118 68<1.12434 72.3467 157 258.803>
LayerCount: 2
Fore
SplineSet
224 322 m 2
 218 322 l 2
 216 322 l 0
 215 323 l 0
 205 323 202 323 196 321 c 1
 187 207 187 207 185 157 c 1
 239 184 239 184 245 184 c 0
 263 184 279 168 279 150 c 0
 279 137 271 125 259 120 c 0
 249 116 242 112 233 107 c 0
 222 101 209 93 185 82 c 0
 185 78 186 74 186 70 c 0
 186 66 186 61 186 57 c 0
 186 53 186 48 186 44 c 0
 186 40 187 36 187 32 c 0
 187 14 171 -2 153 -2 c 0
 126 -2 118 15 118 70 c 1
 58 74 25 107 25 164 c 0
 25 236 74 330 132 366 c 1
 133 378 134 388 135 401 c 0
 136 412 137 424 138 440 c 0
 139 458 153 472 171 472 c 0
 189 472 205 456 205 438 c 0
 205 435 204 434 204 432 c 0
 203 427 203 426 202 408 c 0
 202 403 202 397 201 389 c 1
 202 390 l 0
 204 390 l 2
 223 390 l 2
 224 390 l 0
 226 389 l 0
 244 388 258 374 258 356 c 0
 258 338 242 322 224 322 c 2
124 261 m 1
 104 227 92 190 92 164 c 0
 92 143 93 142 118 137 c 1
 119 176 121 214 124 261 c 1
EndSplineSet
Validated: 1
EndChar

StartChar: ordfeminine
Encoding: 170 170 97
Width: 230
GlyphClass: 1
Flags: W
HStem: 200 45<70 103.729> 355 45<102.095 147.676>
VStem: 25 45<245.044 321.136> 145 45<283.724 354.433> 151 54<203.048 244.416>
LayerCount: 2
Fore
SplineSet
190 301 m 0xf0
 190 277 194 270 198 262 c 0
 202 254 205 247 205 223 c 0
 205 211 194 200 182 200 c 0
 166 200 158 212 151 245 c 1xe8
 120 215 93 200 70 200 c 0
 42 200 25 221 25 254 c 0
 25 336 77 400 143 400 c 0
 177 400 195 390 195 372 c 0
 195 362 193 349 192 336 c 0
 191 323 190 311 190 301 c 0xf0
71 245 m 0
 85 245 131 284 145 307 c 1xf0
 145 325 146 343 148 355 c 1
 143 355 l 2
 104 355 70 308 70 254 c 0
 70 246 70 246 71 245 c 0
EndSplineSet
Validated: 1
EndChar

StartChar: logicalnot
Encoding: 172 172 98
Width: 342
GlyphClass: 1
Flags: W
HStem: 143 68<29.6734 247.722>
VStem: 248 69<57.6953 143>
LayerCount: 2
Fore
SplineSet
245 85 m 0
 245 94 245 100 246 106 c 0
 247 112 248 117 248 126 c 2
 248 130 l 2
 248 131 248 131 248 132 c 0
 248 133 249 134 249 135 c 2
 249 143 l 1
 232 143 l 2
 230 143 228 144 226 144 c 0
 224 144 223 144 221 144 c 2
 210 144 l 2
 203 144 193 144 172 143 c 0
 152 143 122 142 75 141 c 2
 59 141 l 2
 41 141 25 157 25 175 c 0
 25 193 41 208 59 208 c 2
 75 208 l 2
 122 209 152 210 172 210 c 0
 193 211 203 211 210 211 c 0
 302 211 317 203 317 156 c 0
 317 139 316 129 315 120 c 0
 314 111 313 102 313 85 c 0
 313 67 297 52 279 52 c 0
 261 52 245 67 245 85 c 0
EndSplineSet
Validated: 1
EndChar

StartChar: macron
Encoding: 175 175 99
Width: 0
GlyphClass: 1
Flags: W
HStem: 524 67<-276.707 -4.67338>
VStem: -280 280<527.012 584.988>
LayerCount: 2
Fore
SplineSet
-280 557 m 0
 -280 575 -265 591 -247 591 c 2
 -33 588 l 2
 -15 588 0 573 0 555 c 0
 0 537 -16 521 -34 521 c 2
 -247 524 l 2
 -265 524 -280 539 -280 557 c 0
EndSplineSet
Validated: 1
EndChar

StartChar: degree
Encoding: 176 176 100
Width: 219
GlyphClass: 1
Flags: W
HStem: 337 67<94.0805 126.53>
VStem: 25 69<280.661 328> 127 67<287.012 335.73>
LayerCount: 2
Fore
SplineSet
95 329 m 0
 94 328 l 0
 94 327 l 2
 94 325 l 2
 92 320 92 318 92 310 c 0
 92 300 93 290 96 280 c 1
 114 289 127 304 127 315 c 0
 127 326 116 337 104 337 c 0
 98 337 97 336 95 329 c 0
91 211 m 0
 50 211 25 249 25 310 c 0
 25 368 56 404 104 404 c 0
 153 404 194 363 194 315 c 0
 194 265 140 211 91 211 c 0
EndSplineSet
Validated: 1
EndChar

StartChar: plusminus
Encoding: 177 177 101
Width: 249
GlyphClass: 1
Flags: W
HStem: 0 68<28.6521 217.707> 170 67<34.4688 91.933 159 219.74> 280 20G<119 137>
VStem: 25 196<3.48541 64.0499 178.662 231.508> 92 67<237 265.952> 92 66<98.9501 168 238.25 295.484>
LayerCount: 2
Fore
SplineSet
65 239 m 0xe4
 67 239 72 238 78 238 c 0
 84 238 89 237 91 237 c 2
 92 237 l 1
 94 253 l 2
 95 258 95 264 95 269 c 2
 96 286 110 300 128 300 c 0
 146 300 162 284 162 266 c 0
 162 265 161 262 161 257 c 0
 160 251 160 242 159 235 c 1xe8
 176 235 183 235 190 236 c 0
 208 236 224 220 224 202 c 0
 224 176 209 168 158 168 c 1
 158 129 l 2
 158 111 143 96 125 96 c 0
 107 96 92 111 92 129 c 0
 92 151 92 160 91 170 c 1
 49 170 31 180 31 205 c 0
 31 223 47 239 65 239 c 0xe4
58 67 m 0
 60 67 63 68 65 68 c 0
 67 68 70 68 72 68 c 2
 124 68 l 2
 140 68 146 68 149 67 c 2
 188 67 l 2
 206 67 221 52 221 34 c 0
 221 16 206 0 188 0 c 2
 124 0 l 2
 107 0 101 0 98 1 c 0
 78 1 72 1 62 0 c 2
 59 0 l 2
 41 0 25 16 25 34 c 0xf0
 25 52 40 67 58 67 c 0
EndSplineSet
Validated: 1
EndChar

StartChar: uni00B2
Encoding: 178 178 102
Width: 251
GlyphClass: 1
Flags: W
HStem: 200 44<94.3794 204.558> 207 44<110.947 225.686>
VStem: 25 201
LayerCount: 2
Fore
SplineSet
143 466 m 1xa0
 117 462 92 447 73 435 c 0
 62 428 53 422 48 422 c 0
 36 422 25 433 25 445 c 0
 25 452 29 459 35 463 c 0
 78 493 120 511 148 511 c 0
 173 511 189 497 189 476 c 0
 189 460 183 420 178 400 c 0
 171 377 167 367 140 322 c 0
 116 282 110 273 94 245 c 1
 98 244 98 244 110 244 c 0xa0
 130 244 163 247 199 251 c 0
 202 251 203 251 204 252 c 0
 216 252 226 242 226 230 c 0
 226 219 217 208 206 207 c 0x60
 189 205 116 200 110 200 c 0
 66 200 45 212 45 236 c 0
 45 251 64 282 84 315 c 0
 104 348 125 384 134 412 c 0
 139 434 141 447 143 466 c 1xa0
EndSplineSet
Validated: 1
EndChar

StartChar: uni00B3
Encoding: 179 179 103
Width: 223
GlyphClass: 1
Flags: W
HStem: 200 44<31.1574 63> 466 45<25.7621 150.191>
VStem: 136 45<262.324 285 286 317.923>
LayerCount: 2
Fore
SplineSet
137 286 m 1
 137 300 122 313 108 326 c 0
 94 339 79 352 79 366 c 0
 79 389 91 406 129 438 c 0
 141 448 148 454 152 460 c 1
 146 464 129 466 101 466 c 0
 92 466 92 466 50 464 c 2
 47 464 l 2
 35 464 25 474 25 486 c 0
 25 497 34 507 45 508 c 0
 65 510 84 511 101 511 c 0
 166 511 198 495 198 462 c 0
 198 439 177 420 157 403 c 0
 144 392 131 380 124 368 c 1
 131 361 133 359 138 355 c 0
 167 330 181 307 181 286 c 0
 181 268 165 245 140 228 c 0
 123 217 71 200 53 200 c 0
 41 200 31 210 31 222 c 0
 31 232 37 241 48 244 c 2
 63 247 l 2
 117 258 129 264 136 284 c 1
 136 285 l 1
 137 286 l 1
EndSplineSet
Validated: 1
EndChar

StartChar: mu
Encoding: 181 181 104
Width: 276
GlyphClass: 1
Flags: W
HStem: -233 21G<48 72> 0 67<126.847 170.727> 280 20G<86 103.5 208 226>
VStem: 25 67<-228.312 12.6431> 60 68<159.523 272> 184 66<77.6577 296.876>
LayerCount: 2
Fore
SplineSet
128 266 m 0xec
 128 255 125 233 123 212 c 0
 121 191 118 170 118 159 c 0
 118 103 128 67 144 67 c 0
 172 67 184 99 184 174 c 2
 184 210 l 2
 184 235 184 243 183 247 c 0
 183 248 184 249 184 250 c 0
 184 251 184 251 184 252 c 2
 184 268 l 2
 185 286 199 300 217 300 c 0
 235 300 251 284 251 266 c 0
 250 263 250 260 250 247 c 2
 250 193 l 2
 250 190 250 187 250 184 c 0
 250 181 251 177 251 174 c 0
 251 56 217 0 144 0 c 0
 129 0 113 5 100 14 c 1
 95 -37 92 -91 92 -131 c 0
 92 -141 93 -153 94 -165 c 0
 95 -177 97 -189 97 -199 c 0
 97 -217 81 -233 63 -233 c 0
 33 -233 25 -211 25 -131 c 0xf4
 25 -72 31 -15 38 49 c 0
 43 94 48 143 52 197 c 0
 53 219 55 240 60 269 c 0
 60 272 60 272 61 272 c 0
 64 288 78 300 94 300 c 0
 113 300 128 285 128 266 c 0xec
EndSplineSet
Validated: 1
EndChar

StartChar: periodcentered
Encoding: 183 183 105
Width: 118
GlyphClass: 1
Flags: W
HStem: 112 66<28.1243 89.8757>
VStem: 25 68<115.293 174.707>
LayerCount: 2
Fore
SplineSet
25 145 m 0
 25 163 41 178 59 178 c 0
 77 178 93 163 93 145 c 0
 93 127 77 112 59 112 c 0
 41 112 25 127 25 145 c 0
EndSplineSet
Validated: 1
EndChar

StartChar: uni00B9
Encoding: 185 185 106
Width: 99
GlyphClass: 1
Flags: W
VStem: 28 44<200.768 510.547>
LayerCount: 2
Fore
SplineSet
28 369 m 2
 28 397 l 2
 28 425 29 473 30 489 c 0
 30 501 40 511 52 511 c 0
 64 511 74 501 74 489 c 0
 74 481 73 454 73 428 c 0
 73 402 72 376 72 368 c 2
 72 342 l 2
 72 340 72 338 72 336 c 0
 72 334 71 331 71 329 c 2
 71 314 l 2
 71 286 70 238 69 222 c 0
 69 210 59 200 47 200 c 0
 35 200 25 211 25 223 c 0
 25 252 25 280 26 302 c 0
 26 309 26 318 26 326 c 0
 26 334 27 342 27 349 c 2
 27 356 l 2
 27 358 28 360 28 362 c 0
 28 364 28 367 28 369 c 2
EndSplineSet
Validated: 1
EndChar

StartChar: ordmasculine
Encoding: 186 186 107
Width: 207
GlyphClass: 1
Flags: W
HStem: 200 45<70.6505 115.019>
VStem: 25 45<245.613 320.928> 137 45<264.055 354.357>
LayerCount: 2
Fore
SplineSet
182 339 m 0
 182 257 141 200 81 200 c 0
 45 200 25 221 25 260 c 0
 25 332 76 396 137 400 c 1
 139 400 l 2
 165 400 182 376 182 339 c 0
70 260 m 0
 70 246 71 245 81 245 c 0
 92 245 105 250 113 257 c 0
 124 268 137 313 137 339 c 0
 137 352 137 353 136 355 c 0
 102 351 70 305 70 260 c 0
EndSplineSet
Validated: 1
EndChar

StartChar: multiply
Encoding: 215 215 108
Width: 322
GlyphClass: 1
Flags: W
HStem: 0 21G<49 63 258.5 273> 280 20G<66 83.5 246.5 261>
VStem: 25 272<15 40>
LayerCount: 2
Fore
SplineSet
208 159 m 1
 297 49 297 49 297 33 c 0
 297 15 282 0 264 0 c 0
 253 0 243 5 237 13 c 0
 173 97 173 97 163 109 c 1
 134 78 112 51 85 14 c 0
 78 5 68 0 58 0 c 0
 40 0 25 15 25 33 c 0
 25 40 27 47 31 53 c 0
 57 89 79 117 120 162 c 1
 92 197 78 213 50 244 c 0
 45 250 42 259 42 267 c 0
 42 285 57 300 75 300 c 0
 92 300 92 300 151 229 c 0
 160 218 161 216 165 212 c 1
 178 225 206 260 224 285 c 0
 230 295 241 300 252 300 c 0
 270 300 285 285 285 267 c 0
 285 250 270 229 208 159 c 1
EndSplineSet
Validated: 1
EndChar

StartChar: divide
Encoding: 247 247 109
Width: 310
GlyphClass: 1
Flags: W
HStem: 0 67<121.485 182.515> 114 67<28.4854 280.484> 233 67<133.485 194.515>
VStem: 118 68<3.48541 63.7074> 130 68<236.293 296.515>
LayerCount: 2
Fore
SplineSet
66 181 m 2xe0
 128 179 128 179 140 179 c 0
 166 179 199 181 249 184 c 2
 251 184 l 2
 269 184 285 168 285 150 c 0
 285 132 271 118 254 117 c 0
 222 113 192 112 140 112 c 0
 135 112 120 113 106 113 c 0
 92 113 78 114 73 114 c 2
 58 114 l 2
 39 115 25 129 25 147 c 0
 25 165 41 181 59 181 c 2
 66 181 l 2xe0
130 266 m 0xe8
 130 284 146 300 164 300 c 0
 182 300 198 284 198 266 c 0
 198 248 182 233 164 233 c 0
 146 233 130 248 130 266 c 0xe8
118 34 m 0xf0
 118 52 134 67 152 67 c 0
 170 67 186 52 186 34 c 0
 186 16 170 0 152 0 c 0
 134 0 118 16 118 34 c 0xf0
EndSplineSet
Validated: 1
EndChar

StartChar: uni00AD
Encoding: 173 173 110
Width: 327
Flags: W
VStem: 25 277<130.047 179.953>
LayerCount: 2
Fore
SplineSet
270 127 m 0
 148 121 72 117 59 116 c 0
 41 116 25 132 25 150 c 0
 25 168 39 182 57 183 c 0
 179 189 255 193 268 194 c 0
 286 194 302 178 302 160 c 0
 302 142 288 128 270 127 c 0
EndSplineSet
Validated: 1
EndChar

StartChar: yen
Encoding: 165 165 111
Width: 333
Flags: W
HStem: 0 21G<158 176> 70 67<30.1032 133> 77 67<205 298.515> 164 66<30.1032 137> 170 67<206 207 207.008 298.515> 447 20G<70 85.5 268.5 283>
VStem: 45 65<391.477 463.515> 134 66<3.2926 70 140 164>
LayerCount: 2
Fore
SplineSet
133 70 m 1xc7
 62 67 62 67 59 66 c 0
 41 66 25 82 25 100 c 0
 25 118 39 132 57 133 c 0
 65 133 99 135 132 137 c 2
 137 137 l 1
 139 159 139 159 139 164 c 1
 97 162 67 160 59 159 c 0
 41 159 25 175 25 193 c 0
 25 211 39 225 57 226 c 0
 67 226 105 228 133 230 c 2
 137 230 l 1xd7
 137 232 l 1
 111 249 91 289 66 373 c 1
 65 373 65 373 65 374 c 0
 64 377 62 382 60 389 c 0
 54 406 45 430 45 433 c 0
 45 451 61 467 79 467 c 0
 92 467 105 459 110 446 c 0
 117 428 121 415 134 379 c 0
 148 337 158 312 169 294 c 1
 178 308 187 330 197 353 c 0
 211 386 226 423 247 453 c 0
 253 462 263 467 274 467 c 0
 292 467 308 452 308 434 c 0
 308 422 307 421 303 416 c 0
 297 409 286 393 259 328 c 0
 234 268 222 247 204 233 c 1
 225 234 250 235 264 237 c 2
 268 237 l 2
 286 237 302 221 302 203 c 0
 302 185 288 171 270 170 c 0
 218 168 207 167 207 167 c 1
 207 167 207 167 206 167 c 1
 206 151 206 147 205 140 c 1
 264 143 264 143 268 144 c 0
 286 144 302 128 302 110 c 0
 302 92 288 78 270 77 c 0xaf
 243 76 220 75 200 74 c 1
 200 34 l 2
 200 16 185 0 167 0 c 0
 149 0 134 15 134 33 c 2
 134 46 l 2
 134 47 134 47 134 48 c 0
 134 49 133 50 133 51 c 2
 133 70 l 1xc7
EndSplineSet
Validated: 1
EndChar

StartChar: section
Encoding: 167 167 112
Width: 274
Flags: W
HStem: -0 67<52.5294 166.978> 399 67<148.71 198 199 235.348>
VStem: 77 67<339.797 393.717> 182 67<204.91 247.655>
LayerCount: 2
Fore
SplineSet
54 184 m 2
 54 190 l 1
 59 226 82 258 123 286 c 1
 92 305 77 328 77 355 c 0
 77 428 119 467 198 467 c 0
 199 466 l 0
 200 466 l 2
 206 466 l 2
 224 466 239 451 239 433 c 0
 239 415 223 399 205 399 c 2
 204 399 l 2
 202 400 202 400 198 400 c 0
 157 400 146 390 144 355 c 0
 144 347 157 342 174 335 c 0
 194 327 217 318 229 301 c 0
 242 279 249 258 249 238 c 0
 249 199 222 158 187 143 c 1
 222 135 242 114 242 86 c 0
 242 39 190 0 127 -0 c 0
 102 0 74 7 44 20 c 0
 33 25 25 37 25 50 c 0
 25 68 41 84 59 84 c 0
 73 84 84 80 94 76 c 0
 104 72 114 67 128 67 c 0
 145 67 160 71 168 78 c 1
 166 78 l 1
 166 79 166 79 165 79 c 0
 141 85 135 90 127 97 c 0
 121 102 115 107 102 113 c 0
 67 133 53 153 53 181 c 0
 54 182 l 0
 54 184 l 2
182 238 m 0
 182 245 182 245 181 248 c 1
 132 207 132 207 126 199 c 1
 129 200 130 200 139 200 c 0
 160 202 163 203 171 212 c 0
 178 220 182 229 182 238 c 0
EndSplineSet
Validated: 1
EndChar

StartChar: dieresis
Encoding: 168 168 113
Width: 226
Flags: W
HStem: 400 67<28.2926 87.7074 138.293 197.707>
VStem: 25 66<403.124 464.05> 135 66<403.124 464.05>
LayerCount: 2
Fore
SplineSet
135 434 m 0
 135 452 150 467 168 467 c 0
 186 467 201 452 201 434 c 0
 201 416 186 400 168 400 c 0
 150 400 135 416 135 434 c 0
25 434 m 0
 25 452 40 467 58 467 c 0
 76 467 91 452 91 434 c 0
 91 416 76 400 58 400 c 0
 40 400 25 416 25 434 c 0
EndSplineSet
Validated: 1
EndChar

StartChar: brokenbar
Encoding: 166 166 114
Width: 125
Flags: W
HStem: -0 21G<49 67.5> 447 20G<58 76>
VStem: 25 67<3.2926 195.579 273.108 431.923> 31 67<34.0774 194.451 269.485 462.579>
LayerCount: 2
Fore
SplineSet
31 300 m 0xd0
 31 323 32 345 32 363 c 0
 33 394 33 416 33 427 c 2
 33 434 l 2
 33 452 49 467 67 467 c 0
 85 467 100 451 100 433 c 0
 100 410 99 388 99 370 c 0
 98 339 98 317 98 306 c 2
 98 299 l 2
 98 281 82 266 64 266 c 0
 46 266 31 282 31 300 c 0xd0
25 33 m 0xe0
 25 56 26 78 26 96 c 0
 27 127 27 149 27 160 c 2
 27 167 l 2
 27 185 43 200 61 200 c 0
 79 200 94 184 94 166 c 0
 94 143 93 121 93 103 c 0
 92 72 92 50 92 39 c 2
 92 32 l 2
 92 15 77 0 58 -0 c 0
 40 0 25 15 25 33 c 0xe0
EndSplineSet
Validated: 1
EndChar

StartChar: copyright
Encoding: 169 169 115
Width: 817
Flags: W
HStem: -234 68<301.269 514.654> 0 67<366.416 515.617> 235 65<447.35 509.404> 466 68<301.646 514.654>
VStem: 25 67<43.2302 256.393> 298 66<68.6865 80 81 152.255> 725 67<43.407 256.593>
LayerCount: 2
Fore
SplineSet
298 68 m 2
 298 80 l 1
 297 81 l 1
 297 180 396 300 479 300 c 0
 497 300 513 284 513 266 c 0
 513 251 503 239 489 235 c 0
 411 210 364 153 364 81 c 2
 364 79 l 2
 364 70 379 67 424 67 c 2
 452 67 l 2
 467 67 468 67 469 68 c 0
 470 69 475 70 486 70 c 0
 504 70 520 55 520 37 c 0
 520 11 500 0 452 0 c 0
 353 0 300 23 298 68 c 2
25 150 m 0
 25 361 197 534 408 534 c 0
 619 534 792 361 792 150 c 0
 792 -61 619 -234 408 -234 c 0
 196 -234 25 -62 25 150 c 0
92 150 m 0
 92 -24 234 -166 408 -166 c 0
 582 -166 725 -24 725 150 c 0
 725 324 582 466 408 466 c 0
 235 466 92 323 92 150 c 0
EndSplineSet
EndChar

StartChar: registered
Encoding: 174 174 116
Width: 817
Flags: W
HStem: -234 68<301.269 514.654> 317 67<358.426 456.907> 466 68<301.646 514.654>
VStem: 25 67<43.2302 256.393> 268 67<-77.6211 63 113 290.392> 486 67<201.535 290.502> 725 67<43.407 256.593>
LayerCount: 2
Fore
SplineSet
553 253 m 0
 553 186 506 129 410 79 c 1
 424 64 428 60 446 42 c 0
 502 -16 514 -32 514 -50 c 0
 514 -68 498 -83 480 -83 c 0
 468 -83 458 -77 452 -68 c 0
 426 -30 397 0 372 25 c 0
 358 39 345 51 335 63 c 1
 335 51 331 -43 330 -51 c 0
 329 -69 316 -83 298 -83 c 0
 280 -83 264 -67 264 -49 c 2
 264 -48 l 2
 267 -29 267 -1 268 70 c 2
 268 77 l 2
 269 193 275 245 296 340 c 0
 302 368 331 384 374 384 c 0
 476 384 553 328 553 253 c 0
336 113 m 1
 343 120 359 129 377 138 c 0
 423 162 486 195 486 253 c 0
 486 291 441 317 374 317 c 0
 362 317 363 317 360 316 c 0
 343 245 337 200 336 113 c 1
25 150 m 0
 25 361 197 534 408 534 c 0
 619 534 792 361 792 150 c 0
 792 -61 619 -234 408 -234 c 0
 196 -234 25 -62 25 150 c 0
92 150 m 0
 92 -24 234 -166 408 -166 c 0
 582 -166 725 -24 725 150 c 0
 725 324 582 466 408 466 c 0
 235 466 92 323 92 150 c 0
EndSplineSet
EndChar

StartChar: acute
Encoding: 180 180 117
Width: 165
Flags: W
HStem: 300 167<75.5721 89.4279>
VStem: 25 115
LayerCount: 2
Fore
SplineSet
106 467 m 0
 124 467 140 451 140 433 c 0
 140 427 139 423 136 419 c 0
 136 418 90 320 89 319 c 0
 84 308 72 300 59 300 c 0
 41 300 25 316 25 334 c 0
 25 340 26 344 29 348 c 0
 29 349 75 447 76 448 c 0
 81 459 93 467 106 467 c 0
EndSplineSet
Validated: 1
EndChar

StartChar: guillemotleft
Encoding: 171 171 118
Width: 543
Flags: W
HStem: 0 84<174.734 237.53 418.734 481.53> 280 20G<236.5 250 483 494>
LayerCount: 2
Fore
SplineSet
485 300 m 0
 503 300 518 285 518 267 c 0
 518 255 512 244 503 238 c 0
 476 220 446 204 418 190 c 0
 387 174 358 159 339 144 c 1
 351 128 377 113 441 84 c 0
 497 59 503 54 503 33 c 0
 503 15 488 0 470 0 c 0
 453 0 346 51 313 76 c 0
 284 97 269 122 269 149 c 0
 269 182 288 198 393 254 c 0
 411 263 411 263 467 295 c 0
 475 298 481 300 485 300 c 0
241 300 m 0
 259 300 274 285 274 267 c 0
 274 255 268 244 259 238 c 0
 232 220 202 204 174 190 c 0
 143 174 114 159 95 144 c 1
 107 128 133 113 197 84 c 0
 253 59 259 54 259 33 c 0
 259 15 244 0 226 0 c 0
 209 0 102 51 69 76 c 0
 40 97 25 122 25 149 c 0
 25 182 44 198 149 254 c 0
 168 264 181 271 202 283 c 0
 227 298 232 300 241 300 c 0
EndSplineSet
Validated: 1
EndChar

StartChar: guillemotright
Encoding: 187 187 119
Width: 492
Flags: W
HStem: 0 21G<51 66.5 272 287.5> 202 98<68.1282 100.375 289.128 321.375>
LayerCount: 2
Fore
SplineSet
27 33 m 0
 27 58 65 82 103 106 c 0
 132 124 162 143 176 163 c 1
 159 176 134 189 107 202 c 0
 84 213 60 225 40 238 c 0
 31 243 25 255 25 267 c 0
 25 285 40 300 58 300 c 0
 67 300 69 299 79 293 c 0
 89 287 105 277 142 259 c 0
 227 216 246 200 246 167 c 0
 246 129 222 103 139 49 c 0
 132 45 124 39 115 32 c 0
 96 17 73 0 60 0 c 0
 42 0 27 15 27 33 c 0
248 33 m 0
 248 58 286 82 324 106 c 0
 353 124 383 143 397 163 c 1
 380 176 355 189 328 202 c 0
 305 213 281 225 261 238 c 0
 252 243 246 255 246 267 c 0
 246 285 261 300 279 300 c 0
 288 300 290 299 300 293 c 0
 310 287 326 277 363 259 c 0
 448 216 467 200 467 167 c 0
 467 129 443 103 360 49 c 0
 353 45 345 39 336 32 c 0
 317 17 294 0 281 0 c 0
 263 0 248 15 248 33 c 0
EndSplineSet
Validated: 1
EndChar

StartChar: paragraph
Encoding: 182 182 120
Width: 435
Flags: W
HStem: -234 21G<154 171.5 293 311> 280 20G<230.5 245.5 368 385>
VStem: 25 243<117.607 196.258> 129 67<-230.466 -68.6857>
LayerCount: 2
Fore
SplineSet
168 292 m 0xe0
 175 292 182 291 188 290 c 0
 194 289 200 287 207 287 c 2
 209 287 l 1
 213 294 225 300 236 300 c 0
 255 300 270 285 270 267 c 2
 270 266 l 2
 270 264 270 263 270 262 c 0
 270 261 269 261 269 259 c 0
 269 257 268 257 268 256 c 0
 268 255 268 254 268 252 c 0xe0
 261 188 250 123 237 54 c 0
 223 -24 207 -108 196 -204 c 0
 194 -221 180 -234 163 -234 c 0
 145 -234 129 -218 129 -200 c 0xd0
 129 -183 146 -70 160 4 c 1
 157 3 156 3 146 3 c 0
 113 3 65 27 42 55 c 0
 29 70 25 83 25 114 c 0
 25 155 38 193 67 234 c 0
 92 271 128 292 168 292 c 0xe0
376 301 m 0
 394 301 410 286 410 268 c 0
 410 262 403 225 381 111 c 0
 355 -20 342 -110 335 -202 c 0
 334 -219 320 -233 302 -233 c 0
 284 -233 268 -217 268 -199 c 2
 268 -198 l 1
 269 -197 l 1
 279 -67 306 69 314 111 c 0
 316 119 316 123 316 124 c 0
 330 199 336 232 343 273 c 0
 346 290 360 301 376 301 c 0
EndSplineSet
Validated: 1
EndChar

StartChar: Oslash
Encoding: 216 216 121
Width: 360
Flags: W
HStem: -34 67<171.462 233.84> 267 67<110.641 198>
VStem: 25 67<105.565 249.11> 42 76<-123.332 -45.125> 268 67<73.2667 235.312 381.682 440.824>
LayerCount: 2
Fore
SplineSet
42 -98 m 0xd8
 42 -88 58 -52 72 -22 c 0
 79 -6 86 9 89 17 c 1
 49 61 25 129 25 198 c 0xe8
 25 287 71 326 182 333 c 0
 183 333 183 334 184 334 c 0
 185 334 185 334 186 334 c 2
 200 334 l 2
 203 334 203 334 226 332 c 2
 227 332 l 1
 236 353 243 369 249 383 c 0
 256 399 261 412 267 426 c 0
 272 438 284 446 298 446 c 0
 316 446 332 430 332 412 c 0
 332 405 332 405 289 306 c 1
 320 280 335 236 335 171 c 0
 335 48 278 -34 193 -34 c 0
 175 -34 160 -31 145 -23 c 1
 142 -31 128 -61 118 -85 c 0
 113 -96 109 -106 107 -111 c 0
 103 -123 89 -132 76 -132 c 0
 58 -132 42 -116 42 -98 c 0xd8
259 236 m 1
 259 235 237 186 215 137 c 0
 193 88 171 39 171 38 c 0
 178 35 186 33 193 33 c 0
 238 33 268 88 268 171 c 0
 268 198 265 219 259 236 c 1
198 267 m 1
 119 267 92 250 92 198 c 0
 92 161 103 117 120 88 c 1
 149 153 175 214 198 267 c 1
EndSplineSet
Validated: 1
EndChar

StartChar: oslash
Encoding: 248 248 122
Width: 360
Flags: W
HStem: -34 67<171.462 233.84> 267 67<110.641 198>
VStem: 25 67<105.565 249.11> 42 76<-123.332 -45.125> 268 67<73.2667 235.312 381.682 440.824>
LayerCount: 2
Fore
SplineSet
42 -98 m 0xd8
 42 -88 58 -52 72 -22 c 0
 79 -6 86 9 89 17 c 1
 49 61 25 129 25 198 c 0xe8
 25 287 71 326 182 333 c 0
 183 333 183 334 184 334 c 0
 185 334 185 334 186 334 c 2
 200 334 l 2
 203 334 203 334 226 332 c 2
 227 332 l 1
 236 353 243 369 249 383 c 0
 256 399 261 412 267 426 c 0
 272 438 284 446 298 446 c 0
 316 446 332 430 332 412 c 0
 332 405 332 405 289 306 c 1
 320 280 335 236 335 171 c 0
 335 48 278 -34 193 -34 c 0
 175 -34 160 -31 145 -23 c 1
 142 -31 128 -61 118 -85 c 0
 113 -96 109 -106 107 -111 c 0
 103 -123 89 -132 76 -132 c 0
 58 -132 42 -116 42 -98 c 0xd8
259 236 m 1
 259 235 237 186 215 137 c 0
 193 88 171 39 171 38 c 0
 178 35 186 33 193 33 c 0
 238 33 268 88 268 171 c 0
 268 198 265 219 259 236 c 1
198 267 m 1
 119 267 92 250 92 198 c 0
 92 161 103 117 120 88 c 1
 149 153 175 214 198 267 c 1
EndSplineSet
Validated: 1
EndChar

StartChar: SGmark
Encoding: 256 888 123
Width: 795
Flags: W
HStem: -225 59<288.018 500.602> -4 54<207.977 310.113 471.326 585.841> 116 52<520 613> 248 51<206.376 309.315 474.821 580.568> 462 60<297.377 502.306>
VStem: 25 60<40.6405 250.119> 151 53<188.727 243.218> 316 53<54.5914 109.627> 384 54<84.7556 208.522> 713 57<44.4469 258.542>
LayerCount: 2
Fore
SplineSet
641 246 m 1
 605 208 l 1
 586 229 561 243 543 244 c 0
 539 244 535 244 531 244 c 0
 490 244 471 233 452 200 c 0
 442 183 438 164 438 146 c 0
 438 95 473 50 524 50 c 0
 525 50 l 0
 572 50 608 77 613 116 c 1
 520 116 l 1
 520 168 l 1
 670 167 l 1
 670 161 671 156 671 151 c 0
 671 59 600 -4 525 -4 c 0
 488 -4 450 12 418 46 c 0
 397 70 384 110 384 152 c 0
 384 161 385 171 386 180 c 0
 396 243 449 291 517 298 c 0
 521 298 525 299 529 299 c 0
 569 299 614 278 641 246 c 1
327 213 m 1
 307 236 275 248 248 248 c 0
 224 248 204 238 204 218 c 0
 204 187 249 176 288 167 c 0
 308 162 326 157 335 151 c 0
 357 135 369 109 369 83 c 0
 369 60 360 38 341 24 c 0
 319 7 290 -1 259 -1 c 0
 243 -1 227 1 210 6 c 0
 189 12 159 36 137 64 c 1
 173 100 l 1
 203 66 242 48 271 48 c 0
 293 48 310 59 314 80 c 0
 315 85 316 89 316 92 c 0
 316 103 307 107 267 121 c 0
 256 125 245 129 234 132 c 0
 214 138 196 143 183 152 c 0
 161 167 151 188 151 209 c 0
 151 242 175 276 218 293 c 0
 228 297 240 299 253 299 c 0
 294 299 342 279 362 249 c 1
 327 213 l 1
399 462 m 0
 226 461 85 319 85 145 c 0
 85 -26 224 -166 394 -166 c 0
 395 -166 395 -166 396 -166 c 0
 572 -165 713 -23 713 153 c 0
 713 323 572 462 401 462 c 0
 400 462 400 462 399 462 c 0
400 522 m 0
 401 522 401 522 402 522 c 0
 604 522 770 353 770 147 c 0
 770 -58 604 -224 399 -225 c 0
 398 -225 398 -225 397 -225 c 0
 192 -225 25 -60 25 144 c 0
 25 351 193 521 400 522 c 0
EndSplineSet
Validated: 1
EndChar

StartChar: uni2010
Encoding: 271 8208 138
Width: 327
Flags: W
HStem: 116 78
VStem: 25 277<130.047 179.953>
LayerCount: 2
Fore
SplineSet
270 127 m 0
 154 121 73 117 59 116 c 0
 41 116 25 132 25 150 c 0
 25 168 39 182 57 183 c 0
 173 189 254 193 268 194 c 0
 286 194 302 178 302 160 c 0
 302 142 288 128 270 127 c 0
EndSplineSet
EndChar

StartChar: uni2011
Encoding: 272 8209 139
Width: 327
Flags: W
HStem: 116 78
VStem: 25 277<130.047 179.953>
LayerCount: 2
Fore
SplineSet
270 127 m 0
 154 121 73 117 59 116 c 0
 41 116 25 132 25 150 c 0
 25 168 39 182 57 183 c 0
 173 189 254 193 268 194 c 0
 286 194 302 178 302 160 c 0
 302 142 288 128 270 127 c 0
EndSplineSet
EndChar

StartChar: figuredash
Encoding: 273 8210 140
Width: 250
Flags: W
HStem: 120 67<28.8642 221.515>
VStem: 25 200<123.103 181.897>
LayerCount: 2
Fore
SplineSet
193 120 m 0
 141 117 111 117 93 117 c 0
 78 117 71 118 66 118 c 0
 63 118 62 118 59 118 c 0
 41 118 25 134 25 152 c 0
 25 170 39 184 57 185 c 0
 105 187 134 188 152 188 c 0
 168 188 176 187 181 187 c 0
 184 187 186 187 188 187 c 0
 189 187 190 187 191 187 c 0
 209 187 225 171 225 153 c 0
 225 135 211 121 193 120 c 0
EndSplineSet
EndChar

StartChar: endash
Encoding: 274 8211 141
Width: 450
Flags: W
HStem: 116 67<28.4854 272.954> 129 67<176.301 421.515>
LayerCount: 2
Fore
SplineSet
393 129 m 0x40
 306 125 82 116 59 116 c 0
 41 116 25 132 25 150 c 0
 25 168 39 182 57 183 c 0x80
 135 187 245 190 317 193 c 0
 358 194 386 196 391 196 c 0
 409 196 425 180 425 162 c 0
 425 144 411 130 393 129 c 0x40
EndSplineSet
EndChar

StartChar: emdash
Encoding: 275 8212 142
Width: 900
Flags: W
HStem: 115 67<28.4854 271.626> 128 67<629.741 871.515>
LayerCount: 2
Fore
SplineSet
843 128 m 0x40
 775 125 193 115 59 115 c 0
 41 115 25 131 25 149 c 0
 25 167 39 181 57 182 c 0x80
 142 186 485 191 688 193 c 0
 776 194 837 195 841 195 c 0
 859 195 875 179 875 161 c 0
 875 143 861 129 843 128 c 0x40
EndSplineSet
EndChar

StartChar: uni2015
Encoding: 276 8213 143
Width: 900
Flags: W
HStem: 115 67<28.4854 271.626> 128 67<629.741 871.515>
LayerCount: 2
Fore
SplineSet
843 128 m 0x40
 775 125 193 115 59 115 c 0
 41 115 25 131 25 149 c 0
 25 167 39 181 57 182 c 0x80
 142 186 485 191 688 193 c 0
 776 194 837 195 841 195 c 0
 859 195 875 179 875 161 c 0
 875 143 861 129 843 128 c 0x40
EndSplineSet
EndChar

StartChar: uni2016
Encoding: 277 8214 144
Width: 260
Flags: W
HStem: -233 21G<49 67 177 195> 447 20G<64 82 192 210>
VStem: 25 66<-230.05 9.32785> 40 67<221.644 463.707> 153 66<-230.05 9.32785> 168 67<221.644 463.707>
LayerCount: 2
Fore
SplineSet
25 -200 m 0xe0
 25 -199 25 -199 25 -198 c 0xe0
 25 -191 25 -191 37 301 c 0
 38 337 39 377 40 419 c 2
 40 434 l 2
 40 452 55 467 73 467 c 0
 91 467 107 452 107 434 c 0xd0
 100 176 94 -69 91 -200 c 0
 91 -218 76 -233 58 -233 c 0
 40 -233 25 -218 25 -200 c 0xe0
153 -200 m 0xc8
 153 -199 153 -199 153 -198 c 0xc8
 153 -191 153 -191 165 301 c 0
 166 337 167 377 168 419 c 2
 168 434 l 2
 168 452 183 467 201 467 c 0
 219 467 235 452 235 434 c 0xc4
 228 176 222 -69 219 -200 c 0
 219 -218 204 -233 186 -233 c 0
 168 -233 153 -218 153 -200 c 0xc8
EndSplineSet
EndChar

StartChar: underscoredbl
Encoding: 278 8215 145
Width: 322
Flags: W
HStem: -247 66<28.4854 293.515> -127 66<28.4854 293.515>
VStem: 25 272<-242.51 -185.49 -122.51 -65.4898>
LayerCount: 2
Fore
SplineSet
262 -249 m 2
 252 -248 213 -247 185 -247 c 2
 161 -247 l 2
 87 -247 80 -247 59 -246 c 0
 41 -246 25 -231 25 -213 c 0
 25 -195 41 -179 59 -179 c 2
 60 -179 l 2
 70 -180 109 -181 137 -181 c 2
 161 -181 l 2
 235 -181 242 -181 263 -182 c 0
 281 -182 297 -197 297 -215 c 0
 297 -233 281 -249 263 -249 c 2
 262 -249 l 2
262 -129 m 2
 252 -128 213 -127 185 -127 c 2
 161 -127 l 2
 87 -127 80 -127 59 -126 c 0
 41 -126 25 -111 25 -93 c 0
 25 -75 41 -59 59 -59 c 2
 60 -59 l 2
 70 -60 109 -61 137 -61 c 2
 161 -61 l 2
 235 -61 242 -61 263 -62 c 0
 281 -62 297 -77 297 -95 c 0
 297 -113 281 -129 263 -129 c 2
 262 -129 l 2
EndSplineSet
EndChar

StartChar: quoteleft
Encoding: 279 8216 146
Width: 165
Flags: W
HStem: 300 167<75.5721 89.4279>
VStem: 25 115
LayerCount: 2
Fore
SplineSet
106 300 m 0
 93 300 81 308 76 319 c 0
 75 320 29 418 29 419 c 0
 26 423 25 427 25 433 c 0
 25 451 41 467 59 467 c 0
 72 467 84 459 89 448 c 0
 90 447 136 349 136 348 c 0
 139 344 140 340 140 334 c 0
 140 316 124 300 106 300 c 0
EndSplineSet
EndChar

StartChar: quoteright
Encoding: 280 8217 147
Width: 165
Flags: W
HStem: 300 167<75.5721 89.4279>
VStem: 25 115
LayerCount: 2
Fore
SplineSet
106 467 m 0
 124 467 140 451 140 433 c 0
 140 427 139 423 136 419 c 0
 136 418 90 320 89 319 c 0
 84 308 72 300 59 300 c 0
 41 300 25 316 25 334 c 0
 25 340 26 344 29 348 c 0
 29 349 75 447 76 448 c 0
 81 459 93 467 106 467 c 0
EndSplineSet
EndChar

StartChar: quotesinglbase
Encoding: 281 8218 148
Width: 165
Flags: W
HStem: -91 167<75.5721 89.4279>
VStem: 25 115
LayerCount: 2
Fore
SplineSet
106 76 m 0
 124 76 140 60 140 42 c 0
 140 36 139 32 136 28 c 0
 136 27 90 -71 89 -72 c 0
 84 -83 72 -91 59 -91 c 0
 41 -91 25 -75 25 -57 c 0
 25 -51 26 -47 29 -43 c 0
 29 -42 75 56 76 57 c 0
 81 68 93 76 106 76 c 0
EndSplineSet
EndChar

StartChar: quotereversed
Encoding: 282 8219 149
Width: 165
Flags: W
HStem: 300 167<75.5721 89.4279>
VStem: 25 115
LayerCount: 2
Fore
SplineSet
106 300 m 0
 93 300 81 308 76 319 c 0
 75 320 29 418 29 419 c 0
 26 423 25 427 25 433 c 0
 25 451 41 467 59 467 c 0
 72 467 84 459 89 448 c 0
 90 447 136 349 136 348 c 0
 139 344 140 340 140 334 c 0
 140 316 124 300 106 300 c 0
EndSplineSet
EndChar

StartChar: quotedblleft
Encoding: 283 8220 150
Width: 275
Flags: W
HStem: 300 167<75.5721 89.4279 185.572 199.428>
VStem: 25 225
LayerCount: 2
Fore
SplineSet
106 300 m 0
 93 300 81 308 76 319 c 0
 75 320 29 418 29 419 c 0
 26 423 25 427 25 433 c 0
 25 451 41 467 59 467 c 0
 72 467 84 459 89 448 c 0
 90 447 136 349 136 348 c 0
 139 344 140 340 140 334 c 0
 140 316 124 300 106 300 c 0
216 300 m 0
 203 300 191 308 186 319 c 0
 185 320 139 418 139 419 c 0
 136 423 135 427 135 433 c 0
 135 451 151 467 169 467 c 0
 182 467 194 459 199 448 c 0
 200 447 246 349 246 348 c 0
 249 344 250 340 250 334 c 0
 250 316 234 300 216 300 c 0
EndSplineSet
EndChar

StartChar: quotedblright
Encoding: 284 8221 151
Width: 276
Flags: W
HStem: 300 167<59 112 186.239 202.761>
VStem: 82 64<409.159 463.488> 186 65<402.27 463.515>
LayerCount: 2
Fore
SplineSet
112 467 m 0
 130 467 146 451 146 433 c 0
 146 420 120 375 106 350 c 0
 101 342 98 336 97 334 c 0
 83 305 77 300 59 300 c 0
 41 300 25 316 25 334 c 2
 25 335 l 2
 25 342 34 357 46 379 c 0
 57 398 70 423 82 449 c 0
 88 460 99 467 112 467 c 0
251 433 m 0
 251 426 225 364 203 320 c 0
 198 308 186 300 172 300 c 0
 154 300 138 316 138 334 c 0
 138 342 145 357 156 380 c 0
 164 397 175 419 186 447 c 0
 191 459 203 467 217 467 c 0
 235 467 251 451 251 433 c 0
EndSplineSet
EndChar

StartChar: quotedblbase
Encoding: 285 8222 152
Width: 276
Flags: W
HStem: -78 167<59 112 186.239 202.761>
VStem: 82 64<31.1588 85.4877> 186 65<24.2703 85.5146>
LayerCount: 2
Fore
SplineSet
112 89 m 0
 130 89 146 73 146 55 c 0
 146 42 120 -3 106 -28 c 0
 101 -36 98 -42 97 -44 c 0
 83 -73 77 -78 59 -78 c 0
 41 -78 25 -62 25 -44 c 2
 25 -43 l 2
 25 -36 34 -21 46 1 c 0
 57 20 70 45 82 71 c 0
 88 82 99 89 112 89 c 0
251 55 m 0
 251 48 225 -14 203 -58 c 0
 198 -70 186 -78 172 -78 c 0
 154 -78 138 -62 138 -44 c 0
 138 -36 145 -21 156 2 c 0
 164 19 175 41 186 69 c 0
 191 81 203 89 217 89 c 0
 235 89 251 73 251 55 c 0
EndSplineSet
EndChar

StartChar: uni201F
Encoding: 286 8223 153
Width: 275
Flags: W
HStem: 300 167<75.5721 89.4279 185.572 199.428>
VStem: 25 225
LayerCount: 2
Fore
SplineSet
106 300 m 0
 93 300 81 308 76 319 c 0
 75 320 29 418 29 419 c 0
 26 423 25 427 25 433 c 0
 25 451 41 467 59 467 c 0
 72 467 84 459 89 448 c 0
 90 447 136 349 136 348 c 0
 139 344 140 340 140 334 c 0
 140 316 124 300 106 300 c 0
216 300 m 0
 203 300 191 308 186 319 c 0
 185 320 139 418 139 419 c 0
 136 423 135 427 135 433 c 0
 135 451 151 467 169 467 c 0
 182 467 194 459 199 448 c 0
 200 447 246 349 246 348 c 0
 249 344 250 340 250 334 c 0
 250 316 234 300 216 300 c 0
EndSplineSet
EndChar

StartChar: bullet
Encoding: 287 8226 154
Width: 118
Flags: W
HStem: 112 66<28.1243 89.8757>
VStem: 25 68<115.293 174.707>
LayerCount: 2
Fore
SplineSet
25 145 m 0
 25 163 41 178 59 178 c 0
 77 178 93 163 93 145 c 0
 93 127 77 112 59 112 c 0
 41 112 25 127 25 145 c 0
EndSplineSet
EndChar

StartChar: onedotenleader
Encoding: 288 8228 155
Width: 118
Flags: W
HStem: 33 66<28.1243 89.8757>
VStem: 25 68<36.2926 95.7074>
LayerCount: 2
Fore
SplineSet
25 66 m 0
 25 84 41 99 59 99 c 0
 77 99 93 84 93 66 c 0
 93 48 77 33 59 33 c 0
 41 33 25 48 25 66 c 0
EndSplineSet
EndChar

StartChar: twodotenleader
Encoding: 289 8229 156
Width: 216
Flags: W
HStem: 33 66<28.1243 89.8757 126.124 187.876>
VStem: 25 68<36.2926 95.7074> 123 68<36.2926 95.7074>
LayerCount: 2
Fore
SplineSet
25 66 m 0
 25 84 41 99 59 99 c 0
 77 99 93 84 93 66 c 0
 93 48 77 33 59 33 c 0
 41 33 25 48 25 66 c 0
123 66 m 0
 123 84 139 99 157 99 c 0
 175 99 191 84 191 66 c 0
 191 48 175 33 157 33 c 0
 139 33 123 48 123 66 c 0
EndSplineSet
EndChar

StartChar: ellipsis
Encoding: 290 8230 157
Width: 314
Flags: W
HStem: 33 66<28.1243 89.8757 126.124 187.876 224.124 285.876>
VStem: 25 68<36.2926 95.7074> 123 68<36.2926 95.7074> 221 68<36.2926 95.7074>
CounterMasks: 1 70
LayerCount: 2
Fore
SplineSet
25 66 m 0
 25 84 41 99 59 99 c 0
 77 99 93 84 93 66 c 0
 93 48 77 33 59 33 c 0
 41 33 25 48 25 66 c 0
123 66 m 0
 123 84 139 99 157 99 c 0
 175 99 191 84 191 66 c 0
 191 48 175 33 157 33 c 0
 139 33 123 48 123 66 c 0
221 66 m 0
 221 84 237 99 255 99 c 0
 273 99 289 84 289 66 c 0
 289 48 273 33 255 33 c 0
 237 33 221 48 221 66 c 0
EndSplineSet
EndChar

StartChar: uni2027
Encoding: 291 8231 158
Width: 118
Flags: W
HStem: 112 66<28.1243 89.8757>
VStem: 25 68<115.293 174.707>
LayerCount: 2
Fore
SplineSet
25 145 m 0
 25 163 41 178 59 178 c 0
 77 178 93 163 93 145 c 0
 93 127 77 112 59 112 c 0
 41 112 25 127 25 145 c 0
EndSplineSet
EndChar

StartChar: perthousand
Encoding: 293 8240 160
Width: 721
Flags: W
HStem: 0 70<334 378.141 570 614.141> 144 67<350.127 392.706 586.127 628.706> 201 67<83.4024 122.254> 447 20G<117.5 169 358 373>
VStem: 25 58<246 335.381> 149 67<299.209 399.659> 266 67<67.0406 128.951> 393 67<82.6147 142.483> 502 67<67.0406 128.951> 629 67<82.6147 142.483>
LayerCount: 2
Fore
SplineSet
393 141 m 1xdfc0
 385 144 384 144 379 144 c 0
 356 144 333 109 333 73 c 0
 333 69 333 69 334 68 c 0
 334 67 334 67 342 67 c 0
 344 67 344 67 359 70 c 2
 360 70 l 2
 361 71 361 71 362 71 c 0
 377 80 393 113 393 136 c 2
 393 141 l 1xdfc0
83 285 m 0
 83 274 90 268 104 268 c 0xbfc0
 109 268 118 270 119 271 c 0
 127 286 149 363 149 378 c 0
 149 382 148 387 146 400 c 1
 131 395 83 308 83 285 c 0
364 467 m 0
 382 467 398 452 398 434 c 0
 398 428 396 422 393 417 c 0
 392 415 334 316 276 217 c 0
 218 118 160 19 159 17 c 0
 153 7 142 0 130 0 c 0
 112 0 96 16 96 34 c 0
 96 38 97 43 101 50 c 0
 102 52 160 151 218 250 c 0
 276 349 334 448 335 450 c 0
 341 460 352 467 364 467 c 0
460 136 m 0
 460 58 410 0 342 0 c 0
 297 0 266 30 266 73 c 0
 266 148 318 211 379 211 c 0xdfc0
 430 211 460 183 460 136 c 0
148 467 m 0
 190 467 216 433 216 378 c 0
 216 331 200 274 176 236 c 0
 163 214 136 201 104 201 c 0xbfc0
 59 201 25 228 25 264 c 0
 25 364 87 467 148 467 c 0
629 141 m 1
 621 144 620 144 615 144 c 0xdfc0
 592 144 569 109 569 73 c 0
 569 69 569 69 570 68 c 0
 570 67 570 67 578 67 c 0
 580 67 580 67 595 70 c 2
 596 70 l 2
 597 71 597 71 598 71 c 0
 613 80 629 113 629 136 c 2
 629 141 l 1
696 136 m 0
 696 58 646 0 578 0 c 0
 533 0 502 30 502 73 c 0
 502 148 554 211 615 211 c 0
 666 211 696 183 696 136 c 0
EndSplineSet
EndChar

StartChar: uni2031
Encoding: 294 8241 161
Width: 959
Flags: W
HStem: 0 70<334 378.141 570 614.141 808 852.141> 144 67<350.127 392.706 586.127 628.706 824.127 866.706> 201 67<83.4024 122.254> 447 20G<117.5 169 358 373>
VStem: 25 58<246 335.381> 149 67<299.209 399.659> 266 67<67.0406 128.951> 393 67<82.6147 142.483> 502 67<67.0406 128.951> 629 67<82.6147 142.483> 740 67<67.0406 128.951> 867 67<82.6147 142.483>
LayerCount: 2
Fore
SplineSet
393 141 m 1xdff0
 385 144 384 144 379 144 c 0
 356 144 333 109 333 73 c 0
 333 69 333 69 334 68 c 0
 334 67 334 67 342 67 c 0
 344 67 344 67 359 70 c 2
 360 70 l 2
 361 71 361 71 362 71 c 0
 377 80 393 113 393 136 c 2
 393 141 l 1xdff0
83 285 m 0
 83 274 90 268 104 268 c 0xbff0
 109 268 118 270 119 271 c 0
 127 286 149 363 149 378 c 0
 149 382 148 387 146 400 c 1
 131 395 83 308 83 285 c 0
364 467 m 0
 382 467 398 452 398 434 c 0
 398 428 396 422 393 417 c 0
 392 415 334 316 276 217 c 0
 218 118 160 19 159 17 c 0
 153 7 142 0 130 0 c 0
 112 0 96 16 96 34 c 0
 96 38 97 43 101 50 c 0
 102 52 160 151 218 250 c 0
 276 349 334 448 335 450 c 0
 341 460 352 467 364 467 c 0
460 136 m 0
 460 58 410 0 342 0 c 0
 297 0 266 30 266 73 c 0
 266 148 318 211 379 211 c 0xdff0
 430 211 460 183 460 136 c 0
148 467 m 0
 190 467 216 433 216 378 c 0
 216 331 200 274 176 236 c 0
 163 214 136 201 104 201 c 0xbff0
 59 201 25 228 25 264 c 0
 25 364 87 467 148 467 c 0
629 141 m 1
 621 144 620 144 615 144 c 0xdff0
 592 144 569 109 569 73 c 0
 569 69 569 69 570 68 c 0
 570 67 570 67 578 67 c 0
 580 67 580 67 595 70 c 2
 596 70 l 2
 597 71 597 71 598 71 c 0
 613 80 629 113 629 136 c 2
 629 141 l 1
696 136 m 0
 696 58 646 0 578 0 c 0
 533 0 502 30 502 73 c 0
 502 148 554 211 615 211 c 0
 666 211 696 183 696 136 c 0
867 141 m 1
 859 144 858 144 853 144 c 0
 830 144 807 109 807 73 c 0
 807 69 807 69 808 68 c 0
 808 67 808 67 816 67 c 0
 818 67 818 67 833 70 c 2
 834 70 l 2
 835 71 835 71 836 71 c 0
 851 80 867 113 867 136 c 2
 867 141 l 1
934 136 m 0
 934 58 884 0 816 0 c 0
 771 0 740 30 740 73 c 0
 740 148 792 211 853 211 c 0
 904 211 934 183 934 136 c 0
EndSplineSet
EndChar

StartChar: minute
Encoding: 295 8242 162
Width: 165
Flags: W
HStem: 300 167<75.5721 89.4279>
VStem: 25 115
LayerCount: 2
Fore
SplineSet
106 467 m 0
 124 467 140 451 140 433 c 0
 140 427 139 423 136 419 c 0
 136 418 90 320 89 319 c 0
 84 308 72 300 59 300 c 0
 41 300 25 316 25 334 c 0
 25 340 26 344 29 348 c 0
 29 349 75 447 76 448 c 0
 81 459 93 467 106 467 c 0
EndSplineSet
EndChar

StartChar: second
Encoding: 296 8243 163
Width: 276
Flags: W
HStem: 300 167<59 112 186.239 202.761>
VStem: 82 64<409.159 463.488> 186 65<402.27 463.515>
LayerCount: 2
Fore
SplineSet
112 467 m 0
 130 467 146 451 146 433 c 0
 146 420 120 375 106 350 c 0
 101 342 98 336 97 334 c 0
 83 305 77 300 59 300 c 0
 41 300 25 316 25 334 c 2
 25 335 l 2
 25 342 34 357 46 379 c 0
 57 398 70 423 82 449 c 0
 88 460 99 467 112 467 c 0
251 433 m 0
 251 426 225 364 203 320 c 0
 198 308 186 300 172 300 c 0
 154 300 138 316 138 334 c 0
 138 342 145 357 156 380 c 0
 164 397 175 419 186 447 c 0
 191 459 203 467 217 467 c 0
 235 467 251 451 251 433 c 0
EndSplineSet
EndChar

StartChar: uni2034
Encoding: 297 8244 164
Width: 382
Flags: W
HStem: 300 167<59 112 186.239 202.761 292.572 306.428>
VStem: 82 64<409.159 463.488> 186 65<402.27 463.515>
LayerCount: 2
Fore
SplineSet
112 467 m 0
 130 467 146 451 146 433 c 0
 146 420 120 375 106 350 c 0
 101 342 98 336 97 334 c 0
 83 305 77 300 59 300 c 0
 41 300 25 316 25 334 c 2
 25 335 l 2
 25 342 34 357 46 379 c 0
 57 398 70 423 82 449 c 0
 88 460 99 467 112 467 c 0
251 433 m 0
 251 426 225 364 203 320 c 0
 198 308 186 300 172 300 c 0
 154 300 138 316 138 334 c 0
 138 342 145 357 156 380 c 0
 164 397 175 419 186 447 c 0
 191 459 203 467 217 467 c 0
 235 467 251 451 251 433 c 0
323 467 m 0
 341 467 357 451 357 433 c 0
 357 427 356 423 353 419 c 0
 353 418 307 320 306 319 c 0
 301 308 289 300 276 300 c 0
 258 300 242 316 242 334 c 0
 242 340 243 344 246 348 c 0
 246 349 292 447 293 448 c 0
 298 459 310 467 323 467 c 0
EndSplineSet
EndChar

StartChar: uni2035
Encoding: 298 8245 165
Width: 165
Flags: W
HStem: 300 167<75.5721 89.4279>
VStem: 25 115
LayerCount: 2
Fore
SplineSet
106 300 m 0
 93 300 81 308 76 319 c 0
 75 320 29 418 29 419 c 0
 26 423 25 427 25 433 c 0
 25 451 41 467 59 467 c 0
 72 467 84 459 89 448 c 0
 90 447 136 349 136 348 c 0
 139 344 140 340 140 334 c 0
 140 316 124 300 106 300 c 0
EndSplineSet
EndChar

StartChar: uni2036
Encoding: 299 8246 166
Width: 275
Flags: W
HStem: 300 167<75.5721 89.4279 185.572 199.428>
VStem: 25 225
LayerCount: 2
Fore
SplineSet
106 300 m 0
 93 300 81 308 76 319 c 0
 75 320 29 418 29 419 c 0
 26 423 25 427 25 433 c 0
 25 451 41 467 59 467 c 0
 72 467 84 459 89 448 c 0
 90 447 136 349 136 348 c 0
 139 344 140 340 140 334 c 0
 140 316 124 300 106 300 c 0
216 300 m 0
 203 300 191 308 186 319 c 0
 185 320 139 418 139 419 c 0
 136 423 135 427 135 433 c 0
 135 451 151 467 169 467 c 0
 182 467 194 459 199 448 c 0
 200 447 246 349 246 348 c 0
 249 344 250 340 250 334 c 0
 250 316 234 300 216 300 c 0
EndSplineSet
EndChar

StartChar: uni2037
Encoding: 300 8247 167
Width: 386
Flags: W
HStem: 300 167<75.5721 89.4279 185.572 199.428 296.572 310.428>
LayerCount: 2
Fore
SplineSet
106 300 m 0
 93 300 81 308 76 319 c 0
 75 320 29 418 29 419 c 0
 26 423 25 427 25 433 c 0
 25 451 41 467 59 467 c 0
 72 467 84 459 89 448 c 0
 90 447 136 349 136 348 c 0
 139 344 140 340 140 334 c 0
 140 316 124 300 106 300 c 0
216 300 m 0
 203 300 191 308 186 319 c 0
 185 320 139 418 139 419 c 0
 136 423 135 427 135 433 c 0
 135 451 151 467 169 467 c 0
 182 467 194 459 199 448 c 0
 200 447 246 349 246 348 c 0
 249 344 250 340 250 334 c 0
 250 316 234 300 216 300 c 0
327 300 m 0
 314 300 302 308 297 319 c 0
 296 320 250 418 250 419 c 0
 247 423 246 427 246 433 c 0
 246 451 262 467 280 467 c 0
 293 467 305 459 310 448 c 0
 311 447 357 349 357 348 c 0
 360 344 361 340 361 334 c 0
 361 316 345 300 327 300 c 0
EndSplineSet
EndChar

StartChar: uni2038
Encoding: 301 8248 168
Width: 225
Flags: W
HStem: -82 167<135.28 166.842>
VStem: 25 71<-69 -24.7708> 132 68<-78.1358 -48 -47.9993 -13.9994>
LayerCount: 2
Fore
SplineSet
166 -82 m 0
 149 -82 132 -66 132 -50 c 0
 128 -33 126 -25 123 -13 c 1
 108 -36 101 -47 96 -61 c 0
 93 -69 93 -69 85 -69 c 1
 80 -77 69 -82 58 -82 c 0
 40 -82 25 -67 25 -49 c 0
 25 -41 27 -34 31 -28 c 0
 39 -18 49 -2 60 14 c 0
 76 38 93 64 106 74 c 0
 114 82 122 85 134 85 c 0
 161 85 172 69 186 9 c 0
 191 -16 197 -37 199 -45 c 0
 200 -47 200 -48 200 -48 c 0
 200 -66 184 -82 166 -82 c 0
EndSplineSet
EndChar

StartChar: guilsinglleft
Encoding: 302 8249 169
Width: 299
Flags: W
HStem: 0 84<174.447 237.53> 280 20G<236.5 250>
VStem: 25 249
LayerCount: 2
Fore
SplineSet
241 300 m 0
 259 300 274 285 274 267 c 0
 274 255 268 244 259 238 c 0
 230 218 199 202 171 188 c 0
 141 173 114 159 95 144 c 1
 107 128 132 113 197 84 c 0
 253 59 259 54 259 33 c 0
 259 15 244 0 226 0 c 0
 208 0 101 52 69 76 c 0
 40 97 25 122 25 149 c 0
 25 182 44 198 149 254 c 0
 171 265 183 272 202 283 c 0
 226 298 232 300 241 300 c 0
EndSplineSet
EndChar

StartChar: guilsinglright
Encoding: 303 8250 170
Width: 271
Flags: W
HStem: 0 21G<51 66.5> 280 20G<49 63>
VStem: 27 219
LayerCount: 2
Fore
SplineSet
27 33 m 0
 27 58 65 82 103 106 c 0
 132 124 162 143 176 163 c 1
 157 178 132 189 106 202 c 0
 84 213 61 225 40 238 c 0
 31 243 25 255 25 267 c 0
 25 285 40 300 58 300 c 0
 68 300 70 299 81 292 c 0
 91 286 107 276 142 259 c 0
 228 215 246 200 246 167 c 0
 246 129 223 103 139 49 c 0
 132 45 123 38 113 31 c 0
 94 17 73 0 60 0 c 0
 42 0 27 15 27 33 c 0
EndSplineSet
EndChar

StartChar: uni203E
Encoding: 304 8254 171
Width: 330
Flags: W
HStem: 524 67<28.2926 300.327>
VStem: 25 280<527.012 584.988>
LayerCount: 2
Fore
SplineSet
25 557 m 0
 25 575 40 591 58 591 c 2
 272 588 l 2
 290 588 305 573 305 555 c 0
 305 537 289 521 271 521 c 2
 58 524 l 2
 40 524 25 539 25 557 c 0
EndSplineSet
EndChar

StartChar: uni2043
Encoding: 305 8259 172
Width: 327
Flags: W
HStem: 116 78
VStem: 25 277<130.047 179.953>
LayerCount: 2
Fore
SplineSet
270 127 m 0
 154 121 73 117 59 116 c 0
 41 116 25 132 25 150 c 0
 25 168 39 182 57 183 c 0
 173 189 254 193 268 194 c 0
 286 194 302 178 302 160 c 0
 302 142 288 128 270 127 c 0
EndSplineSet
EndChar

StartChar: fraction
Encoding: 306 8260 173
Width: 340
Flags: W
HStem: 447 20G<274 290>
VStem: 25 65<-107.515 -44.8638> 250 65<403.911 463.515>
LayerCount: 2
Fore
SplineSet
281 467 m 0
 299 467 315 451 315 433 c 0
 315 426 307 407 198 158 c 0
 128 -1 107 -47 90 -90 c 0
 86 -102 72 -111 59 -111 c 0
 41 -111 25 -95 25 -77 c 0
 25 -73 142 197 207 348 c 0
 231 404 249 444 250 447 c 0
 255 459 267 467 281 467 c 0
EndSplineSet
EndChar

StartChar: uni204E
Encoding: 307 8270 174
Width: 268
Flags: W
HStem: 133 72<30.6954 77.7649> 141 65<188.462 239.515>
VStem: 100 67<190 257.515>
LayerCount: 2
Fore
SplineSet
58 205 m 0xa0
 66 205 72 201 80 197 c 0
 86 194 92 191 100 188 c 1
 100 230 l 2
 101 247 115 261 133 261 c 0
 151 261 167 245 167 227 c 2
 167 190 l 1
 190 201 203 206 209 206 c 0
 227 206 243 190 243 172 c 0
 243 158 235 146 223 141 c 0x60
 198 131 198 131 188 126 c 1
 217 97 l 2
 223 91 227 82 227 73 c 0
 227 55 212 40 194 40 c 0
 184 40 176 43 170 49 c 2
 133 87 l 1
 129 83 120 72 113 63 c 0
 109 58 106 53 105 52 c 0
 99 44 90 40 79 40 c 0
 61 40 46 55 46 73 c 0
 46 87 47 89 78 125 c 1
 73 127 67 130 61 133 c 0xa0
 55 136 49 139 44 141 c 0x60
 33 146 25 158 25 171 c 0
 25 189 40 205 58 205 c 0xa0
EndSplineSet
EndChar

StartChar: uni2053
Encoding: 308 8275 175
Width: 432
Flags: W
HStem: 133 67<116.495 185.204>
LayerCount: 2
Fore
SplineSet
258 113 m 1
 297 116 314 144 329 168 c 0
 341 188 352 206 373 206 c 0
 391 206 407 190 407 172 c 0
 407 160 400 151 393 143 c 0
 389 139 386 135 384 130 c 0
 344 70 313 49 261 46 c 2
 259 46 l 2
 258 46 258 46 257 45 c 0
 230 45 216 67 202 89 c 0
 188 111 175 133 148 133 c 0
 127 133 115 113 103 92 c 0
 91 71 79 50 58 50 c 0
 40 50 25 65 25 83 c 0
 25 93 30 103 40 118 c 0
 41 118 41 118 41 119 c 0
 78 180 105 200 148 200 c 0
 188 200 215 181 244 133 c 0
 251 122 254 117 258 113 c 1
EndSplineSet
EndChar

StartChar: uni2057
Encoding: 309 8279 176
Width: 483
Flags: W
HStem: 300 167<59 112 186.239 202.761 292.572 306.428 393.572 407.428>
VStem: 82 64<409.159 463.488> 186 65<402.27 463.515>
LayerCount: 2
Fore
SplineSet
112 467 m 0
 130 467 146 451 146 433 c 0
 146 420 120 375 106 350 c 0
 101 342 98 336 97 334 c 0
 83 305 77 300 59 300 c 0
 41 300 25 316 25 334 c 2
 25 335 l 2
 25 342 34 357 46 379 c 0
 57 398 70 423 82 449 c 0
 88 460 99 467 112 467 c 0
251 433 m 0
 251 426 225 364 203 320 c 0
 198 308 186 300 172 300 c 0
 154 300 138 316 138 334 c 0
 138 342 145 357 156 380 c 0
 164 397 175 419 186 447 c 0
 191 459 203 467 217 467 c 0
 235 467 251 451 251 433 c 0
323 467 m 0
 341 467 357 451 357 433 c 0
 357 427 356 423 353 419 c 0
 353 418 307 320 306 319 c 0
 301 308 289 300 276 300 c 0
 258 300 242 316 242 334 c 0
 242 340 243 344 246 348 c 0
 246 349 292 447 293 448 c 0
 298 459 310 467 323 467 c 0
424 467 m 0
 442 467 458 451 458 433 c 0
 458 427 457 423 454 419 c 0
 454 418 408 320 407 319 c 0
 402 308 390 300 377 300 c 0
 359 300 343 316 343 334 c 0
 343 340 344 344 347 348 c 0
 347 349 393 447 394 448 c 0
 399 459 411 467 424 467 c 0
EndSplineSet
EndChar

StartChar: uni205D
Encoding: 310 8285 177
Width: 120
Flags: W
HStem: 0 66<28.1243 89.8757> 103 66<28.1243 89.8757> 201 66<30.1243 91.8757>
VStem: 25 68<3.2926 62.7074 106.293 165.707 205.421 262.579>
LayerCount: 2
Fore
SplineSet
25 136 m 0
 25 154 41 169 59 169 c 0
 77 169 93 154 93 136 c 0
 93 118 77 103 59 103 c 0
 41 103 25 118 25 136 c 0
25 33 m 0
 25 51 41 66 59 66 c 0
 77 66 93 51 93 33 c 0
 93 15 77 0 59 0 c 0
 41 0 25 15 25 33 c 0
27 234 m 0
 27 252 43 267 61 267 c 0
 79 267 95 252 95 234 c 0
 95 216 79 201 61 201 c 0
 43 201 27 216 27 234 c 0
EndSplineSet
EndChar

StartChar: uni2070
Encoding: 317 8304 184
Width: 242
Flags: W
HStem: 200 45<82.6889 137.096> 467 44<92.0059 160.314>
VStem: 25 44<258.103 444.467> 172 45<293.785 456.641>
LayerCount: 2
Fore
SplineSet
25 337 m 0
 25 449 61 511 125 511 c 0
 185 511 217 471 217 395 c 0
 217 288 170 200 113 200 c 0
 71 200 32 239 27 285 c 0
 25 295 25 306 25 337 c 0
121 467 m 2
 88 467 69 420 69 337 c 0
 69 321 70 305 71 291 c 0
 74 269 95 245 113 245 c 0
 141 245 172 324 172 395 c 0
 172 443 156 467 125 467 c 2
 121 467 l 2
EndSplineSet
EndChar

StartChar: uni2071
Encoding: 318 8305 185
Width: 108
Flags: W
HStem: 467 44<39.1152 82.8848>
VStem: 25 44<200.162 372.557> 39 44<225.01 398.526 467.115 510.885>
LayerCount: 2
Fore
SplineSet
39 489 m 0xa0
 39 501 49 511 61 511 c 0
 73 511 83 501 83 489 c 0
 83 477 73 467 61 467 c 0
 49 467 39 477 39 489 c 0xa0
56 400 m 0
 68 400 79 389 79 377 c 0
 72 281 71 263 69 221 c 0
 68 209 59 200 47 200 c 0
 35 200 25 211 25 223 c 0xc0
 28 266 30 301 32 338 c 0
 33 351 33 365 34 379 c 0
 35 391 44 400 56 400 c 0
EndSplineSet
EndChar

StartChar: uni2074
Encoding: 319 8308 186
Width: 256
Flags: W
HStem: 311 46<71.1205 103.76> 327 74<165.402 196.621>
VStem: 25 51<391.201 509.406> 25 44<356.834 499.103> 97 45<200.315 309.124> 118 45<379.987 510.718>
LayerCount: 2
Fore
SplineSet
76 489 m 0xa0
 76 485 75 463 73 440 c 0
 71 417 69 395 69 391 c 0
 69 374 71 363 74 357 c 1
 75 357 l 2x90
 77 356 77 356 82 356 c 0
 90 356 98 357 108 360 c 0
 109 361 109 362 109 365 c 0
 115 432 116 447 118 491 c 0
 119 503 128 511 140 511 c 0
 152 511 163 501 163 489 c 0
 163 487 161 462 154 376 c 1
 172 384 182 390 189 394 c 0
 198 399 202 401 209 401 c 0
 221 401 231 391 231 379 c 0
 231 371 227 363 220 359 c 0
 201 348 177 337 150 327 c 0x54
 149 326 143 253 142 225 c 2
 142 221 l 2
 141 209 131 200 120 200 c 0
 108 200 97 211 97 223 c 0
 97 229 97 229 104 313 c 1
 99 312 86 311 82 311 c 0
 41 311 25 334 25 391 c 0x98
 25 412 26 424 31 490 c 0
 32 502 41 511 53 511 c 0
 65 511 76 501 76 489 c 0xa0
EndSplineSet
EndChar

StartChar: uni2075
Encoding: 320 8309 187
Width: 240
Flags: W
HStem: 194 45<66.7023 155.439> 469 44<81.2856 214.298>
VStem: 33 44<387.269 467.039> 164 45<245.633 313.113>
LayerCount: 2
Fore
SplineSet
111 513 m 2
 115 513 l 2
 118 513 121 513 124 513 c 0
 126 513 128 513 130 513 c 0
 151 513 152 512 174 511 c 0
 176 511 179 511 182 511 c 2
 188 511 l 2
 189 511 190 510 191 510 c 0
 192 510 193 510 194 510 c 0
 206 509 215 500 215 488 c 0
 215 476 205 465 193 465 c 2
 190 465 l 2
 157 468 129 469 111 469 c 0
 99 469 87 468 81 467 c 1
 78 447 77 442 77 435 c 0
 77 398 85 388 137 367 c 0
 192 344 209 327 209 293 c 0
 209 233 172 194 117 194 c 0
 71 194 25 219 25 245 c 0
 25 257 35 267 47 267 c 0
 56 267 64 262 67 255 c 0
 79 246 100 239 117 239 c 0
 148 239 163 256 164 291 c 2
 164 293 l 2
 164 308 146 314 123 323 c 0
 100 332 72 343 53 366 c 0
 39 382 33 403 33 435 c 0
 33 454 38 482 43 493 c 0
 50 508 67 513 111 513 c 2
EndSplineSet
EndChar

StartChar: uni2076
Encoding: 321 8310 188
Width: 201
Flags: W
HStem: 200 45<71.2376 128.434>
VStem: 131 45<248.433 317.703>
LayerCount: 2
Fore
SplineSet
159 489 m 0
 159 489 157 483 152 473 c 0
 143 454 126 418 107 373 c 1
 146 360 176 317 176 275 c 0
 176 233 141 200 97 200 c 0
 60 200 25 233 25 269 c 0
 25 295 58 379 116 499 c 0
 119 506 127 511 136 511 c 0
 148 511 159 501 159 489 c 0
97 245 m 0
 116 245 131 258 131 275 c 0
 131 298 111 326 90 331 c 1
 77 299 71 282 69 270 c 1
 73 254 82 245 97 245 c 0
EndSplineSet
EndChar

StartChar: uni2077
Encoding: 322 8311 189
Width: 217
Flags: W
HStem: 454 57<45.1086 47 47.0007 144.757>
VStem: 113 45<200.314 332.138> 147 45<326.262 467>
LayerCount: 2
Fore
SplineSet
147 467 m 1xa0
 99 463 61 457 50 455 c 0
 48 455 47 454 47 454 c 0
 35 454 25 465 25 477 c 0
 25 488 32 497 43 499 c 0
 88 506 132 511 155 511 c 0
 177 511 190 503 191 488 c 2
 191 471 l 2
 191 469 192 466 192 464 c 0
 192 462 192 460 192 458 c 0xa0
 192 401 182 354 173 309 c 0
 167 279 161 250 158 220 c 0
 157 209 147 200 136 200 c 0
 124 200 113 211 113 223 c 0xc0
 113 257 122 298 130 340 c 0
 138 382 147 424 147 458 c 2
 147 467 l 1xa0
EndSplineSet
EndChar

StartChar: uni2078
Encoding: 323 8312 190
Width: 204
Flags: W
HStem: 200 45<78.675 133.402> 467 44<72.5449 117>
VStem: 25 44<255.811 313.166 392.555 454.246> 134 45<245.022 295.837>
LayerCount: 2
Fore
SplineSet
117 467 m 1
 103 467 76 456 72 449 c 0
 70 444 69 438 69 431 c 0
 69 417 74 404 83 392 c 1
 105 426 115 447 117 467 c 1
91 321 m 1
 91 317 87 310 82 302 c 0
 77 294 72 286 72 282 c 2
 72 279 l 2
 75 260 95 245 118 245 c 0
 130 245 134 247 134 254 c 0
 134 275 129 283 92 320 c 0
 91 320 91 320 91 321 c 1
118 200 m 0
 69 200 27 237 27 282 c 0
 27 298 32 309 58 353 c 1
 36 377 25 402 25 431 c 0
 25 442 26 452 29 461 c 0
 36 489 75 511 117 511 c 0
 145 511 163 497 163 474 c 0
 163 443 150 411 115 359 c 1
 123 351 l 2
 166 312 179 290 179 254 c 0
 179 221 155 200 118 200 c 0
EndSplineSet
EndChar

StartChar: uni2079
Encoding: 324 8313 191
Width: 227
Flags: W
HStem: 361 40<69.6861 130.401> 467 44<75.4515 135.362>
VStem: 25 44<401.318 460.526> 140 45<200.282 350.427> 157 45<223.573 386.58>
LayerCount: 2
Fore
SplineSet
140 223 m 0xf0
 140 235 144 261 148 287 c 0
 152 313 157 339 157 351 c 0xe8
 157 371 156 378 154 387 c 1
 129 368 112 361 91 361 c 0
 51 361 25 386 25 425 c 0
 25 472 62 511 108 511 c 0
 142 511 170 487 185 445 c 2xf0
 192 424 l 2
 199 400 202 376 202 351 c 0
 202 350 l 0xe8
 202 323 202 323 186 224 c 0
 186 222 185 221 185 219 c 0
 183 208 174 200 163 200 c 0
 151 200 140 211 140 223 c 0xf0
69 425 m 0
 69 410 78 401 91 401 c 0
 109 401 127 413 142 435 c 1
 134 455 121 467 108 467 c 0
 87 467 69 448 69 425 c 0
EndSplineSet
EndChar

StartChar: uni207A
Encoding: 325 8314 192
Width: 230
Flags: W
HStem: 279 45<25.2571 93 139 153 153.001 204.36>
VStem: 95 44<200.179 279 325 399.504>
LayerCount: 2
Fore
SplineSet
46 323 m 0
 47 323 48 324 49 324 c 0
 50 324 51 324 52 324 c 2
 93 324 l 1
 93 377 l 2
 93 389 103 400 115 400 c 0
 127 400 137 390 137 378 c 0
 138 364 138 361 138 325 c 1
 153 325 l 2
 153 325 154 326 155 326 c 0
 156 326 157 326 157 326 c 2
 168 326 l 2
 181 326 181 326 182 327 c 0
 194 327 205 316 205 304 c 0
 205 292 196 283 183 282 c 0
 182 282 181 282 180 282 c 0
 179 282 178 281 177 281 c 2
 139 281 l 1
 139 223 l 2
 139 211 129 200 117 200 c 0
 105 200 95 210 95 222 c 0
 94 236 94 239 94 279 c 1
 90 279 87 279 83 279 c 0
 80 279 76 279 72 279 c 0
 66 279 58 279 47 279 c 0
 35 279 25 289 25 301 c 0
 25 313 34 322 46 323 c 0
EndSplineSet
EndChar

StartChar: uni207B
Encoding: 326 8315 193
Width: 234
Flags: W
HStem: 277 49<47.4956 184.544>
VStem: 25 184<285.234 321.733>
LayerCount: 2
Fore
SplineSet
188 285 m 0
 114 281 57 278 47 277 c 0
 35 277 25 288 25 300 c 0
 25 312 34 321 46 322 c 0
 78 324 104 325 126 326 c 0
 160 328 181 328 187 329 c 0
 199 329 209 319 209 307 c 0
 209 295 200 286 188 285 c 0
EndSplineSet
EndChar

StartChar: uni207C
Encoding: 327 8316 194
Width: 234
Flags: W
HStem: 230 45<26.6094 208.684> 315 45<25.3165 178.931> 322 44<48.8635 179 180 202.838>
VStem: 25 184<230.415 268.394 324.097 359.597>
LayerCount: 2
Fore
SplineSet
187 230 m 0x90
 185 230 64 226 47 225 c 0
 35 225 25 235 25 247 c 0
 25 259 34 268 47 269 c 0
 65 269 162 274 183 275 c 0
 185 275 187 275 187 275 c 0
 199 275 209 264 209 252 c 0
 209 240 200 231 187 230 c 0x90
47 360 m 0xd0
 48 360 80 361 113 363 c 0
 146 365 178 366 179 366 c 2
 180 367 l 1
 192 367 203 356 203 344 c 0
 203 332 194 323 181 322 c 0xb0
 174 322 86 317 47 315 c 0
 35 315 25 326 25 338 c 0
 25 350 34 359 47 360 c 0xd0
EndSplineSet
EndChar

StartChar: uni207D
Encoding: 328 8317 195
Width: 183
Flags: W
VStem: 25 44<166.952 371.548>
LayerCount: 2
Fore
SplineSet
119 503 m 0
 122 508 129 511 136 511 c 0
 148 511 158 501 158 489 c 0
 158 484 156 479 153 475 c 0
 96 410 69 343 69 266 c 0
 69 203 94 134 137 81 c 0
 141 76 142 72 142 67 c 0
 142 55 132 45 120 45 c 0
 113 45 106 48 103 53 c 0
 54 117 25 195 25 266 c 0
 25 354 55 429 119 503 c 0
EndSplineSet
EndChar

StartChar: uni207E
Encoding: 329 8318 196
Width: 195
Flags: W
VStem: 125 45<191.842 393.368>
LayerCount: 2
Fore
SplineSet
54 489 m 0
 54 501 64 511 76 511 c 0
 84 511 89 509 93 504 c 0
 140 453 170 369 170 289 c 0
 170 205 144 147 63 53 c 0
 57 47 53 45 47 45 c 0
 35 45 25 55 25 67 c 0
 25 72 27 77 30 81 c 0
 102 165 125 215 125 289 c 0
 125 356 98 431 59 474 c 0
 56 478 54 483 54 489 c 0
EndSplineSet
EndChar

StartChar: uni207F
Encoding: 330 8319 197
Width: 224
Flags: W
HStem: 341 45<97.7947 151.904>
VStem: 25 46<200.307 317.424> 153 44<200.104 340.379>
LayerCount: 2
Fore
SplineSet
199 281 m 0
 199 262 198 257 198 251 c 0
 198 245 197 240 197 221 c 0
 196 209 187 200 175 200 c 0
 162 200 153 209 153 222 c 2
 153 224 l 2
 153 225 153 226 153 227 c 0
 155 270 155 270 155 280 c 0
 155 281 l 0
 155 315 152 334 145 341 c 1
 141 341 l 2
 129 341 104 331 94 323 c 0
 74 296 72 266 71 242 c 0
 70 217 69 200 47 200 c 0
 33 200 25 210 25 225 c 0
 25 272 38 342 55 386 c 0
 58 395 66 400 75 400 c 0
 87 400 98 389 98 377 c 1
 97 377 l 1
 97 376 l 1
 114 383 128 386 141 386 c 0
 182 386 199 355 199 281 c 0
EndSplineSet
EndChar

StartChar: uni2080
Encoding: 331 8320 198
Width: 242
Flags: W
HStem: -100 45<82.6889 137.096> 167 44<92.0059 160.314>
VStem: 25 44<-41.8966 144.467> 172 45<-6.21535 156.641>
LayerCount: 2
Fore
SplineSet
25 37 m 0
 25 149 61 211 125 211 c 0
 185 211 217 171 217 95 c 0
 217 -12 170 -100 113 -100 c 0
 71 -100 32 -61 27 -15 c 0
 25 -5 25 6 25 37 c 0
121 167 m 2
 88 167 69 120 69 37 c 0
 69 21 70 5 71 -9 c 0
 74 -31 95 -55 113 -55 c 0
 141 -55 172 24 172 95 c 0
 172 143 156 167 125 167 c 2
 121 167 l 2
EndSplineSet
EndChar

StartChar: uni2081
Encoding: 332 8321 199
Width: 99
Flags: W
VStem: 27 44<-99.5039 210.298>
LayerCount: 2
Fore
SplineSet
74 189 m 0
 74 178 73 152 72 126 c 0
 71 100 71 75 71 64 c 2
 71 55 l 2
 70 34 70 13 70 -14 c 0
 70 -32 69 -53 69 -78 c 0
 69 -90 59 -100 47 -100 c 0
 35 -100 25 -89 25 -77 c 0
 25 -57 25 -31 27 47 c 2
 27 67 l 2
 28 97 28 99 30 189 c 0
 30 201 40 211 52 211 c 0
 64 211 74 201 74 189 c 0
EndSplineSet
EndChar

StartChar: uni2082
Encoding: 333 8322 200
Width: 250
Flags: W
HStem: -100 45<94.5742 202.954>
VStem: 25 200
LayerCount: 2
Fore
SplineSet
143 167 m 1
 120 164 97 150 78 138 c 0
 65 130 54 123 47 123 c 0
 35 123 25 133 25 145 c 0
 25 152 29 159 35 163 c 0
 78 194 118 211 147 211 c 0
 172 211 189 197 189 176 c 0
 189 160 183 119 177 100 c 0
 168 69 154 47 135 16 c 0
 123 -3 110 -26 94 -55 c 1
 96 -56 96 -55 99 -55 c 0
 101 -55 105 -55 110 -55 c 0
 132 -55 163 -53 200 -49 c 0
 202 -49 202 -49 203 -48 c 0
 215 -48 225 -58 225 -70 c 0
 225 -81 216 -92 205 -93 c 0
 176 -96 122 -100 110 -100 c 0
 66 -100 45 -88 45 -63 c 0
 45 -57 46 -52 48 -48 c 0
 51 -42 54 -37 57 -32 c 0
 87 21 87 21 97 38 c 0
 98 40 99 41 100 43 c 0
 133 99 138 114 143 167 c 1
EndSplineSet
EndChar

StartChar: uni2083
Encoding: 334 8323 201
Width: 222
Flags: W
HStem: -100 45<30.334 118.881> 167 44<25.7621 149.539>
VStem: 136 45<-15 16.8465>
LayerCount: 2
Fore
SplineSet
197 162 m 0
 197 137 174 118 153 101 c 0
 139 90 127 79 123 69 c 1
 126 66 129 64 131 62 c 0
 133 60 135 58 137 56 c 0
 167 30 181 8 181 -14 c 0
 181 -33 164 -56 139 -72 c 0
 123 -82 109 -86 73 -95 c 0
 72 -95 73 -95 73 -96 c 1
 72 -96 l 2
 67 -98 57 -100 53 -100 c 0
 41 -100 30 -89 30 -77 c 0
 30 -64 37 -58 54 -55 c 0
 55 -55 74 -50 77 -49 c 0
 121 -38 128 -34 135 -15 c 1
 136 -15 l 1
 136 -14 l 2
 136 0 121 13 107 26 c 0
 93 39 78 52 78 66 c 0
 78 95 103 115 124 133 c 0
 135 142 145 151 151 160 c 1
 140 164 121 167 101 167 c 0
 82 167 65 166 49 164 c 2
 47 164 l 2
 35 164 25 174 25 186 c 0
 25 197 34 208 45 209 c 0
 57 211 68 211 101 211 c 0
 165 211 197 195 197 162 c 0
EndSplineSet
EndChar

StartChar: uni2084
Encoding: 335 8324 202
Width: 256
Flags: W
HStem: 11 46<71.1205 103.76> 27 74<165.402 196.621>
VStem: 25 51<91.2006 209.406> 25 44<56.8341 199.103> 97 45<-99.6849 9.12368> 118 45<79.9867 210.718>
LayerCount: 2
Fore
SplineSet
76 189 m 0xa0
 76 185 75 163 73 140 c 0
 71 117 69 95 69 91 c 0
 69 74 71 63 74 57 c 1
 75 57 l 2x90
 77 56 77 56 82 56 c 0
 90 56 98 57 108 60 c 0
 109 61 109 62 109 65 c 0
 115 132 116 147 118 191 c 0
 119 203 128 211 140 211 c 0
 152 211 163 201 163 189 c 0
 163 187 161 162 154 76 c 1
 172 84 182 90 189 94 c 0
 198 99 202 101 209 101 c 0
 221 101 231 91 231 79 c 0
 231 71 227 63 220 59 c 0
 201 48 177 37 150 27 c 0x54
 149 26 143 -47 142 -75 c 2
 142 -79 l 2
 141 -91 131 -100 120 -100 c 0
 108 -100 97 -89 97 -77 c 0
 97 -71 97 -71 104 13 c 1
 99 12 86 11 82 11 c 0
 41 11 25 34 25 91 c 0x98
 25 112 26 124 31 190 c 0
 32 202 41 211 53 211 c 0
 65 211 76 201 76 189 c 0xa0
EndSplineSet
EndChar

StartChar: uni2085
Encoding: 336 8325 203
Width: 240
Flags: W
HStem: -106 45<66.7023 155.439> 169 44<81.2856 214.298>
VStem: 33 44<87.2694 167.039> 164 45<-54.3669 13.1128>
LayerCount: 2
Fore
SplineSet
111 213 m 2
 115 213 l 2
 118 213 121 213 124 213 c 0
 126 213 128 213 130 213 c 0
 151 213 152 212 174 211 c 0
 176 211 179 211 182 211 c 2
 188 211 l 2
 189 211 190 210 191 210 c 0
 192 210 193 210 194 210 c 0
 206 209 215 200 215 188 c 0
 215 176 205 165 193 165 c 2
 190 165 l 2
 157 168 129 169 111 169 c 0
 99 169 87 168 81 167 c 1
 78 147 77 142 77 135 c 0
 77 98 85 88 137 67 c 0
 192 44 209 27 209 -7 c 0
 209 -67 172 -106 117 -106 c 0
 71 -106 25 -81 25 -55 c 0
 25 -43 35 -33 47 -33 c 0
 56 -33 64 -38 67 -45 c 0
 79 -54 100 -61 117 -61 c 0
 148 -61 163 -44 164 -9 c 2
 164 -7 l 2
 164 8 146 14 123 23 c 0
 100 32 72 43 53 66 c 0
 39 82 33 103 33 135 c 0
 33 154 38 182 43 193 c 0
 50 208 67 213 111 213 c 2
EndSplineSet
EndChar

StartChar: uni2086
Encoding: 337 8326 204
Width: 201
Flags: W
HStem: -100 45<71.2376 128.434>
VStem: 131 45<-51.5673 17.7027>
LayerCount: 2
Fore
SplineSet
159 189 m 0
 159 189 157 183 152 173 c 0
 143 154 126 118 107 73 c 1
 146 60 176 17 176 -25 c 0
 176 -67 141 -100 97 -100 c 0
 60 -100 25 -67 25 -31 c 0
 25 -5 58 79 116 199 c 0
 119 206 127 211 136 211 c 0
 148 211 159 201 159 189 c 0
97 -55 m 0
 116 -55 131 -42 131 -25 c 0
 131 -2 111 26 90 31 c 1
 77 -1 71 -18 69 -30 c 1
 73 -46 82 -55 97 -55 c 0
EndSplineSet
EndChar

StartChar: uni2087
Encoding: 338 8327 205
Width: 217
Flags: W
HStem: 154 57<45.1086 47 47.0007 144.757>
VStem: 113 45<-99.6862 32.1382> 147 45<26.2625 167>
LayerCount: 2
Fore
SplineSet
147 167 m 1xa0
 99 163 61 157 50 155 c 0
 48 155 47 154 47 154 c 0
 35 154 25 165 25 177 c 0
 25 188 32 197 43 199 c 0
 88 206 132 211 155 211 c 0
 177 211 190 203 191 188 c 2
 191 171 l 2
 191 169 192 166 192 164 c 0
 192 162 192 160 192 158 c 0xa0
 192 101 182 54 173 9 c 0
 167 -21 161 -50 158 -80 c 0
 157 -91 147 -100 136 -100 c 0
 124 -100 113 -89 113 -77 c 0xc0
 113 -43 122 -2 130 40 c 0
 138 82 147 124 147 158 c 2
 147 167 l 1xa0
EndSplineSet
EndChar

StartChar: uni2088
Encoding: 339 8328 206
Width: 204
Flags: W
HStem: -100 45<78.675 133.402> 167 44<72.5449 117>
VStem: 25 44<-44.1886 13.1503 92.5549 154.246> 134 45<-54.978 -4.16311>
LayerCount: 2
Fore
SplineSet
117 167 m 1
 103 167 76 156 72 149 c 0
 70 144 69 138 69 131 c 0
 69 117 74 104 83 92 c 1
 105 126 115 147 117 167 c 1
91 21 m 1
 91 17 87 9 82 1 c 0
 77 -7 72 -14 72 -18 c 2
 72 -21 l 2
 75 -40 95 -55 118 -55 c 0
 130 -55 134 -53 134 -46 c 0
 134 -25 129 -17 92 20 c 0
 91 20 91 20 91 21 c 1
118 -100 m 0
 69 -100 27 -63 27 -18 c 0
 27 -2 32 9 58 53 c 1
 36 77 25 102 25 131 c 0
 25 142 26 152 29 161 c 0
 36 189 75 211 117 211 c 0
 145 211 163 197 163 174 c 0
 163 143 150 111 115 59 c 1
 123 51 l 2
 166 12 179 -10 179 -46 c 0
 179 -79 155 -100 118 -100 c 0
EndSplineSet
EndChar

StartChar: uni2089
Encoding: 340 8329 207
Width: 227
Flags: W
HStem: 61 40<69.6861 130.401> 167 44<75.4515 135.362>
VStem: 25 44<101.318 160.526> 140 45<-99.7182 50.4273> 157 45<-76.4273 86.5795>
LayerCount: 2
Fore
SplineSet
140 -77 m 0xf0
 140 -65 144 -39 148 -13 c 0
 152 13 157 39 157 51 c 0xe8
 157 71 156 78 154 87 c 1
 129 68 112 61 91 61 c 0
 51 61 25 86 25 125 c 0
 25 172 62 211 108 211 c 0
 142 211 170 187 185 145 c 2xf0
 192 124 l 2
 199 100 202 76 202 51 c 0
 202 50 l 0xe8
 202 23 202 23 186 -76 c 0
 186 -78 185 -79 185 -81 c 0
 183 -92 174 -100 163 -100 c 0
 151 -100 140 -89 140 -77 c 0xf0
69 125 m 0
 69 110 78 101 91 101 c 0
 109 101 127 113 142 135 c 1
 134 155 121 167 108 167 c 0
 87 167 69 148 69 125 c 0
EndSplineSet
EndChar

StartChar: uni208A
Encoding: 341 8330 208
Width: 230
Flags: W
HStem: -21 45<25.2571 93 139 153 153.001 204.36>
VStem: 95 44<-99.8207 -21 25 99.5039>
LayerCount: 2
Fore
SplineSet
46 23 m 0
 47 23 48 24 49 24 c 0
 50 24 51 24 52 24 c 2
 93 24 l 1
 93 77 l 2
 93 89 103 100 115 100 c 0
 127 100 137 90 137 78 c 0
 138 64 138 61 138 25 c 1
 153 25 l 2
 153 25 154 26 155 26 c 0
 156 26 157 26 157 26 c 2
 168 26 l 2
 181 26 181 26 182 27 c 0
 194 27 205 16 205 4 c 0
 205 -8 196 -17 183 -18 c 0
 182 -18 181 -18 180 -18 c 0
 179 -18 178 -19 177 -19 c 2
 139 -19 l 1
 139 -77 l 2
 139 -89 129 -100 117 -100 c 0
 105 -100 95 -90 95 -78 c 0
 94 -64 94 -61 94 -21 c 1
 90 -21 87 -21 83 -21 c 0
 80 -21 76 -21 72 -21 c 0
 66 -21 58 -21 47 -21 c 0
 35 -21 25 -11 25 1 c 0
 25 13 34 22 46 23 c 0
EndSplineSet
EndChar

StartChar: uni208B
Encoding: 342 8331 209
Width: 234
Flags: W
HStem: -23 49<47.4956 184.544>
VStem: 25 184<-14.7662 21.7327>
LayerCount: 2
Fore
SplineSet
188 -15 m 0
 114 -19 57 -22 47 -23 c 0
 35 -23 25 -12 25 0 c 0
 25 12 34 21 46 22 c 0
 78 24 104 25 126 26 c 0
 160 28 181 28 187 29 c 0
 199 29 209 19 209 7 c 0
 209 -5 200 -14 188 -15 c 0
EndSplineSet
EndChar

StartChar: uni208C
Encoding: 343 8332 210
Width: 234
Flags: W
HStem: -70 45<26.6094 208.684> 15 45<25.3165 178.931> 22 44<48.8635 179 180 202.838>
VStem: 25 184<-69.5846 -31.606 24.0973 59.5972>
LayerCount: 2
Fore
SplineSet
187 -70 m 0x90
 185 -70 64 -74 47 -75 c 0
 35 -75 25 -65 25 -53 c 0
 25 -41 34 -32 47 -31 c 0
 65 -31 162 -26 183 -25 c 0
 185 -25 187 -25 187 -25 c 0
 199 -25 209 -36 209 -48 c 0
 209 -60 200 -69 187 -70 c 0x90
47 60 m 0xd0
 48 60 80 61 113 63 c 0
 146 65 178 66 179 66 c 2
 180 67 l 1
 192 67 203 56 203 44 c 0
 203 32 194 23 181 22 c 0xb0
 174 22 86 17 47 15 c 0
 35 15 25 26 25 38 c 0
 25 50 34 59 47 60 c 0xd0
EndSplineSet
EndChar

StartChar: uni208D
Encoding: 344 8333 211
Width: 183
Flags: W
VStem: 25 44<-133.048 71.548>
LayerCount: 2
Fore
SplineSet
119 203 m 0
 122 208 129 211 136 211 c 0
 148 211 158 201 158 189 c 0
 158 184 156 179 153 175 c 0
 96 110 69 43 69 -34 c 0
 69 -97 94 -166 137 -219 c 0
 141 -224 142 -228 142 -233 c 0
 142 -245 132 -255 120 -255 c 0
 113 -255 106 -252 103 -247 c 0
 54 -183 25 -105 25 -34 c 0
 25 54 55 129 119 203 c 0
EndSplineSet
EndChar

StartChar: uni208E
Encoding: 345 8334 212
Width: 195
Flags: W
VStem: 125 45<-108.158 93.3682>
LayerCount: 2
Fore
SplineSet
54 189 m 0
 54 201 64 211 76 211 c 0
 84 211 89 209 93 204 c 0
 140 153 170 69 170 -11 c 0
 170 -95 144 -153 63 -247 c 0
 57 -253 53 -255 47 -255 c 0
 35 -255 25 -245 25 -233 c 0
 25 -228 27 -223 30 -219 c 0
 102 -135 125 -85 125 -11 c 0
 125 56 98 131 59 174 c 0
 56 178 54 183 54 189 c 0
EndSplineSet
EndChar

StartChar: uni2090
Encoding: 346 8336 213
Width: 229
Flags: W
HStem: -100 45<69 103.893> 55 45<101.618 146.682>
VStem: 25 44<-54.9556 21.1359> 145 44<-15.4492 55> 151 53<-97.9131 -55.5195>
LayerCount: 2
Fore
SplineSet
70 -55 m 0xf0
 84 -55 125 -21 145 7 c 1
 145 38 145 46 147 55 c 1
 142 55 l 2
 103 55 69 8 69 -46 c 0
 69 -54 69 -54 70 -55 c 0xf0
195 72 m 0
 195 64 194 50 192 36 c 0
 190 22 189 9 189 1 c 0xf0
 189 -24 192 -31 196 -38 c 0
 200 -45 204 -52 204 -77 c 0
 204 -89 193 -100 181 -100 c 0
 165 -100 160 -92 151 -55 c 1xe8
 123 -83 92 -100 69 -100 c 0
 42 -100 25 -79 25 -46 c 0
 25 36 77 100 142 100 c 0
 176 100 195 90 195 72 c 0
EndSplineSet
EndChar

StartChar: uni2091
Encoding: 347 8337 214
Width: 206
Flags: W
HStem: -100 45<74.4988 161.891>
VStem: 115 46<5.21072 53.752>
LayerCount: 2
Fore
SplineSet
115 29 m 2
 116 32 117 34 117 35 c 0
 117 36 117 36 117 36 c 0
 117 41 114 48 109 55 c 1
 91 48 82 33 73 -4 c 1
 91 -1 104 8 115 28 c 1
 115 29 l 2
25 -29 m 0
 25 39 66 100 111 100 c 0
 139 100 161 72 161 36 c 0
 161 -3 120 -44 74 -49 c 1
 77 -54 81 -55 93 -55 c 0
 106 -55 116 -50 126 -46 c 0
 136 -42 145 -37 158 -37 c 0
 170 -37 181 -47 181 -59 c 0
 181 -67 177 -75 169 -79 c 0
 141 -94 118 -100 93 -100 c 0
 52 -100 25 -72 25 -29 c 0
EndSplineSet
EndChar

StartChar: uni2092
Encoding: 348 8338 215
Width: 206
Flags: W
HStem: -100 45<70.6863 118.228>
VStem: 25 46<-53.7754 23.5693> 137 44<-37.0097 54.2404>
LayerCount: 2
Fore
SplineSet
135 55 m 1
 101 51 69 6 69 -40 c 0
 69 -42 70 -44 70 -46 c 0
 70 -48 71 -50 71 -53 c 2
 71 -54 l 2
 72 -55 74 -55 80 -55 c 0
 91 -55 105 -50 113 -43 c 0
 124 -33 137 12 137 39 c 0
 137 43 136 48 135 55 c 1
80 -100 m 0
 44 -100 25 -79 25 -40 c 0
 25 32 76 96 136 100 c 1
 139 100 l 2
 165 100 181 76 181 39 c 0
 181 19 177 -6 169 -31 c 0
 157 -65 143 -81 117 -92 c 0
 104 -97 92 -100 80 -100 c 0
EndSplineSet
EndChar

StartChar: uni2093
Encoding: 349 8339 216
Width: 216
Flags: W
HStem: -100 200<38 60 156 175>
VStem: 27 55<40.5901 96.7463>
LayerCount: 2
Fore
SplineSet
29 -63 m 0
 33 -59 56 -29 75 -3 c 1
 33 60 27 71 27 77 c 0
 27 89 38 100 50 100 c 0
 62 100 66 97 82 69 c 0
 82 68 101 39 103 36 c 1
 140 84 156 100 169 100 c 0
 181 100 191 90 191 78 c 0
 191 69 189 64 185 61 c 0
 169 47 142 16 129 -3 c 1
 146 -25 161 -42 180 -63 c 0
 183 -67 185 -72 185 -78 c 0
 185 -90 175 -100 163 -100 c 0
 156 -100 151 -98 147 -93 c 0
 125 -68 119 -61 103 -41 c 1
 64 -96 60 -100 47 -100 c 0
 35 -100 25 -90 25 -78 c 0
 25 -70 26 -66 29 -63 c 0
EndSplineSet
EndChar

StartChar: uni2095
Encoding: 350 8341 217
Width: 239
Flags: W
HStem: 54 46<119.332 165.269>
VStem: 25 43<-99.892 -25.2969> 55 45<86 210.633> 169 45<-98.316 53.4353>
LayerCount: 2
Fore
SplineSet
164 -77 m 0xb0
 164 -69 165 -53 166 -36 c 0
 167 -19 169 -2 169 6 c 0
 169 27 165 42 156 54 c 1
 155 54 l 2
 152 55 152 55 149 55 c 0
 138 54 126 50 119 45 c 0
 110 32 100 10 90 -17 c 0
 84 -39 77 -62 68 -86 c 0
 65 -94 56 -100 47 -100 c 0
 34 -100 25 -91 25 -78 c 0xd0
 25 -72 30 -58 35 -43 c 0
 40 -30 44 -15 47 -3 c 0
 53 30 55 55 55 107 c 0
 55 110 55 112 55 114 c 0
 55 116 55 117 55 118 c 0
 55 129 55 133 56 171 c 0
 56 177 57 183 57 191 c 0
 58 203 67 211 79 211 c 0
 91 211 102 201 102 189 c 2
 102 188 l 2
 101 166 100 137 100 106 c 2
 100 86 l 1
 118 95 134 100 149 100 c 0
 190 100 214 65 214 6 c 0
 214 -2 210 -59 208 -76 c 2
 208 -79 l 2
 207 -91 198 -100 186 -100 c 0
 174 -100 164 -89 164 -77 c 0xb0
EndSplineSet
EndChar

StartChar: uni2096
Encoding: 351 8342 218
Width: 207
Flags: W
VStem: 25 44<-99.0759 -37 52 190.128> 33 44<61.6566 210.856>
LayerCount: 2
Fore
SplineSet
160 -100 m 0x80
 152 -100 152 -100 143 -92 c 0
 134 -84 117 -69 72 -37 c 1
 72 -52 72 -63 73 -69 c 0
 73 -73 73 -75 74 -77 c 0
 74 -89 63 -100 51 -100 c 0
 39 -100 30 -91 29 -79 c 0
 29 -69 28 -56 28 -40 c 0
 27 -1 25 48 25 59 c 0x80
 25 116 27 152 33 192 c 0
 34 203 44 211 55 211 c 0
 67 211 77 201 77 189 c 2
 77 186 l 1x40
 72 147 69 103 69 59 c 2
 69 52 l 1
 131 91 148 100 156 100 c 0
 168 100 178 90 178 78 c 0
 178 63 165 51 117 27 c 1
 116 27 l 1
 90 13 90 13 85 9 c 1
 174 -55 182 -62 182 -78 c 0
 182 -90 172 -100 160 -100 c 0x80
EndSplineSet
EndChar

StartChar: uni2097
Encoding: 352 8343 219
Width: 102
Flags: W
VStem: 25 44<-99.8381 189.643>
LayerCount: 2
Fore
SplineSet
55 211 m 0
 67 211 77 201 77 189 c 2
 77 187 l 2
 75 167 74 132 73 56 c 0
 73 -10 72 -38 69 -79 c 0
 68 -91 58 -100 47 -100 c 0
 35 -100 25 -89 25 -77 c 2
 25 -76 l 2
 27 -58 27 -57 29 56 c 2
 29 87 l 2
 29 136 30 162 33 191 c 0
 34 202 43 211 55 211 c 0
EndSplineSet
EndChar

StartChar: uni2098
Encoding: 353 8344 220
Width: 344
Flags: W
HStem: 47 45<98.1653 151.945 224.641 271.395>
VStem: 148 45<-66.7207 6.44187> 271 44<-99.8207 45.5819>
LayerCount: 2
Fore
SplineSet
148 -44 m 0
 148 -32 150 -25 152 -18 c 0
 154 -11 155 -5 155 7 c 0
 155 23 151 36 143 46 c 0
 142 46 142 46 141 47 c 0
 104 47 77 14 74 -35 c 0
 72 -86 66 -100 47 -100 c 0
 34 -100 25 -91 25 -78 c 2
 25 -76 l 2
 26 -69 26 -69 26 -68 c 0
 26 -67 26 -65 27 -63 c 2
 27 -61 28 -57 28 -52 c 0
 28 -47 29 -40 30 -30 c 0
 30 -29 l 0
 31 -28 l 2
 31 -17 l 2
 34 34 38 57 49 86 c 0
 52 94 60 100 70 100 c 0
 82 100 91 91 92 79 c 1
 111 87 128 91 141 91 c 0
 164 91 176 83 189 57 c 1
 207 80 229 92 252 92 c 0
 296 92 319 60 319 -1 c 0
 319 -15 318 -26 317 -36 c 0
 316 -46 315 -57 315 -71 c 2
 315 -77 l 1
 316 -77 l 1
 316 -89 305 -100 293 -100 c 0
 281 -100 271 -90 271 -78 c 2
 271 -71 l 2
 271 -66 271 -51 272 -36 c 0
 273 -21 274 -6 274 -1 c 0
 274 34 268 47 252 47 c 0
 231 47 203 2 193 -49 c 0
 191 -59 182 -67 171 -67 c 0
 158 -67 148 -57 148 -44 c 0
EndSplineSet
EndChar

StartChar: uni2099
Encoding: 354 8345 221
Width: 224
Flags: W
HStem: 41 45<97.7947 151.904>
VStem: 25 46<-99.693 17.4236> 153 44<-99.8958 40.3788>
LayerCount: 2
Fore
SplineSet
199 -19 m 0
 199 -38 198 -43 198 -49 c 0
 198 -55 197 -60 197 -79 c 0
 196 -91 187 -100 175 -100 c 0
 162 -100 153 -91 153 -78 c 2
 153 -76 l 2
 153 -75 153 -74 153 -73 c 0
 155 -30 155 -30 155 -20 c 0
 155 -19 l 0
 155 15 152 34 145 41 c 1
 141 41 l 2
 129 41 104 31 94 23 c 0
 74 -4 72 -34 71 -58 c 0
 70 -83 69 -100 47 -100 c 0
 33 -100 25 -90 25 -75 c 0
 25 -28 38 42 55 86 c 0
 58 95 66 100 75 100 c 0
 87 100 98 89 98 77 c 1
 97 77 l 1
 97 76 l 1
 114 83 128 86 141 86 c 0
 182 86 199 55 199 -19 c 0
EndSplineSet
EndChar

StartChar: uni209A
Encoding: 355 8346 222
Width: 222
Flags: W
HStem: -100 45<83.8688 134.817> 55 45<81.8205 151.633>
VStem: 31 44<-253.226 -235 -233.309 -231 -113 -91 2 2.42857 4.57143 9> 153 44<-37.6094 54.4375>
LayerCount: 2
Fore
SplineSet
126 100 m 0
 176 100 197 75 197 17 c 0
 197 -45 156 -100 109 -100 c 0
 99 -100 88 -97 75 -91 c 1
 75 -113 l 2
 75 -158 73 -199 69 -235 c 0
 68 -246 58 -255 47 -255 c 0
 35 -255 25 -245 25 -233 c 2
 25 -231 l 1
 29 -202 31 -161 31 -113 c 2
 31 -75 l 2
 31 -52 31 -46 33 2 c 2
 33 5 l 2
 33 31 38 69 43 78 c 0
 47 84 50 87 55 89 c 0
 77 97 99 100 126 100 c 0
153 17 m 2
 153 50 149 55 126 55 c 0
 105 55 94 54 82 50 c 1
 79 26 77 9 77 1 c 0
 78 -35 90 -55 110 -55 c 0
 127 -55 152 -17 153 10 c 2
 153 17 l 2
EndSplineSet
EndChar

StartChar: uni209B
Encoding: 356 8347 223
Width: 210
Flags: W
HStem: -100 43<37.1317 121.805> 55 45<104.378 172.441>
VStem: 59 45<24.4408 54.2265> 124 45<-50.4657 -13.6617>
LayerCount: 2
Fore
SplineSet
163 48 m 0
 155 48 151 50 146 52 c 0
 141 54 136 55 128 55 c 0
 112 55 104 50 104 41 c 0
 104 32 111 28 121 25 c 0
 127 23 133 21 139 17 c 0
 155 6 169 -16 169 -31 c 0
 169 -70 132 -100 85 -100 c 0
 46 -100 25 -90 25 -72 c 0
 25 -60 35 -50 47 -50 c 0
 56 -50 59 -52 62 -54 c 0
 65 -56 68 -57 77 -57 c 0
 99 -57 124 -43 124 -31 c 0
 124 -22 119 -20 110 -16 c 0
 105 -14 98 -11 91 -6 c 0
 73 6 59 27 59 41 c 0
 59 76 87 100 128 100 c 0
 162 100 185 88 185 71 c 0
 185 59 175 48 163 48 c 0
EndSplineSet
EndChar

StartChar: uni209C
Encoding: 357 8348 224
Width: 224
Flags: W
HStem: -21 20G<156 170> 49 45<43.0007 47.7907 48 56.9993 57 85 133 197.648>
VStem: 79 45<-51.2116 53.0662> 89 44<-29.5577 54 100 210.839> 139 48<-51.454 -1.57101>
LayerCount: 2
Fore
SplineSet
47 94 m 0xe8
 51 95 58 95 65 96 c 0
 73 97 81 98 86 99 c 2
 88 99 l 1
 89 118 90 140 90 158 c 0
 90 172 90 177 89 186 c 2
 89 189 l 2
 89 201 99 211 111 211 c 0
 123 211 132 202 133 191 c 2
 133 187 l 2
 134 164 135 160 135 159 c 0
 135 158 l 0
 135 140 134 120 133 100 c 1xd8
 145 100 151 99 156 99 c 0
 161 99 166 98 178 98 c 0
 190 97 199 88 199 76 c 0
 199 64 189 53 177 53 c 2
 176 53 l 2
 165 53 158 54 152 54 c 0
 146 54 140 55 129 55 c 1
 125 16 124 0 124 -31 c 0
 124 -41 124 -46 125 -53 c 1
 133 -45 136 -35 139 -26 c 0
 144 -13 148 -1 164 -1 c 0
 176 -1 187 -11 187 -23 c 0
 187 -58 149 -100 117 -100 c 0
 91 -100 79 -78 79 -31 c 0
 79 -28 79 -26 79 -25 c 0
 79 -24 79 -25 79 -24 c 0
 79 -22 79 -16 81 8 c 0
 82 19 83 34 85 54 c 1
 84 54 82 53 78 53 c 0
 71 53 61 52 57 51 c 0
 57 51 56 50 55 50 c 0
 54 50 53 50 53 50 c 1
 53 49 l 1
 48 49 l 1
 48 48 48 49 47 49 c 0
 35 49 25 59 25 71 c 0
 25 82 32 91 43 93 c 0
 43 93 44 94 45 94 c 0
 46 94 47 94 47 94 c 0xe8
EndSplineSet
EndChar

StartChar: Alpha
Encoding: 358 913 225
Width: 341
Flags: W
HStem: 0 21G<50 66 273.5 291> 154 66<154.481 209 210 223> 447 20G<199 211.5>
VStem: 25 65<3.5332 44.8154>
LayerCount: 2
Fore
SplineSet
224 221 m 1
 219 262 212 297 199 344 c 1
 183 311 171 277 154 218 c 1
 164 220 167 220 207 220 c 2
 222 220 l 2
 223 220 l 0
 224 221 l 1
25 34 m 0
 25 38 25 39 26 40 c 0
 27 41 28 41 28 45 c 0
 49 103 64 152 78 199 c 0
 103 283 126 358 175 449 c 0
 183 461 193 467 205 467 c 0
 218 467 231 458 236 445 c 0
 273 342 284 287 314 50 c 0
 315 45 315 38 316 34 c 2
 316 16 300 0 282 0 c 0
 265 0 251 13 249 29 c 0
 246 48 241 89 233 154 c 1
 212 154 l 2
 210 154 l 0
 209 153 l 2
 196 153 l 2
 159 152 146 151 132 147 c 1
 124 119 109 75 90 22 c 0
 85 9 73 0 59 0 c 0
 41 0 25 16 25 34 c 0
EndSplineSet
EndChar

StartChar: Beta
Encoding: 359 914 226
Width: 313
Flags: W
HStem: 0 73<95 133.27> 399 68<131 138 139 215.302>
VStem: 144 67<86.4524 129.572>
LayerCount: 2
Fore
SplineSet
103 152 m 1
 103 150 103 150 95 73 c 1
 103 73 136 92 144 101 c 1
 144 103 l 2
 141 112 131 124 103 152 c 1
146 400 m 2
 140 400 l 2
 139 400 l 0
 138 399 l 2
 131 399 l 1
 131 393 120 296 118 284 c 1
 143 296 209 366 218 390 c 0
 217 391 217 391 216 391 c 0
 194 397 171 400 146 400 c 2
25 42 m 0
 25 45 36 139 46 234 c 0
 56 329 66 424 66 427 c 0
 69 455 93 467 146 467 c 0
 235 467 288 443 288 402 c 0
 288 351 249 302 142 217 c 0
 141 216 l 0
 141 215 141 215 140 215 c 0
 139 215 139 215 137 213 c 1
 162 188 162 188 195 144 c 0
 208 127 211 119 211 103 c 0
 211 72 195 50 157 28 c 0
 132 12 95 0 72 0 c 0
 44 0 25 17 25 42 c 0
EndSplineSet
EndChar

StartChar: Gamma
Encoding: 360 915 227
Width: 293
VWidth: 0
Flags: W
HStem: -1 21G<49 67> 396 67<120.534 263.972>
VStem: 25 67<2.48541 210.49> 56 67<160.077 398.331>
LayerCount: 2
Fore
SplineSet
47 432 m 0xd0
 47 454 64 467 90 467 c 0
 104 467 121 466 138 465 c 0
 155 464 172 463 186 463 c 0
 193 463 201 464 210 465 c 0
 219 466 228 467 235 467 c 0
 253 467 268 451 268 433 c 0
 268 405 249 396 186 396 c 0
 168 396 152 397 119 399 c 1
 122 376 123 354 123 332 c 0xd0
 123 279 115 235 108 189 c 0
 100 142 93 94 92 33 c 0
 92 15 76 -1 58 -1 c 0
 40 -1 25 15 25 33 c 0xe0
 25 85 32 134 40 183 c 0
 48 232 56 280 56 332 c 0
 56 344 53 363 51 382 c 0
 49 401 47 420 47 432 c 0xd0
EndSplineSet
EndChar

StartChar: uni0394
Encoding: 361 916 228
Width: 428
VWidth: 0
Flags: W
HStem: -0 66<117 329> 447 20G<231.5 241.5>
LayerCount: 2
Fore
SplineSet
329 66 m 1
 311 150 275 262 238 352 c 1
 180 198 152 132 117 66 c 1
 329 66 l 1
59 -0 m 2
 41 0 25 15 25 33 c 0
 25 39 26 46 30 51 c 0
 80 129 129 254 164 345 c 0
 187 404 203 448 212 457 c 0
 219 463 227 467 236 467 c 0
 247 467 258 461 264 452 c 0
 305 391 403 96 403 33 c 0
 403 15 388 -1 369 -1 c 2
 59 -0 l 2
EndSplineSet
EndChar

StartChar: Epsilon
Encoding: 362 917 229
Width: 329
Flags: W
HStem: 0 86<94.7468 257.238> 19 67<94.7468 279.515> 168 68<104 273.515> 400 66<125.516 300.515>
VStem: 25 67<67 164.687>
LayerCount: 2
Fore
SplineSet
92 67 m 1xb8
 150 70 247 86 249 86 c 0xb8
 267 86 283 70 283 52 c 0
 283 36 267 19 252 19 c 0x78
 224 16 216 15 198 12 c 0
 144 3 112 0 76 0 c 2
 58 0 l 2
 40 0 26 15 26 33 c 2
 26 52 l 2
 26 54 l 0
 25 55 l 0
 25 148 38 284 61 427 c 1
 61 458 91 466 208 466 c 2
 250 466 l 1
 248 466 257 466 271 465 c 0
 290 464 304 450 304 432 c 0
 304 414 288 399 270 399 c 2
 269 399 l 2
 221 400 221 400 208 400 c 2
 172 400 l 2
 170 400 168 400 166 400 c 0
 164 400 163 401 161 401 c 0
 147 401 136 400 125 398 c 1
 113 317 107 275 104 236 c 1
 243 236 l 2
 261 236 277 220 277 202 c 0
 277 184 261 168 243 168 c 2
 97 168 l 1
 94 127 92 95 92 67 c 1xb8
EndSplineSet
EndChar

StartChar: Zeta
Encoding: 363 918 230
Width: 378
Flags: W
HStem: 0 67<97.1958 290.262> 393 67<50.2926 204.645> 400 67<54.1391 282.026>
LayerCount: 2
Fore
SplineSet
25 57 m 0xa0
 25 108 83 161 144 218 c 0
 204 273 267 331 283 393 c 1xc0
 261 397 233 400 206 400 c 0xa0
 178 400 143 398 83 393 c 1
 80 393 l 2
 62 393 47 409 47 427 c 0
 47 444 60 458 77 460 c 0xc0
 154 466 177 467 206 467 c 0
 308 467 353 448 353 405 c 0
 353 404 353 404 352 404 c 1
 352 399 l 1
 344 333 309 282 201 180 c 0
 154 138 104 85 96 69 c 1
 115 67 116 67 126 67 c 0
 183 67 262 77 303 90 c 0
 305 91 305 91 312 91 c 0
 330 91 345 75 345 57 c 0
 345 42 335 29 321 25 c 0
 271 10 191 0 126 0 c 0
 52 0 25 15 25 57 c 0xa0
EndSplineSet
EndChar

StartChar: Eta
Encoding: 364 919 231
Width: 299
Flags: W
HStem: 0 21G<50 68 213 231> 170 68<96 195.568> 183 68<96.4344 196> 447 20G<56 74 231 249>
VStem: 28 66<4.02832 172.251 238 432.185> 188 67<3.48541 176.23> 204 70<255.278 462.443>
LayerCount: 2
Fore
SplineSet
25 34 m 0xdc
 25 51 26 142 28 234 c 0
 30 326 32 417 32 434 c 0
 32 452 47 467 65 467 c 0
 83 467 99 452 99 434 c 0
 99 396 98 311 96 238 c 1xdc
 104 240 194 251 198 251 c 0
 201 311 202 347 204 383 c 0
 205 400 206 416 207 435 c 0
 208 453 222 467 240 467 c 0
 258 467 274 451 274 433 c 2
 274 430 l 2xba
 272 407 255 49 255 32 c 0
 254 14 240 0 222 0 c 0
 204 0 188 16 188 34 c 2
 188 39 l 2
 191 82 193 118 196 183 c 1xbc
 195 183 158 178 128 174 c 0
 113 172 99 171 94 170 c 1
 94 158 l 2
 92 38 92 38 92 33 c 0
 92 15 77 0 59 0 c 0
 41 0 25 16 25 34 c 0xdc
EndSplineSet
EndChar

StartChar: Theta
Encoding: 365 920 232
Width: 337
VWidth: 0
Flags: W
HStem: -1 67<108.238 187.216> 201 67<106.949 231.956> 447 20G<143 166.5>
VStem: 25 67<80.8098 192.339>
LayerCount: 2
Fore
SplineSet
92 167 m 0
 92 101 109 66 141 66 c 0
 188 66 239 129 245 192 c 1
 236 193 227 195 218 196 c 0
 200 199 182 201 161 201 c 0
 139 201 116 198 93 192 c 1
 92 183 92 175 92 167 c 0
161 268 m 0
 182 268 193 267 233 261 c 1
 207 345 187 381 156 397 c 1
 141 375 122 324 106 263 c 1
 125 266 143 268 161 268 c 0
141 -1 m 0
 67 -1 25 61 25 167 c 0
 25 255 69 399 109 445 c 0
 122 460 135 467 151 467 c 0
 182 467 227 433 253 390 c 0
 282 342 312 245 312 203 c 0
 312 98 229 -1 141 -1 c 0
EndSplineSet
EndChar

StartChar: Iota
Encoding: 366 921 233
Width: 449
Flags: W
HStem: -9 69<97.0462 126.533> 0 65<349.098 420.397> 400 67<88.2849 173 241.371 379.707>
VStem: 166 75<181.985 393.044>
LayerCount: 2
Fore
SplineSet
94 62 m 1xb0
 97 59 l 1
 98 60 98 60 99 60 c 0
 110 64 117 69 127 79 c 1
 114 77 103 71 94 62 c 1xb0
390 0 m 0x70
 378 0 345 14 307 30 c 0
 271 45 230 63 200 71 c 1
 181 28 133 -9 95 -9 c 0xb0
 59 -9 25 27 25 65 c 0
 25 108 82 147 145 147 c 2
 149 147 l 1
 163 235 164 269 166 305 c 0
 167 329 168 353 173 395 c 1
 170 395 164 394 155 393 c 0
 143 392 126 390 113 388 c 0
 105 387 94 386 88 385 c 2
 70 385 54 401 54 419 c 0
 54 436 67 450 83 452 c 0
 166 463 222 467 292 467 c 2
 319 467 l 2
 320 467 321 466 322 466 c 0
 323 466 325 466 326 466 c 2
 350 466 l 2
 368 466 383 451 383 433 c 0
 383 415 368 399 350 399 c 2
 349 399 l 2
 348 399 347 400 346 400 c 0
 345 400 343 400 342 400 c 2
 292 400 l 2
 252 400 249 400 241 399 c 1
 241 394 l 1
 232 271 223 182 215 137 c 1
 250 127 284 112 317 98 c 0
 344 86 372 75 401 65 c 0
 416 59 424 47 424 34 c 0
 424 16 408 0 390 0 c 0x70
EndSplineSet
EndChar

StartChar: Kappa
Encoding: 367 922 234
Width: 350
Flags: W
HStem: 0 21G<50 68> 447 20G<71 89>
VStem: 47 67<290.379 463.515> 261 64<408.696 459.515>
LayerCount: 2
Fore
SplineSet
325 429 m 0
 325 381 228 277 130 219 c 1
 144 205 165 189 189 170 c 0
 227 140 273 104 311 61 c 0
 316 55 319 47 319 39 c 0
 319 21 304 6 286 6 c 0
 276 6 267 10 261 17 c 0
 238 43 116 148 99 157 c 1
 92 32 l 2
 91 14 77 0 59 0 c 0
 41 0 25 16 25 34 c 0
 26 38 41 298 47 435 c 0
 48 453 62 467 80 467 c 0
 98 467 114 451 114 433 c 0
 114 432 114 436 106 283 c 1
 182 328 232 380 261 443 c 0
 266 455 277 463 291 463 c 0
 309 463 325 447 325 429 c 0
EndSplineSet
EndChar

StartChar: Lambda
Encoding: 368 923 235
Width: 335
VWidth: 0
Flags: W
HStem: -1 21G<50 67.5 268.5 285> 446 20G<199.5 217.5>
VStem: 25 67<2.48541 98.8828> 175 67<344.424 462.878>
LayerCount: 2
Fore
SplineSet
25 33 m 0
 25 85 62 157 100 229 c 0
 138 301 175 374 175 426 c 0
 175 427 175 427 175 429 c 0
 175 431 175 432 175 433 c 0
 175 452 190 466 209 466 c 0
 226 466 240 454 242 437 c 0
 268 202 300 76 308 42 c 0
 309 37 310 34 310 33 c 0
 310 15 294 -1 276 -1 c 0
 261 -1 248 9 244 23 c 0
 228 76 212 161 196 270 c 1
 188 254 181 241 163 206 c 0
 112 109 95 69 92 30 c 0
 91 13 76 -1 59 -1 c 0
 41 -1 25 15 25 33 c 0
EndSplineSet
EndChar

StartChar: Mu
Encoding: 369 924 236
Width: 462
Flags: W
HStem: 0 21G<50 65.5 386 403.5> 447 20G<192.5 214.5 380.5 407.5>
VStem: 25 64<3.51229 45.7224> 129 112<266.391 399.169> 361 67<3.53394 229.805> 370 67<16.1525 241.845>
LayerCount: 2
Fore
SplineSet
28 46 m 2xf4
 28 47 l 1
 29 47 29 47 29 48 c 0
 75 140 106 250 129 333 c 0
 145 392 158 437 170 453 c 0
 177 462 187 467 198 467 c 0
 231 467 238 449 241 353 c 0
 244 255 250 210 262 186 c 1
 294 206 314 293 330 362 c 0
 340 404 347 439 356 450 c 0
 364 461 374 467 387 467 c 0
 428 467 437 424 437 233 c 0xf4
 437 165 434 87 428 30 c 0
 426 13 412 0 395 0 c 0
 377 0 361 16 361 34 c 2
 361 38 l 1xf8
 367 95 370 162 370 233 c 2
 370 246 l 1
 340 158 305 117 259 117 c 0
 213 117 188 160 179 255 c 1
 149 156 120 80 89 18 c 0
 84 7 72 0 59 0 c 0
 41 0 25 16 25 34 c 0
 25 39 25 40 28 46 c 2xf4
EndSplineSet
EndChar

StartChar: Nu
Encoding: 370 925 237
Width: 380
Flags: W
HStem: 0 21G<50 67 241 280> 447 20G<109.5 140.5 313 331>
VStem: 289 66<219.666 464.05>
LayerCount: 2
Fore
SplineSet
26 36 m 2
 26 40 l 1
 43 128 53 236 61 318 c 0
 67 377 72 423 76 437 c 0
 82 455 100 467 119 467 c 0
 162 467 182 426 230 227 c 0
 231 226 231 225 231 222 c 0
 249 146 254 126 261 104 c 1
 276 170 289 321 289 434 c 0
 289 452 304 467 322 467 c 0
 340 467 355 452 355 434 c 0
 355 341 347 224 336 146 c 0
 320 41 299 0 261 0 c 0
 221 0 207 34 152 262 c 0
 139 315 135 329 130 346 c 1
 114 163 107 104 92 27 c 0
 89 12 75 0 59 0 c 0
 41 0 25 16 25 34 c 0
 25 35 25 35 26 36 c 2
EndSplineSet
EndChar

StartChar: Xi
Encoding: 371 926 238
Width: 451
VWidth: 0
Flags: W
HStem: -1 67<28.4854 251.483> 23 67<149.715 367.329> 187 67<117.593 241.192> 210 68<178.715 321.707> 396 70<122.649 332.17>
LayerCount: 2
Fore
SplineSet
314 90 m 0x48
 374 90 426 63 426 33 c 0
 426 15 411 -1 393 -1 c 0x88
 373 -1 364 5 354 11 c 0
 344 17 334 23 314 23 c 0x48
 276 23 239 17 201 11 c 0
 163 5 125 -1 87 -1 c 0
 77 -1 67 -0 57 -0 c 0
 39 1 25 15 25 33 c 0
 25 51 41 67 59 67 c 0
 64 67 68 66 73 66 c 0
 78 66 82 66 87 66 c 0x88
 126 66 164 72 201 78 c 0
 238 84 275 90 314 90 c 0x48
292 210 m 0x18
 273 210 247 205 220 199 c 0
 193 193 167 187 148 187 c 0
 130 187 114 203 114 221 c 0
 114 237 126 251 142 254 c 0x28
 153 256 162 257 183 262 c 0
 237 274 261 278 292 278 c 0
 310 278 325 262 325 244 c 0
 325 226 310 210 292 210 c 0x18
304 396 m 0
 296 396 285 397 275 398 c 0
 265 399 254 399 246 399 c 0
 238 399 218 397 198 396 c 0
 178 395 158 393 150 393 c 0
 132 393 116 409 116 427 c 0
 116 444 130 459 147 460 c 0
 220 466 222 466 246 466 c 0
 264 466 283 465 306 463 c 0
 323 462 337 447 337 430 c 0
 337 412 322 396 304 396 c 0
EndSplineSet
EndChar

StartChar: Omicron
Encoding: 372 927 239
Width: 473
Flags: W
HStem: 0 68<126.86 276.423> 400 67<191.809 353.922>
VStem: 25 67<98.5669 293.421> 381 67<219.425 375.615>
LayerCount: 2
Fore
SplineSet
25 179 m 0
 25 360 120 466 282 467 c 2
 285 467 l 2
 388 467 448 411 448 315 c 0
 448 245 413 149 362 76 c 0
 328 28 270 0 203 0 c 0
 112 0 37 50 29 116 c 0
 29 118 28 121 28 123 c 0
 25 168 25 168 25 178 c 0
 25 179 l 0
283 400 m 2
 158 399 92 322 92 179 c 0
 92 168 92 164 96 123 c 0
 100 94 151 68 204 68 c 0
 248 68 285 85 307 115 c 0
 353 182 381 258 381 315 c 0
 381 374 352 400 285 400 c 2
 283 400 l 2
EndSplineSet
EndChar

StartChar: Pi
Encoding: 373 928 240
Width: 366
VWidth: 0
Flags: W
HStem: -0 21G<49 67 283 301> 400 67<102.586 269.061>
VStem: 25 67<3.2926 247.839> 36 67<35.1116 390.368> 274 67<89.5205 387.645>
LayerCount: 2
Fore
SplineSet
259 33 m 0xd8
 259 66 262 117 266 169 c 0
 270 221 274 273 274 306 c 0
 274 333 273 358 271 383 c 1
 240 393 202 397 188 399 c 0
 185 399 183 400 182 400 c 0
 158 400 135 395 101 384 c 1
 102 361 103 338 103 315 c 0xd8
 103 266 101 222 98 177 c 0
 95 133 92 87 92 33 c 0
 92 15 76 0 58 -0 c 0
 40 0 25 15 25 33 c 0xe8
 25 78 27 126 30 174 c 0
 33 222 36 270 36 315 c 0
 36 327 35 342 34 357 c 0
 33 372 33 388 33 400 c 0
 33 409 37 418 43 424 c 0
 47 432 53 439 62 442 c 0
 113 460 146 467 182 467 c 0
 217 467 288 453 310 441 c 0
 324 438 335 425 336 411 c 0
 339 377 341 343 341 306 c 0
 341 246 337 190 333 133 c 0
 331 100 328 66 326 31 c 0
 325 13 310 -1 292 -1 c 0
 274 -1 259 15 259 33 c 0xd8
EndSplineSet
EndChar

StartChar: Rho
Encoding: 374 929 241
Width: 324
Flags: W
HStem: 0 21G<50 68> 220 67<120.377 201.125> 400 67<137.564 228.969>
VStem: 232 67<320.511 392.926>
LayerCount: 2
Fore
SplineSet
120 287 m 1
 141 287 l 2
 194 287 218 309 232 371 c 1
 232 374 l 2
 232 387 208 400 184 400 c 2
 182 400 l 2
 181 399 181 399 180 399 c 0
 163 396 149 392 137 387 c 1
 136 384 136 384 136 383 c 0
 135 382 135 382 129 345 c 0
 127 331 124 313 120 287 c 1
184 467 m 0
 248 467 299 426 299 374 c 0
 299 343 277 288 255 263 c 0
 227 234 189 220 141 220 c 0
 118 220 117 220 111 221 c 1
 105 175 98 105 92 31 c 0
 91 14 77 0 59 0 c 0
 41 0 25 16 25 34 c 0
 25 86 66 388 77 420 c 0
 86 444 139 467 184 467 c 0
EndSplineSet
EndChar

StartChar: Sigma
Encoding: 375 931 242
Width: 374
VWidth: 0
Flags: W
HStem: -1 67<113.425 297.145> 399 68<160 316.999 317 345.56>
LayerCount: 2
Fore
SplineSet
131 -1 m 0
 52 -1 25 11 25 44 c 0
 25 78 59 114 190 223 c 0
 204 234 215 245 224 252 c 1
 215 260 204 269 192 278 c 0
 168 297 140 317 118 342 c 0
 95 368 84 393 84 418 c 0
 84 448 102 459 153 463 c 0
 171 464 276 467 316 467 c 0
 334 467 349 451 349 433 c 0
 349 415 335 401 317 400 c 0
 317 400 315 399 311 399 c 0
 285 399 182 398 160 396 c 1
 176 374 202 354 228 335 c 0
 265 307 301 280 301 248 c 0
 301 230 296 225 232 172 c 0
 166 117 136 90 113 66 c 1
 119 66 125 66 131 66 c 0
 149 66 183 68 215 70 c 0
 247 72 280 75 298 75 c 0
 316 75 331 59 331 41 c 0
 331 24 317 9 300 8 c 0
 237 3 175 -1 131 -1 c 0
EndSplineSet
EndChar

StartChar: Tau
Encoding: 376 932 243
Width: 397
Flags: W
HStem: 0 21G<143.5 162.5> 400 67<221 366.451>
VStem: 117 70<3.03955 162.216> 150 71<181.545 397>
LayerCount: 2
Fore
SplineSet
117 27 m 0xe0
 117 29 118 31 119 33 c 0
 120 35 121 37 121 39 c 0
 136 137 145 239 150 373 c 1
 150 378 l 2
 150 384 151 386 152 388 c 0
 153 390 154 391 154 397 c 1
 64 387 64 387 58 387 c 0
 40 387 25 402 25 420 c 0
 25 437 37 451 54 453 c 0
 140 464 185 467 235 467 c 0
 282 467 313 466 341 463 c 0
 358 462 372 447 372 429 c 0
 372 411 356 396 338 396 c 2
 336 396 l 2
 309 399 279 400 235 400 c 2
 221 400 l 1xd0
 221 312 205 133 187 28 c 0
 184 12 171 0 154 0 c 0
 133 0 117 11 117 27 c 0xe0
EndSplineSet
EndChar

StartChar: Upsilon
Encoding: 377 933 244
Width: 313
Flags: W
HStem: 0 21G<138 156> 447 20G<50 66 248.5 263>
VStem: 25 65<392.12 463.515> 114 66<3.2926 50 51 231.49>
LayerCount: 2
Fore
SplineSet
45 374 m 0
 45 374 44 375 44 376 c 0
 41 386 25 431 25 433 c 0
 25 451 41 467 59 467 c 0
 73 467 85 458 90 446 c 0
 97 429 104 410 110 391 c 0
 123 354 135 317 149 294 c 1
 158 308 167 329 177 353 c 0
 191 386 207 424 227 453 c 0
 233 462 243 467 254 467 c 0
 272 467 288 452 288 434 c 0
 288 423 288 422 283 416 c 0
 269 400 256 370 243 338 c 0
 226 296 207 251 184 233 c 1
 186 222 186 219 186 181 c 0
 186 147 185 131 183 116 c 0
 181 101 180 85 180 51 c 2
 180 34 l 2
 180 16 165 0 147 0 c 0
 129 0 114 15 114 33 c 2
 114 48 l 2
 114 50 l 0
 113 51 l 0
 113 73 114 95 116 118 c 0
 118 141 119 164 119 186 c 0
 119 218 119 221 117 232 c 1
 91 249 71 289 46 373 c 0
 45 373 45 373 45 374 c 0
EndSplineSet
EndChar

StartChar: Phi
Encoding: 378 934 245
Width: 370
VWidth: 0
Flags: W
HStem: -1 21G<169 186.5> 305 67<229 276.297> 446 20G<185 203>
VStem: 25 67<200.555 284.704> 145 67<2.48541 115.899> 161 67<201.937 297 372 462.707> 278 67<238.158 302.873>
LayerCount: 2
Fore
SplineSet
225 201 m 1xf2
 251 217 278 264 278 295 c 0
 278 298 278 300 277 300 c 0
 263 304 248 305 232 305 c 0
 231 305 230 305 229 305 c 0
 228 271 227 237 225 201 c 1xf2
232 372 m 0
 308 372 345 347 345 295 c 0
 345 266 332 230 310 193 c 0
 292 163 259 138 220 125 c 1
 218 100 216 73 212 30 c 0
 210 13 195 -1 178 -1 c 0
 160 -1 145 15 145 33 c 0xfa
 145 34 147 64 149 88 c 0
 150 102 152 114 152 116 c 1
 77 120 25 175 25 250 c 0
 25 302 52 343 93 351 c 0
 93 351 93 351 94 351 c 0
 104 353 148 363 162 365 c 1
 162 395 161 423 161 431 c 0
 161 432 161 433 161 433 c 0
 161 451 176 466 194 466 c 0
 212 466 227 452 228 434 c 0xf6
 229 412 229 392 229 372 c 0
 230 372 231 372 232 372 c 0
92 250 m 0
 92 210 117 185 157 183 c 1
 160 224 161 261 162 297 c 1
 156 296 122 288 110 286 c 0
 108 285 106 285 106 285 c 0
 99 284 92 267 92 250 c 0
EndSplineSet
EndChar

StartChar: Chi
Encoding: 379 935 246
Width: 427
Flags: W
HStem: 0 21G<49 62.5 308 322> 447 20G<108 124 364.5 378>
VStem: 83 65<402.303 463.515>
LayerCount: 2
Fore
SplineSet
244 217 m 0
 288 123 316 86 331 65 c 0
 342 51 346 44 346 33 c 0
 346 15 331 0 313 0 c 0
 303 0 293 5 286 14 c 0
 251 62 226 102 199 156 c 1
 170 117 141 81 83 12 c 0
 76 4 67 0 58 0 c 0
 40 0 25 15 25 33 c 0
 25 46 29 51 48 72 c 0
 68 95 103 136 167 225 c 1
 85 421 83 426 83 433 c 0
 83 451 99 467 117 467 c 0
 131 467 143 459 148 447 c 0
 152 439 152 439 203 314 c 2
 213 289 l 1
 262 355 302 405 344 455 c 0
 351 463 360 467 369 467 c 0
 387 467 402 452 402 434 c 0
 402 424 400 417 395 412 c 0
 331 336 271 253 251 226 c 0
 247 220 244 217 244 217 c 0
EndSplineSet
EndChar

StartChar: Psi
Encoding: 380 936 247
Width: 383
VWidth: 0
Flags: W
HStem: 0 21G<169 187> 154 68<218 251.484> 447 20G<178 196>
VStem: 144 67<3.48541 150.527> 154 67<34.3523 157.856 232 463.56> 291 67<278.805 421.515>
LayerCount: 2
Fore
SplineSet
144 34 m 0xf4
 144 41 146 81 149 161 c 1
 123 169 98 183 78 203 c 0
 54 227 45 253 37 323 c 0
 33 359 28 385 26 394 c 0
 26 396 25 397 25 397 c 0
 25 415 41 431 59 431 c 0
 74 431 87 420 91 405 c 0
 97 379 100 353 103 330 c 0
 107 294 111 265 125 251 c 0
 133 243 142 237 152 232 c 1
 154 282 154 322 154 358 c 0
 154 385 154 410 153 432 c 2
 153 434 l 0
 153 452 169 467 187 467 c 0
 205 467 219 453 220 435 c 0
 221 412 221 386 221 358 c 0xec
 221 319 220 277 218 222 c 1
 229 224 241 226 252 230 c 0
 252 231 l 1
 267 246 280 300 291 395 c 0
 293 412 308 425 325 425 c 0
 343 425 358 409 358 391 c 0
 358 390 358 388 358 387 c 2
 341 240 319 184 275 168 c 0
 255 161 236 156 216 154 c 1
 213 79 212 62 211 32 c 0
 210 14 196 0 178 0 c 0
 160 0 144 16 144 34 c 0xf4
EndSplineSet
EndChar

StartChar: uni03A9
Encoding: 381 937 248
Width: 591
VWidth: 0
Flags: W
HStem: 2 67<29.6734 159> 23 67<412.574 508.335> 400 67<221.772 388.961>
VStem: 124 67<180.75 373.033> 408 67<202.315 381.257>
LayerCount: 2
Fore
SplineSet
191 306 m 0x78
 191 278 202 223 213 169 c 0
 224 115 235 61 235 33 c 0
 235 15 220 0 201 -0 c 0
 200 0 201 -0 200 -0 c 2
 178 1 144 2 120 2 c 0
 110 2 100 2 89 1 c 0
 78 0 69 -1 59 -1 c 0
 41 -1 25 15 25 33 c 0
 25 50 38 64 55 66 c 0
 72 68 94 69 120 69 c 0xb8
 132 69 145 68 159 68 c 1
 136 168 124 248 124 306 c 0
 124 348 130 377 143 398 c 0
 170 441 233 467 311 467 c 0
 374 467 423 449 444 419 c 0
 464 389 475 352 475 307 c 0
 475 242 452 162 411 83 c 1
 436 87 460 90 479 90 c 0
 532 90 566 67 566 33 c 0
 566 15 551 -1 533 -1 c 0
 519 -1 507 7 502 20 c 0
 496 22 488 23 479 23 c 0
 450 23 397 14 352 1 c 2
 349 0 346 0 343 -0 c 0
 325 0 309 15 309 33 c 0
 309 42 316 54 327 71 c 0
 342 95 364 132 385 191 c 0
 400 233 408 274 408 307 c 0
 408 337 401 363 389 381 c 0
 382 391 345 400 311 400 c 0
 260 400 214 384 200 362 c 0
 194 353 191 333 191 306 c 0x78
EndSplineSet
EndChar

StartChar: alpha
Encoding: 382 945 249
Width: 450
VWidth: 0
Flags: W
HStem: -1 67<96.272 165.201> 233 67<113.833 168.232 347.062 421.515>
VStem: 25 67<67.9531 209.698> 323 66<2.12434 68.5199>
LayerCount: 2
Fore
SplineSet
228 163 m 1
 183 206 146 233 132 233 c 0
 113 233 92 170 92 115 c 0
 92 81 100 66 118 66 c 0
 153 66 181 91 228 163 c 1
387 301 m 0
 410 301 425 287 425 267 c 0
 425 249 409 233 391 233 c 0
 390 233 390 234 389 234 c 0
 388 234 388 234 387 234 c 0
 364 234 344 217 313 172 c 1
 350 130 375 87 388 43 c 0
 389 40 389 36 389 33 c 0
 389 15 374 -1 356 -1 c 0
 341 -1 327 9 323 23 c 0
 314 52 299 82 275 112 c 1
 223 33 177 0 118 -1 c 0
 60 -1 25 43 25 115 c 0
 25 222 70 300 132 300 c 0
 166 300 199 280 265 220 c 1
 304 275 343 301 387 301 c 0
EndSplineSet
EndChar

StartChar: beta
Encoding: 383 946 250
Width: 291
VWidth: 0
Flags: W
HStem: 399 67<134.884 194.586>
VStem: 70 196<119 323.5 399.198 439.09> 70 67<296.018 391.874>
LayerCount: 2
Fore
SplineSet
132 187 m 1x80
 130 154 126 117 122 78 c 1
 172 95 196 119 198 153 c 1
 190 163 166 176 132 187 c 1x80
195 395 m 1
 189 398 180 399 170 399 c 0
 158 399 145 397 134 393 c 1
 136 369 137 343 137 314 c 0xa0
 137 308 136 302 136 296 c 1
 172 332 193 367 195 395 c 1
176 242 m 1
 236 219 266 191 266 155 c 0
 266 83 214 31 114 5 c 1
 108 -45 96 -143 92 -171 c 0
 90 -188 76 -200 59 -200 c 0
 41 -200 25 -184 25 -166 c 0
 25 -125 36 -26 47 74 c 0
 58 174 70 273 70 314 c 0xc0
 70 333 69 349 67 366 c 0
 65 383 64 400 64 419 c 0
 64 437 79 453 97 453 c 0
 99 453 100 452 102 452 c 0
 114 458 156 466 170 466 c 1
 225 466 263 439 263 399 c 0
 263 349 233 296 176 242 c 1
EndSplineSet
EndChar

StartChar: gamma
Encoding: 384 947 251
Width: 419
VWidth: 0
Flags: W
HStem: -1 21G<149 179> 233 67<96.492 171.4>
VStem: 109 111<11.1557 105.366>
LayerCount: 2
Fore
SplineSet
237 228 m 1
 285 262 349 298 361 298 c 0
 379 298 394 283 394 265 c 0
 394 253 387 242 377 236 c 0
 302 193 268 171 242 147 c 1
 241 131 241 131 220 38 c 0
 215 15 193 -1 165 -1 c 0
 133 -1 109 21 109 50 c 0
 109 75 142 138 176 175 c 1
 176 185 175 197 172 213 c 0
 169 228 163 233 148 233 c 0
 133 233 118 225 103 217 c 0
 88 209 73 201 58 201 c 0
 40 201 25 217 25 235 c 0
 25 246 30 257 39 263 c 0
 73 286 114 300 148 300 c 0
 195 300 228 273 237 228 c 1
EndSplineSet
EndChar

StartChar: delta
Encoding: 385 948 252
Width: 291
VWidth: 0
Flags: W
HStem: -1 67<92.822 152.067> 371 58<227.873 262.834> 399 67<138.582 208.291>
VStem: 52 67<274.343 378.771> 161 67<71.6652 176.403>
LayerCount: 2
Fore
SplineSet
115 230 m 1xb8
 64 276 52 295 52 330 c 0
 52 400 109 466 169 466 c 0xb8
 198 466 226 454 254 429 c 0
 255 429 l 0
 257 427 266 419 266 404 c 0
 266 386 250 371 232 371 c 0xd8
 219 371 210 378 201 385 c 0
 192 392 182 399 169 399 c 0
 147 399 119 361 119 330 c 0
 119 287 147 261 174 234 c 0
 201 207 228 180 228 137 c 0
 228 99 221 69 206 45 c 0
 188 17 159 -1 127 -1 c 0
 74 -1 25 41 25 85 c 0
 25 125 62 185 115 230 c 1xb8
127 66 m 0
 148 66 161 92 161 137 c 0
 161 154 160 166 156 177 c 1
 122 146 93 105 92 86 c 1
 100 75 115 66 127 66 c 0
EndSplineSet
EndChar

StartChar: epsilon
Encoding: 386 949 253
Width: 232
VWidth: 0
Flags: W
HStem: -1 67<92.9186 181.279> 109 66<97.5762 178.876> 231 70<117.7 203.363>
VStem: 25 67<67.372 102.041>
LayerCount: 2
Fore
SplineSet
206 46 m 0
 206 20 170 -1 124 -1 c 0
 67 -1 25 37 25 88 c 0
 25 108 33 127 47 141 c 1
 35 153 30 167 30 184 c 0
 30 239 65 271 151 295 c 0
 170 300 169 301 173 301 c 0
 191 301 207 285 207 267 c 0
 207 247 198 239 169 231 c 0
 116 216 98 204 97 185 c 1
 107 179 127 175 147 175 c 0
 148 175 l 0
 148 176 l 0
 166 176 182 160 182 142 c 0
 182 124 167 109 149 109 c 0
 121 108 92 98 92 88 c 0
 92 75 104 66 124 66 c 0
 135 66 141 70 148 73 c 0
 155 76 161 80 172 80 c 0
 190 80 206 64 206 46 c 0
EndSplineSet
EndChar

StartChar: zeta
Encoding: 387 950 254
Width: 350
VWidth: 0
Flags: W
HStem: -1 67<104.139 216.652> 447 20G<258.5 289.5>
VStem: 25 67<77.75 136.407> 125 67<232.886 286.4> 235 67<84.8455 155.807>
LayerCount: 2
Fore
SplineSet
251 376 m 1
 245 369 240 362 234 354 c 1
 236 354 237 355 239 355 c 1
 239 356 l 2
 243 360 248 368 251 376 c 1
96 413 m 0
 110 413 117 406 128 395 c 0
 136 387 146 378 162 368 c 1
 198 428 242 467 275 467 c 0
 304 467 325 442 325 406 c 0
 325 350 290 295 250 289 c 0
 237 287 225 286 214 286 c 0
 209 286 203 287 198 287 c 1
 194 275 192 263 192 254 c 0
 192 244 193 237 196 235 c 0
 200 232 207 231 215 229 c 0
 233 225 259 221 278 199 c 0
 294 181 302 157 302 124 c 0
 302 89 294 68 273 46 c 0
 245 17 200 -1 154 -1 c 0
 85 -1 25 49 25 106 c 0
 25 124 41 140 59 140 c 0
 75 140 89 128 92 112 c 0
 97 82 118 66 154 66 c 0
 193 66 232 88 234 110 c 0
 234 115 235 120 235 124 c 0
 235 141 232 152 227 156 c 0
 223 159 214 161 205 163 c 0
 188 167 164 171 147 189 c 0
 132 204 125 226 125 254 c 0
 125 271 128 288 134 307 c 1
 115 318 96 333 72 356 c 0
 66 362 62 371 62 380 c 0
 62 398 78 413 96 413 c 0
EndSplineSet
EndChar

StartChar: eta
Encoding: 388 951 255
Width: 317
VWidth: 0
Flags: W
HStem: -234 21G<235.5 253> -0 21G<49.5 76> 280 20G<59 77 201.5 237>
VStem: 25 74<7.79761 116.574> 34 67<217.448 296.707> 203 67<-212.663 148.677> 225 67<-7.23504 231.409>
LayerCount: 2
Fore
SplineSet
292 208 m 0xea
 292 168 286 119 281 71 c 0
 276 23 270 -27 270 -67 c 0
 270 -89 271 -111 273 -133 c 0
 275 -155 277 -178 277 -200 c 0
 277 -218 262 -234 244 -234 c 0
 227 -234 212 -221 210 -204 c 0
 205 -161 203 -116 203 -67 c 0xe4
 203 -29 209 21 214 71 c 0
 219 121 225 170 225 208 c 0
 225 217 221 227 216 232 c 1
 194 219 117 138 106 117 c 0
 101 108 100 93 99 76 c 0
 96 41 93 0 59 -0 c 0
 40 0 25 15 25 33 c 0
 25 34 25 34 25 35 c 2xf2
 30 107 34 203 34 267 c 0
 34 285 50 300 68 300 c 0
 86 300 101 285 101 267 c 0
 101 258 100 225 100 215 c 1
 170 288 187 300 216 300 c 0
 258 300 292 259 292 208 c 0xea
EndSplineSet
EndChar

StartChar: theta
Encoding: 389 952 256
Width: 339
VWidth: 0
Flags: W
HStem: -0 66<109.615 187.593> 200 67<98.0871 237.147> 400 67<129.911 219.616>
VStem: 25 67<82.6068 193.26 259 338.224> 247 67<206.288 369.895>
LayerCount: 2
Fore
SplineSet
92 187 m 0
 92 113 109 66 134 66 c 0
 187 66 222 108 238 193 c 1
 220 198 202 200 182 200 c 0
 159 200 132 197 92 190 c 0
 92 189 92 188 92 187 c 0
314 283 m 0
 314 108 245 0 134 -0 c 0
 65 0 25 67 25 187 c 0
 25 250 37 331 52 374 c 0
 74 435 114 467 169 467 c 0
 260 467 314 399 314 283 c 0
247 283 m 0
 247 361 221 400 169 400 c 0
 128 400 110 365 97 259 c 1
 132 265 158 267 182 267 c 0
 204 267 225 265 246 260 c 1
 247 269 247 275 247 283 c 0
EndSplineSet
EndChar

StartChar: iota
Encoding: 390 953 257
Width: 211
VWidth: 0
Flags: W
HStem: -0 21G<71.5 106.5> 281 20G<70 87>
VStem: 25 67<69.4044 259.335>
LayerCount: 2
Fore
SplineSet
94 -0 m 0
 49 0 25 40 25 114 c 0
 25 157 32 210 46 274 c 0
 49 289 62 301 78 301 c 0
 96 301 112 285 112 267 c 0
 112 248 107 220 102 191 c 0
 97 162 92 133 92 114 c 0
 92 94 94 77 98 68 c 1
 108 73 114 80 121 86 c 0
 130 95 138 102 152 102 c 0
 170 102 186 87 186 69 c 0
 186 60 182 51 176 45 c 0
 145 14 119 0 94 -0 c 0
EndSplineSet
EndChar

StartChar: kappa
Encoding: 391 954 258
Width: 302
VWidth: 0
Flags: W
HStem: -1 21G<50 67 238 253> 280 20G<78 96 232.5 244>
VStem: 25 67<2.50342 95.2838> 54 67<195.657 296.56>
LayerCount: 2
Fore
SplineSet
25 33 m 0xe0
 25 62 32 99 39 136 c 0
 46 173 54 210 54 239 c 0
 54 243 53 248 53 253 c 0
 53 258 53 263 53 267 c 0
 53 285 69 300 87 300 c 0
 105 300 119 286 120 268 c 0
 120 258 121 249 121 239 c 0xd0
 121 224 120 209 119 195 c 1
 144 212 175 243 208 287 c 0
 213 287 217 291 221 294 c 0
 225 297 230 300 235 300 c 0
 253 300 268 285 268 267 c 0
 268 260 265 253 261 247 c 0
 224 198 190 163 159 141 c 1
 204 110 240 82 266 58 c 0
 273 52 277 42 277 33 c 0
 277 15 262 -1 244 -1 c 0
 232 -1 228 3 213 16 c 0
 197 30 168 53 104 97 c 1
 97 60 95 48 92 28 c 0
 89 12 75 -1 59 -1 c 0
 41 -1 25 15 25 33 c 0xe0
EndSplineSet
EndChar

StartChar: lambda
Encoding: 392 955 259
Width: 390
VWidth: 0
Flags: W
HStem: -1 22G<49 65 318 341> 447 20G<100 115>
LayerCount: 2
Fore
SplineSet
332 -0 m 0
 304 0 263 58 191 199 c 1
 165 146 146 113 90 20 c 0
 81 5 72 -1 58 -1 c 0
 40 -1 25 15 25 33 c 0
 25 44 35 60 52 87 c 0
 75 123 110 181 153 276 c 1
 120 342 100 380 79 417 c 0
 76 422 75 427 75 433 c 0
 75 451 91 467 109 467 c 0
 121 467 132 460 138 449 c 0
 161 408 179 372 220 290 c 0
 291 148 325 91 357 55 c 0
 363 49 365 41 365 33 c 0
 365 15 350 0 332 -0 c 0
EndSplineSet
EndChar

StartChar: uni03BC
Encoding: 393 956 260
Width: 300
VWidth: 0
Flags: W
HStem: -234 21G<50 67.5> -0 21G<167.5 203> 281 20G<89.5 103 229 246.5>
VStem: 25 67<-230.515 -25.9688> 62 67<102.129 290.581> 208 67<110.465 295.897>
LayerCount: 2
Fore
SplineSet
25 -200 m 0xf4
 25 -182 30 -143 36 -94 c 0
 47 -10 61 105 62 201 c 0
 61 216 61 232 61 248 c 0
 61 277 62 282 71 291 c 0
 77 297 85 301 94 301 c 0
 112 301 127 286 128 268 c 0
 129 248 129 229 129 210 c 0
 129 208 129 207 129 205 c 0xec
 134 133 149 82 169 69 c 1
 192 104 208 165 208 218 c 0
 208 226 207 234 206 242 c 0
 205 250 204 259 204 267 c 0
 204 285 220 301 238 301 c 0
 255 301 269 288 271 272 c 0
 274 254 275 236 275 218 c 0
 275 110 227 0 179 -0 c 0
 156 0 135 8 118 25 c 1
 118 25 117 24 117 21 c 0
 114 -5 98 -138 92 -203 c 0
 90 -220 76 -234 59 -234 c 0
 41 -234 25 -218 25 -200 c 0xf4
EndSplineSet
EndChar

StartChar: nu
Encoding: 394 957 261
Width: 315
Flags: W
HStem: 0 21G<136.5 159.5> 280 20G<50 66 249.5 265>
VStem: 25 65<226.133 296.515>
LayerCount: 2
Fore
SplineSet
25 266 m 0
 25 284 41 300 59 300 c 0
 73 300 85 291 90 279 c 0
 96 263 145 128 154 100 c 1
 154 104 208 241 226 281 c 0
 231 292 243 300 256 300 c 0
 274 300 290 284 290 266 c 0
 290 260 289 256 286 252 c 0
 270 221 255 178 240 137 c 0
 222 86 204 38 188 18 c 0
 178 6 166 0 153 0 c 0
 120 0 107 22 65 148 c 0
 51 191 45 207 28 254 c 0
 26 258 25 262 25 266 c 0
EndSplineSet
EndChar

StartChar: xi
Encoding: 395 958 262
Width: 312
VWidth: 0
Flags: W
HStem: -1 67<101.328 204.379> 321 145<153.723 220.311>
VStem: 76 67<269.802 321.181> 206 67<71.8421 105.57>
LayerCount: 2
Fore
SplineSet
267 414 m 0
 267 367 214 321 158 321 c 0
 157 321 155 322 154 322 c 0
 147 300 143 286 143 277 c 0
 143 274 144 271 145 269 c 1
 164 305 194 327 226 327 c 0
 261 327 287 302 287 270 c 0
 287 252 279 232 264 215 c 0
 246 194 229 187 193 185 c 0
 193 184 193 183 193 182 c 0
 197 179 204 176 211 173 c 0
 228 165 251 155 263 131 c 0
 270 118 273 105 273 92 c 0
 273 39 224 -1 159 -1 c 0
 122 -1 82 11 42 35 c 0
 32 41 25 52 25 64 c 0
 25 82 40 98 58 98 c 0
 75 98 92 90 109 82 c 0
 126 74 142 66 159 66 c 0
 185 66 206 78 206 92 c 0
 206 95 206 98 204 101 c 0
 201 104 195 107 187 110 c 0
 164 120 128 135 126 179 c 0
 126 182 126 185 126 188 c 0
 126 191 126 194 126 197 c 0
 95 213 76 242 76 277 c 0
 76 296 81 315 93 350 c 0
 74 369 60 391 60 404 c 0
 60 422 76 438 94 438 c 0
 108 438 116 432 125 417 c 1
 148 449 178 466 213 466 c 0
 245 466 267 444 267 414 c 0
EndSplineSet
EndChar

StartChar: omicron
Encoding: 396 959 263
Width: 285
Flags: W
HStem: 0 67<94.2627 157.479> 280 20G<147 215.5>
VStem: 25 70<69.1934 171.407> 193 67<116.066 231.46>
LayerCount: 2
Fore
SplineSet
191 232 m 1
 139 226 92 158 92 90 c 0
 92 89 l 0
 92 87 92 87 94 75 c 0
 94 74 95 72 95 70 c 2
 95 69 l 2
 96 68 102 67 108 67 c 0
 124 67 145 75 157 86 c 0
 173 101 193 169 193 209 c 0
 193 215 192 223 191 232 c 1
108 0 m 0
 54 0 25 31 25 90 c 0
 25 198 102 294 192 300 c 1
 196 300 l 2
 235 300 260 265 260 209 c 0
 260 181 253 144 241 104 c 0
 223 53 203 29 164 12 c 0
 146 4 127 0 108 0 c 0
EndSplineSet
EndChar

StartChar: pi
Encoding: 397 960 264
Width: 378
VWidth: 0
Flags: W
HStem: -0 66<301.154 344.876> 227 67<198 232.252> 229 72<65.4343 130.816 298.193 347.167>
VStem: 131 67<139.355 227> 228 67<67.4602 228>
LayerCount: 2
Fore
SplineSet
131 229 m 1xb8
 75 233 61 241 61 267 c 0
 61 285 76 301 94 301 c 0xb8
 112 301 128 299 143 297 c 0
 158 295 174 294 192 294 c 0xd8
 209 294 233 295 256 297 c 0
 279 299 303 301 320 301 c 0xb8
 338 301 353 285 353 267 c 0
 353 250 340 236 323 234 c 0
 316 233 308 233 300 232 c 1
 296 186 295 162 295 140 c 0
 295 93 302 66 314 66 c 0
 332 66 348 51 348 33 c 0
 348 15 332 0 314 -0 c 0
 257 0 228 46 228 140 c 0
 228 163 230 187 233 228 c 1
 221 228 209 227 198 227 c 1xd8
 196 131 178 97 88 15 c 0
 74 2 69 0 58 -0 c 0
 40 0 25 15 25 33 c 0
 25 42 29 52 36 58 c 0
 120 135 129 151 131 229 c 1xb8
EndSplineSet
EndChar

StartChar: rho
Encoding: 398 961 265
Width: 364
VWidth: 0
Flags: W
HStem: -234 21G<50 67.5> -0 67<119.234 216.948> 234 67<176.163 260.657>
VStem: 25 67<-230.515 11.1694> 272 67<124.69 221.835>
LayerCount: 2
Fore
SplineSet
220 301 m 0
 285 301 339 248 339 184 c 0
 339 91 254 0 168 -0 c 0
 147 0 126 5 106 15 c 1
 102 -25 100 -67 98 -108 c 0
 96 -140 94 -172 92 -203 c 0
 91 -220 76 -234 59 -234 c 0
 41 -234 25 -218 25 -200 c 0
 25 -200 25 -200 25 -198 c 0
 26 -191 28 -166 31 -104 c 0
 43 112 59 187 107 240 c 0
 143 280 181 301 220 301 c 0
272 184 m 0
 272 211 248 234 220 234 c 0
 201 234 178 220 156 196 c 0
 139 177 125 139 116 89 c 0
 118 88 119 87 121 85 c 0
 135 72 151 67 168 67 c 0
 217 67 272 129 272 184 c 0
EndSplineSet
EndChar

StartChar: sigma
Encoding: 399 963 266
Width: 374
VWidth: 0
Flags: W
HStem: -0 67<108.912 172.669> 233 67<196 262.653>
VStem: 25 67<82.8076 192.282> 175 67<68.9865 163.235> 282 67<158.656 214.908>
LayerCount: 2
Fore
SplineSet
188 300 m 0
 280 300 349 253 349 189 c 0
 349 171 333 155 315 155 c 0
 299 155 285 166 282 182 c 0
 275 216 249 231 196 233 c 1
 228 172 242 132 242 97 c 0
 242 42 201 0 148 -0 c 0
 82 0 25 58 25 125 c 0
 25 226 94 300 188 300 c 0
130 215 m 1
 107 197 92 162 92 125 c 0
 92 95 120 67 148 67 c 0
 164 67 175 79 175 97 c 0
 175 122 161 157 130 215 c 1
EndSplineSet
EndChar

StartChar: tau
Encoding: 400 964 267
Width: 366
VWidth: 0
Flags: W
HStem: -0 66<205.976 250.726>
VStem: 138 67<66.2605 215.755>
LayerCount: 2
Fore
SplineSet
209 66 m 0
 221 66 239 78 258 90 c 0
 277 102 296 114 308 114 c 0
 326 114 341 99 341 81 c 0
 341 76 337 72 333 67 c 0
 329 62 325 57 325 52 c 0
 319 49 313 46 302 39 c 0
 253 8 234 0 209 -0 c 0
 165 0 138 31 138 86 c 0
 138 109 141 128 151 182 c 0
 154 197 156 208 157 217 c 1
 59 204 60 203 59 203 c 0
 41 203 25 219 25 237 c 0
 25 254 37 268 54 270 c 0
 231 294 286 301 303 301 c 0
 321 301 336 285 336 267 c 0
 336 250 323 236 306 234 c 0
 280 232 253 228 226 225 c 1
 224 209 221 191 217 171 c 0
 211 140 205 108 205 86 c 0
 205 76 207 66 209 66 c 0
EndSplineSet
EndChar

StartChar: upsilon
Encoding: 401 965 268
Width: 265
VWidth: 0
Flags: W
HStem: -1 68<117.238 150.377> 280 20G<49 67 198 216>
VStem: 25 69<81.375 295.579> 171 69<87.3346 296.74>
LayerCount: 2
Fore
SplineSet
25 267 m 0
 25 285 40 300 58 300 c 0
 76 300 91 286 92 268 c 0
 93 254 93 243 94 219 c 0
 96 134 100 109 117 73 c 0
 122 69 132 67 140 67 c 0
 142 67 143 67 144 67 c 0
 160 106 167 142 171 227 c 0
 172 249 172 258 173 269 c 0
 174 287 189 301 207 301 c 0
 225 301 240 285 240 267 c 0
 240 267 240 267 240 265 c 0
 240 260 239 245 238 224 c 0
 233 126 225 83 203 34 c 0
 194 14 168 -1 140 -1 c 0
 104 -1 69 17 57 42 c 0
 34 90 25 153 25 267 c 0
EndSplineSet
EndChar

StartChar: phi
Encoding: 402 966 269
Width: 351
VWidth: 0
Flags: W
HStem: -234 21G<163 181> 280 20G<123 140 241 280>
VStem: 25 67<87.3061 195.094> 138 67<-230.515 5.83766> 259 67<108.937 211.183>
LayerCount: 2
Fore
SplineSet
262 300 m 0
 298 300 326 240 326 164 c 0
 326 95 272 22 210 5 c 1
 207 -52 205 -117 205 -174 c 0
 205 -178 205 -183 205 -187 c 0
 205 -191 205 -196 205 -200 c 0
 205 -218 190 -234 172 -234 c 0
 154 -234 138 -218 138 -200 c 0
 138 -192 138 -183 138 -174 c 0
 138 -117 140 -54 143 1 c 1
 70 11 25 66 25 147 c 0
 25 192 36 215 77 257 c 0
 91 272 98 279 105 288 c 0
 107 290 115 300 131 300 c 0
 149 300 164 285 164 267 c 0
 164 253 159 245 125 210 c 0
 95 179 92 173 92 147 c 0
 92 102 111 75 147 68 c 1
 149 94 152 117 155 136 c 0
 167 220 220 300 262 300 c 0
216 81 m 1
 238 99 259 139 259 164 c 0
 259 177 257 196 253 212 c 1
 230 174 222 143 216 81 c 1
EndSplineSet
EndChar

StartChar: chi
Encoding: 403 967 270
Width: 402
VWidth: 0
Flags: W
HStem: -234 21G<55 70.5 282 298> 280 20G<49 62 340.5 352>
VStem: 31 64<-230.836 -176.629>
LayerCount: 2
Fore
SplineSet
31 -200 m 0
 31 -185 87 -79 161 46 c 0
 120 142 80 203 36 242 c 0
 36 246 34 250 31 254 c 0
 28 258 25 263 25 267 c 0
 25 285 40 300 58 300 c 0
 66 300 75 297 81 292 c 0
 126 252 165 196 203 115 c 1
 245 183 283 242 316 287 c 0
 321 287 326 291 330 294 c 0
 334 297 338 300 343 300 c 0
 361 300 377 285 377 267 c 0
 377 256 373 251 356 227 c 0
 337 200 301 148 236 40 c 0
 266 -33 323 -191 323 -200 c 0
 323 -218 307 -234 289 -234 c 0
 275 -234 263 -225 258 -212 c 0
 258 -212 258 -210 257 -207 c 0
 248 -184 206 -70 192 -33 c 1
 150 -106 114 -174 95 -214 c 0
 89 -226 77 -234 64 -234 c 0
 46 -234 31 -218 31 -200 c 0
EndSplineSet
EndChar

StartChar: psi
Encoding: 404 968 271
Width: 350
VWidth: 0
Flags: W
HStem: -234 21G<138 156> 281 20G<174 192>
VStem: 25 67<106.719 243.75> 34 66<184.031 270.358> 258 67<179.088 270.515>
LayerCount: 2
Fore
SplineSet
130 7 m 1xe8
 68 30 25 101 25 183 c 0xe8
 25 205 28 227 34 249 c 0
 38 264 51 274 66 274 c 0
 84 274 100 258 100 240 c 0xd8
 100 230 98 220 96 211 c 0
 94 202 92 193 92 183 c 0
 92 140 109 99 135 79 c 1
 141 154 146 209 150 269 c 0
 151 287 165 301 183 301 c 0
 201 301 217 285 217 267 c 0
 217 264 211 182 206 121 c 1
 236 167 257 215 258 242 c 0
 259 260 273 274 291 274 c 0
 309 274 325 258 325 240 c 0
 325 180 249 42 197 8 c 1
 190 -81 186 -137 181 -202 c 0
 180 -219 165 -234 147 -234 c 0
 129 -234 114 -218 114 -200 c 0
 114 -195 123 -82 130 7 c 1xe8
EndSplineSet
EndChar

StartChar: omega
Encoding: 405 969 272
Width: 432
VWidth: 0
Flags: W
HStem: -0 21G<72 113.5 246.5 297> 281 20G<59 77 225.5 242.5 364 383.5>
VStem: 25 67<67.749 266.01> 35 67<112.315 297.515> 201 66<209.828 296.707> 340 67<157.128 297.876>
LayerCount: 2
Fore
SplineSet
264 -0 m 0xec
 229 0 206 28 198 81 c 1
 167 27 132 0 95 -0 c 0
 49 0 25 37 25 111 c 0xec
 25 139 27 170 30 199 c 0
 32 224 35 247 35 267 c 0
 35 285 50 301 68 301 c 0
 86 301 102 285 102 267 c 0xdc
 102 246 99 217 97 189 c 0
 95 161 92 132 92 111 c 0
 92 90 94 75 98 67 c 1
 127 76 175 172 201 275 c 0
 205 290 218 300 233 300 c 0
 252 300 267 285 267 267 c 0
 267 266 267 264 267 263 c 2
 263 231 260 185 260 153 c 0
 260 118 263 90 268 74 c 1
 313 115 340 186 340 260 c 0
 340 261 340 262 340 263 c 0
 340 264 340 266 340 267 c 0
 340 285 355 301 373 301 c 0
 394 301 407 286 407 260 c 0
 407 139 330 0 264 -0 c 0xec
EndSplineSet
EndChar

StartChar: uni3200
Encoding: 406 12800 273
Width: 244
Flags: W
HStem: 303 44<111.555 148 149 157>
VStem: 25 43<200.156 226.001> 174 45<200.282 298.203>
LayerCount: 2
Fore
SplineSet
148 302 m 1
 139 302 l 2
 111 301 107 301 96 298 c 1
 91 280 86 265 68 215 c 0
 65 206 56 200 47 200 c 0
 35 200 25 211 25 223 c 0
 25 227 26 226 26 226 c 0
 26 226 27 226 27 230 c 0
 39 261 48 292 57 322 c 0
 74 379 90 435 125 499 c 0
 130 507 137 511 145 511 c 0
 154 511 162 506 165 497 c 0
 191 424 197 390 217 233 c 0
 217 231 218 230 218 228 c 0
 218 226 218 224 219 223 c 0
 219 211 208 200 196 200 c 0
 185 200 175 208 174 219 c 0
 174 224 174 228 172 239 c 0
 170 250 167 269 163 303 c 1
 149 303 l 1
 148 302 l 1
157 347 m 1
 154 374 150 397 141 429 c 1
 130 404 122 382 111 345 c 1
 123 347 125 347 146 347 c 2
 157 347 l 1
EndSplineSet
Validated: 1
EndChar

StartChar: uni3201
Encoding: 407 12801 274
Width: 225
Flags: W
HStem: 200 49<71 102.868> 466 45<95 100 101 151.125>
VStem: 104 45<255.32 293.526> 153 47<433.015 464.885>
LayerCount: 2
Fore
SplineSet
25 228 m 0
 25 232 31 294 38 356 c 0
 45 418 52 481 52 485 c 0
 54 504 69 511 105 511 c 0
 164 511 200 495 200 468 c 0
 200 434 176 404 103 345 c 1
 102 344 l 2
 102 343 102 343 101 343 c 0
 100 343 100 343 99 342 c 1
 116 325 116 325 138 296 c 0
 147 285 149 280 149 269 c 0
 149 237 100 200 56 200 c 0
 37 200 25 211 25 228 c 0
105 467 m 2
 101 467 l 1
 100 466 l 1
 95 466 l 1
 95 462 89 400 87 389 c 1
 104 398 147 444 153 460 c 0
 153 461 153 461 152 461 c 0
 137 465 122 467 105 467 c 2
77 301 m 1
 77 300 l 2
 77 300 77 298 77 297 c 0
 76 293 74 281 71 249 c 1
 77 249 99 261 104 267 c 1
 104 269 l 2
 102 275 96 282 77 301 c 1
EndSplineSet
Validated: 1
EndChar

StartChar: uni3202
Encoding: 408 12802 275
Width: 240
Flags: W
HStem: 200 45<70.1871 166.445> 220 48<119.332 205.906>
VStem: 25 44<246.541 315.741>
LayerCount: 2
Fore
SplineSet
69 265 m 1024x20
100 245 m 0xa0
 110 245 126 250 142 256 c 0
 158 262 174 268 184 268 c 0x60
 196 268 207 257 207 245 c 0xa0
 207 234 192 220 181 220 c 1x60
 144 205 123 200 100 200 c 0
 59 200 25 230 25 266 c 0
 25 312 100 430 177 505 c 0
 181 509 187 511 193 511 c 0
 205 511 215 501 215 489 c 0
 215 483 212 477 208 473 c 0
 145 412 69 299 69 266 c 1
 73 251 82 245 100 245 c 0xa0
EndSplineSet
Validated: 1
EndChar

StartChar: uni3203
Encoding: 409 12803 276
Width: 222
Flags: W
HStem: 467 44<86.1572 142.245>
VStem: 152 45<349.866 455.84>
LayerCount: 2
Fore
SplineSet
197 422 m 0
 197 336 105 200 47 200 c 0
 35 200 25 210 25 223 c 0
 25 301 36 441 47 493 c 0
 49 503 58 510 69 511 c 2
 78 511 l 2
 155 511 197 479 197 422 c 0
71 263 m 1
 113 298 152 374 152 422 c 0
 152 449 130 465 89 467 c 1
 82 424 77 366 71 263 c 1
EndSplineSet
Validated: 1
EndChar

StartChar: uni3204
Encoding: 410 12804 277
Width: 236
Flags: W
HStem: 200 45<69 173.952> 213 44<169.094 196.803> 213 41<70.2282 168.859 169.094 196.803> 312 45<77 192.718> 467 44<91.2805 210.78>
VStem: 25 44<245 310.784>
LayerCount: 2
Fore
SplineSet
188 466 m 2x9c
 181 466 l 2
 158 467 156 467 149 467 c 2
 115 467 l 2
 114 467 113 467 113 467 c 0
 112 467 112 467 105 466 c 0
 102 466 97 466 91 465 c 1
 82 406 79 385 77 357 c 1
 170 357 l 2
 182 357 193 347 193 335 c 0
 193 323 182 312 170 312 c 2
 73 312 l 1
 70 286 69 264 69 245 c 1x9c
 95 246 134 251 156 254 c 0x3c
 162 255 166 256 169 256 c 0
 171 256 173 256 174 257 c 2
 186 257 197 247 197 235 c 0
 197 224 186 213 176 213 c 0x5c
 81 200 81 200 59 200 c 2
 47 200 l 2
 35 200 25 210 25 222 c 2
 25 237 l 2
 25 296 34 384 49 485 c 0
 49 506 68 511 147 511 c 2
 175 511 l 2
 199 511 211 504 211 488 c 0
 211 476 200 466 188 466 c 2x9c
EndSplineSet
Validated: 1
EndChar

StartChar: uni3205
Encoding: 411 12805 278
Width: 215
Flags: W
HStem: 338 45<70 180.743> 467 44<76.4444 189.821>
VStem: 25 47<200.496 338.983 382 463.244>
LayerCount: 2
Fore
SplineSet
70 382 m 1
 80 382 l 2
 81 382 83 382 84 382 c 0
 85 382 86 383 87 383 c 2
 159 383 l 2
 171 383 181 373 181 361 c 0
 181 349 172 339 160 338 c 2
 143 338 l 2
 121 338 117 338 109 339 c 2
 100 339 l 2
 83 339 81 339 69 337 c 1
 69 325 l 2
 69 285 70 254 72 225 c 2
 72 223 l 2
 72 211 61 200 49 200 c 0
 37 200 28 209 27 221 c 0
 25 247 25 260 25 325 c 0
 25 385 27 435 32 484 c 0
 33 494 41 503 51 504 c 2
 53 504 l 1
 83 509 114 511 141 511 c 0
 179 511 190 506 190 488 c 0
 190 476 180 465 168 465 c 2
 165 465 l 2
 163 465 162 466 160 466 c 0
 158 466 156 466 154 466 c 0
 150 467 148 467 141 467 c 0
 125 467 106 466 75 462 c 1
 75 461 l 2
 75 460 75 460 75 460 c 0
 74 450 73 449 72 426 c 0
 72 425 72 424 72 423 c 0
 72 417 72 410 71 400 c 0
 71 395 70 389 70 383 c 2
 70 382 l 1
EndSplineSet
Validated: 1
EndChar

StartChar: uni3206
Encoding: 412 12806 279
Width: 229
Flags: W
HStem: 213 44<69 138.231> 290 57<93.18 141.569> 469 42<158.669 203.87>
VStem: 25 44<258.095 369.403> 141 44<200.163 225 266.602 298.308>
LayerCount: 2
Fore
SplineSet
189 283 m 0
 189 271 189 267 188 260 c 0
 187 254 186 245 185 227 c 2
 185 223 l 2
 185 211 175 200 163 200 c 0
 150 200 141 209 141 223 c 2
 141 225 l 1
 81 213 81 213 69 213 c 0
 36 213 25 227 25 267 c 0
 25 382 75 464 172 509 c 0
 176 511 178 511 181 511 c 0
 193 511 204 501 204 489 c 0
 204 480 199 472 191 469 c 0
 108 430 69 366 69 267 c 2
 69 257 l 1
 76 257 142 270 144 272 c 0
 144 284 144 284 143 299 c 1
 112 290 112 290 111 290 c 0
 99 290 88 301 88 313 c 0
 88 327 91 329 124 340 c 0
 136 345 146 347 155 347 c 0
 169 347 180 339 183 327 c 0
 187 311 189 296 189 283 c 0
EndSplineSet
Validated: 1
EndChar

StartChar: uni3207
Encoding: 413 12807 280
Width: 216
Flags: W
VStem: 27 44<200.496 315.593 359 510.547> 133 45<200.315 311.034> 146 45<376.261 510.685>
LayerCount: 2
Fore
SplineSet
139 322 m 1xc0
 138 322 l 0
 134 322 115 319 71 313 c 1
 71 305 l 2
 70 255 69 237 69 229 c 0
 69 227 69 225 69 224 c 2
 69 222 l 2
 69 210 59 200 47 200 c 0
 35 200 25 211 25 223 c 0
 25 234 26 295 27 356 c 0
 28 417 29 478 29 489 c 0
 29 501 39 511 51 511 c 0
 63 511 74 501 74 489 c 0
 74 472 74 465 72 359 c 1
 93 362 139 367 140 367 c 0
 140 367 140 370 140 375 c 0
 141 401 146 485 146 490 c 0
 147 502 156 511 168 511 c 0
 180 511 191 501 191 489 c 2
 191 487 l 2xa0
 189 464 178 231 178 221 c 0
 177 209 168 200 156 200 c 0
 144 200 133 211 133 223 c 2
 133 226 l 2
 134 233 138 292 139 312 c 2
 139 322 l 1xc0
EndSplineSet
Validated: 1
EndChar

StartChar: uni3208
Encoding: 414 12808 281
Width: 316
Flags: W
HStem: 200 43<73 91.9163 226.471 290.718> 467 44<169.277 236 237 262.885>
VStem: 123 46<299.982 461>
LayerCount: 2
Fore
SplineSet
268 200 m 0
 261 200 241 208 218 218 c 0
 193 229 164 241 141 247 c 1
 128 218 96 194 71 194 c 0
 47 194 25 218 25 243 c 0
 25 272 63 298 105 298 c 2
 107 298 l 1
 113 340 119 400 123 460 c 0
 123 461 123 461 102 461 c 0
 92 460 71 458 67 457 c 0
 55 457 44 467 44 479 c 0
 44 490 52 500 63 501 c 0
 125 508 160 511 203 511 c 2
 241 511 l 2
 253 511 263 501 263 489 c 0
 263 477 253 466 241 466 c 2
 238 466 l 2
 237 466 l 0
 236 467 l 2
 203 467 l 2
 175 467 175 467 169 466 c 1
 169 463 l 1
 164 395 157 329 151 291 c 1
 178 283 205 272 230 261 c 0
 246 254 261 248 275 243 c 0
 285 239 291 231 291 223 c 0
 291 211 280 200 268 200 c 0
71 241 m 1
 73 239 l 1
 73 240 73 240 74 240 c 0
 81 243 86 246 93 253 c 1
 85 252 78 248 71 241 c 1
EndSplineSet
Validated: 1
EndChar

StartChar: uni3209
Encoding: 415 12809 282
Width: 208
Flags: W
HStem: 200 45<47.3772 111.865>
VStem: 135 44<275.284 510.652>
LayerCount: 2
Fore
SplineSet
136 445 m 0
 136 499 140 511 160 511 c 0
 172 511 183 501 183 489 c 2
 183 488 l 2
 182 481 182 481 179 425 c 2
 179 412 l 2
 176 319 169 281 145 225 c 0
 138 209 124 200 105 200 c 0
 92 200 70 206 41 216 c 0
 32 219 25 228 25 238 c 0
 25 250 35 260 47 260 c 0
 55 260 66 256 76 252 c 0
 86 248 97 245 105 245 c 1
 125 298 131 330 134 411 c 2
 134 413 l 2
 134 414 134 414 135 415 c 1
 135 427 l 2
 135 430 136 433 136 436 c 0
 136 439 136 442 136 445 c 0
EndSplineSet
Validated: 1
EndChar

StartChar: uni320A
Encoding: 416 12810 283
Width: 250
Flags: W
VStem: 25 44<200.162 304.925> 39 45<389 510.685>
LayerCount: 2
Fore
SplineSet
95 346 m 1x40
 104 337 120 323 138 309 c 0
 176 279 221 243 221 226 c 0
 221 214 211 204 199 204 c 0
 190 204 187 207 174 220 c 0
 160 234 134 258 77 303 c 0
 76 304 l 0
 74 305 l 1
 69 221 l 2
 68 209 59 200 47 200 c 0
 35 200 25 211 25 223 c 0x80
 26 225 33 363 39 490 c 0
 40 502 49 511 61 511 c 0
 73 511 84 501 84 489 c 0
 84 487 81 433 79 389 c 1
 145 428 165 464 177 486 c 0
 185 500 190 509 202 509 c 0
 214 509 225 498 225 486 c 0
 225 454 162 387 95 346 c 1x40
EndSplineSet
Validated: 1
EndChar

StartChar: uni320B
Encoding: 417 12811 284
Width: 205
Flags: W
HStem: 200 45<72.6089 179.547>
VStem: 51 44<324.197 510.856>
LayerCount: 2
Fore
SplineSet
95 489 m 0
 95 486 93 469 90 445 c 0
 84 396 75 314 71 245 c 0
 72 244 73 245 75 245 c 0
 76 245 77 245 79 245 c 0
 94 245 110 245 149 246 c 2
 158 246 l 2
 170 246 180 236 180 224 c 0
 180 212 171 202 159 201 c 0
 111 200 111 200 97 200 c 0
 44 200 25 208 25 231 c 2
 25 232 l 1
 30 320 36 383 51 492 c 0
 52 503 62 511 73 511 c 0
 85 511 95 501 95 489 c 0
EndSplineSet
Validated: 1
EndChar

StartChar: uni320C
Encoding: 418 12812 285
Width: 324
Flags: W
VStem: 25 42<200.129 230.769> 255 44<201.906 364>
LayerCount: 2
Fore
SplineSet
27 231 m 0
 28 231 27 231 27 232 c 0
 59 295 79 368 94 422 c 0
 105 461 113 492 121 502 c 0
 126 508 133 511 140 511 c 0
 162 511 167 498 169 435 c 0
 171 370 175 339 183 324 c 1
 203 337 216 395 227 441 c 0
 234 469 239 493 245 500 c 0
 250 507 257 511 266 511 c 0
 293 511 299 482 299 355 c 0
 299 306 297 255 293 220 c 0
 292 209 282 200 271 200 c 0
 259 200 249 211 249 223 c 2
 249 225 l 1
 253 264 255 308 255 355 c 2
 255 364 l 1
 235 305 212 278 181 278 c 0
 150 278 133 307 127 370 c 1
 107 303 88 253 67 212 c 0
 64 205 56 200 47 200 c 0
 35 200 25 211 25 223 c 0
 25 226 25 226 27 231 c 0
EndSplineSet
Validated: 1
EndChar

StartChar: uni320D
Encoding: 419 12813 286
Width: 270
Flags: W
VStem: 25 44<200.197 362.649> 201 44<297.245 510.885>
LayerCount: 2
Fore
SplineSet
25 223 m 2
 25 227 l 1
 36 283 43 356 49 411 c 0
 53 451 56 482 59 491 c 0
 63 503 74 511 87 511 c 0
 116 511 129 483 161 351 c 0
 162 350 162 350 162 348 c 0
 163 345 163 345 182 269 c 1
 192 315 201 417 201 489 c 0
 201 501 211 511 223 511 c 0
 235 511 245 501 245 489 c 0
 245 423 240 345 232 297 c 0
 221 227 207 200 182 200 c 0
 155 200 146 222 109 375 c 0
 109 375 108 376 108 377 c 0
 106 386 98 423 95 431 c 1
 84 311 79 270 69 218 c 0
 67 208 57 200 47 200 c 0
 35 200 25 211 25 223 c 2
EndSplineSet
Validated: 1
EndChar

StartChar: uni320E
Encoding: 420 12814 287
Width: 332
Flags: W
HStem: 200 45<84.7487 200.863> 467 44<125.161 251.498>
VStem: 25 44<261.205 407.312> 262 45<329.296 455.917>
LayerCount: 2
Fore
SplineSet
197 467 m 2
 114 466 69 414 69 319 c 0
 69 309 69 303 72 282 c 0
 75 263 110 245 144 245 c 0
 173 245 198 257 213 277 c 0
 244 320 262 370 262 410 c 0
 262 450 242 467 198 467 c 2
 197 467 l 2
25 319 m 0
 25 440 88 510 196 511 c 2
 198 511 l 2
 267 511 307 474 307 410 c 0
 307 364 284 300 249 251 c 0
 226 219 188 200 143 200 c 0
 82 200 32 233 27 277 c 0
 25 294 25 302 25 319 c 0
EndSplineSet
Validated: 1
EndChar

StartChar: uni320F
Encoding: 421 12815 288
Width: 232
Flags: W
HStem: 347 44<88 148.195> 467 44<99.5149 129 129 162.718>
VStem: 25 44<200.162 344.115> 163 44<405.375 464.748>
LayerCount: 2
Fore
SplineSet
131 511 m 0
 174 511 207 484 207 449 c 0
 207 428 193 392 178 375 c 0
 159 356 134 347 102 347 c 2
 89 347 l 2
 87 347 86 347 85 347 c 0
 84 347 83 346 82 347 c 1
 78 321 78 314 69 221 c 0
 68 209 58 200 47 200 c 0
 35 200 25 211 25 223 c 0
 25 255 52 457 59 480 c 0
 65 496 100 511 131 511 c 0
88 391 m 1
 102 391 l 2
 137 391 154 406 163 447 c 1
 163 449 l 2
 163 458 147 467 131 467 c 2
 129 467 l 1
 129 466 129 466 128 466 c 0
 120 464 110 462 99 458 c 1
 96 449 89 401 88 392 c 0
 88 391 88 391 88 391 c 1
EndSplineSet
Validated: 1
EndChar

StartChar: uni3210
Encoding: 422 12816 289
Width: 265
Flags: W
HStem: 224 45<69.8085 119.573> 467 44<132.572 168.441>
VStem: 169 44<347.443 466.531>
LayerCount: 2
Fore
SplineSet
25 280 m 0
 25 389 100 511 167 511 c 0
 198 511 213 489 213 444 c 0
 213 403 200 349 179 300 c 1
 240 231 240 231 240 222 c 0
 240 210 230 200 218 200 c 0
 210 200 205 202 201 207 c 0
 194 216 185 225 177 234 c 0
 167 245 159 255 155 260 c 1
 136 237 112 224 89 224 c 0
 56 224 25 252 25 280 c 0
121 355 m 0
 130 355 135 351 146 337 c 1
 160 376 169 418 169 444 c 0
 169 449 169 449 166 467 c 1
 125 466 76 372 69 281 c 1
 70 281 l 1
 75 273 82 269 89 269 c 0
 100 269 113 278 125 295 c 1
 99 325 99 326 99 332 c 0
 99 344 109 355 121 355 c 0
EndSplineSet
Validated: 1
EndChar

